<?xml version="1.0" encoding="utf-8"?>
<!-- Generator: Adobe Illustrator 24.0.1, SVG Export Plug-In . SVG Version: 6.00 Build 0)  -->
<svg version="1.1" id="Capa_1" xmlns="http://www.w3.org/2000/svg" xmlns:xlink="http://www.w3.org/1999/xlink" x="0px" y="0px"
	 viewBox="0 0 28 30" style="enable-background:new 0 0 28 30;" xml:space="preserve">
<style type="text/css">
	.st0{fill:#FFD900;}
</style>
<path class="st0" d="M26.8,16.4l-9,9c-0.4,0.4-0.9,0.6-1.4,0.6c-1.1,0-1.9-0.8-1.9-1.8c0-0.6,0.2-1,0.6-1.4l3.1-3.1l3.1-2.9l-3,0.2
	H2.7c-1.2,0-2-0.8-2-1.9s0.8-1.9,2-1.9h15.7l3,0.2l-3.1-2.9l-3.1-3.1C14.9,7,14.6,6.6,14.6,6c0-1,0.8-1.8,1.9-1.8
	c0.5,0,1,0.2,1.4,0.6l9,8.9c0.4,0.4,0.6,0.9,0.6,1.4C27.4,15.5,27.1,16.1,26.8,16.4z"/>
</svg>
