<?xml version="1.0" encoding="utf-8"?>
<!-- Generator: Adobe Illustrator 24.0.1, SVG Export Plug-In . SVG Version: 6.00 Build 0)  -->
<svg version="1.1" id="Capa_1" xmlns="http://www.w3.org/2000/svg" xmlns:xlink="http://www.w3.org/1999/xlink" x="0px" y="0px"
	 viewBox="0 0 400 225" style="enable-background:new 0 0 400 225;" xml:space="preserve">
<style type="text/css">
	.st0{fill:#D80212;}
	.st1{fill:#003A75;}
</style>
<path id="path2" class="st0" d="M289.4,116.3c0.6-4.4,1-8.9,1-13.4c0-1.2,0-2.4-0.1-3.6l-56.8,41.8c0.1,1.3,0.2,2.5,0.2,3.8
	c0,18.6-14.9,33.7-33.4,33.7c-18.4,0-33.4-15.1-33.4-33.7c0-1.3,0.1-2.5,0.2-3.7l-56.8-41.9c-0.1,1.2-0.1,2.4-0.1,3.6
	c0,4.6,0.3,9,1,13.4l37.8,27.8c0.1,2.1,0.3,4.2,0.6,6.3l-37.2-27.4c1,4.6,2.4,9.2,4.2,13.6l37.2,27.4c1.5,3.3,3.3,6.4,5.5,9.3
	l-25.5-18.8c0.2,0.4,0.3,0.7,0.5,1.1c6.7,15,20.4,27.1,37.8,33.5c1.9,0.7,3.9,1.3,5.8,1.9c0.1-0.1,0.3-0.1,0.4-0.2
	c0.7-0.3,1.4-0.5,2.1-0.8c6.4-2.2,13.1-3.3,19.9-3.3c7,0,13.6,1.2,19.9,3.3c0.7,0.3,1.4,0.5,2.1,0.8c0.1,0.1,0.3,0.1,0.4,0.2
	c2-0.6,3.9-1.2,5.8-1.9c17.4-6.4,31.2-18.5,37.8-33.5c0.2-0.4,0.3-0.7,0.5-1.1l-25.5,18.8c2.2-2.9,4-6,5.5-9.3l37.2-27.4
	c1.7-4.4,3.1-8.9,4.2-13.6l-37.2,27.4c0.3-2.1,0.6-4.1,0.6-6.3L289.4,116.3L289.4,116.3z"/>
<path id="path4" class="st1" d="M250.9,111.1c2.3-17.6,7.5-58.9,9.9-77.9h17.1l-6.2,37.6l14.1-20.1H303l-17.1,22.7l3.4,9.7
	l-14.8,10.9l-4.4-13.7l-3.1,19.2L250.9,111.1L250.9,111.1z M240.8,106.8c0.8-0.1,1.5-0.1,2.3-0.2c1.7-5,3.5-10,5.2-14.9
	c-1.8,0.1-3.5,0.3-5.3,0.4c-7.3,0.5-12.2-8.9-11.8-17.1c0.5-7.6,5.8-7.7,8.3-7.8c3.6-0.1,7.1-0.2,10.7-0.4
	c-0.8-4.8-1.6-9.7-2.5-14.5l-10.3,0.2C220.9,52.7,215.7,63,215.4,74C215.1,92.6,226.7,108,240.8,106.8L240.8,106.8z M164.9,71.9
	c-0.2-2.9-2.1-20.6,19.4-20.5c2.4,0,4.8,0,7.2,0.1c21.5,0.1,20.8,18.1,20.7,21c-0.6,17.4-9.2,37.6-22.5,37.3
	C176.3,109.3,166.5,89,164.9,71.9z M181,73.9c0.6,11.5,5.5,19.9,8.2,20c2.7,0.1,7.1-8.2,7-19.8c-0.1-5.4-2.9-7.7-7.8-7.7
	C183.4,66.3,180.7,68.5,181,73.9L181,73.9z M125.2,70.1l30.6,47.3l14.5,10.6c1.9-3.2,4.4-6.1,7.3-8.6l-31.1-44.7
	c6.9-4.9,12.9-11.8,11.9-22.5c-0.8-8.4-6.5-19.1-23.9-19H95l12.4,48.8l19.7,14.5l-10-47.6c0,0,7.6,0.2,11.4,0.3
	c3.4,0.1,8.8-0.1,9.5,4.7C139,60.6,129,66.8,125.2,70.1L125.2,70.1z M178.7,145.2v-5.4h1.4c0-4.3,1.7-9.4,8.4-9.4h1.4l1.6,5.5h-1.3
	c-3.2,0-3.6,1.9-3.6,3.9h3.8v5.4h-3.8v15.2h-6.5v-15.2H178.7z M212,139.8c5.5,0,7.3,2.4,7.3,7.9v12.7h-6.3v-11.7
	c-0.1-2.7-0.1-3.2-2.8-3.3h-1v15h-6.3v-15h-3.9v15h-6.3v-20.6L212,139.8L212,139.8L212,139.8z"/>
</svg>
