<?xml version="1.0" encoding="utf-8"?>
<!-- Generator: Adobe Illustrator 24.2.1, SVG Export Plug-In . SVG Version: 6.00 Build 0)  -->
<svg version="1.1" id="Capa_1" xmlns="http://www.w3.org/2000/svg" xmlns:xlink="http://www.w3.org/1999/xlink" x="0px" y="0px"
	 viewBox="0 0 400 225" style="enable-background:new 0 0 400 225;" xml:space="preserve">
<style type="text/css">
	.st0{fill:#B9B3AD;}
	.st1{fill:#FFFFFF;}
	.st2{fill:#80BC00;}
	.st3{fill:#B14FC5;}
	.st4{fill:#F32735;}
	.st5{fill:#FF6B00;}
	.st6{fill:#009EE2;}
	.st7{fill:#AFA99F;}
	.st8{fill:#FFA400;}
	.st9{fill:#B27913;}
</style>
<g>
	<g>
		<path class="st0" d="M318.2,118.2c-17.1-14.8-24.3-7.5-32.1-9.3c-7.8-1.7-17.9,2.4-21.6,9.4s-0.1,9.8-7,21.4
			c-5.3,8.8-12,23.2-6.2,33.8c5.8,10.6,16.8,14.7,29,9.3c12.1-5.4,19.5-2.3,24.5-5.3C341.5,155.7,325.6,124.6,318.2,118.2z"/>
		<path class="st1" d="M316.2,118.7c-15.8-13.3-22.6-6.4-29.7-7.8c-7-1.4-15.9,2.6-19.4,9c-3.5,6.4-1.7,9.3-6.7,19.3
			c-4,7.8-11.8,21.2-7.2,30.9c4.7,9.9,14.8,13.9,25.9,9.2c11.3-4.7,18.2-1.4,23.1-4.1C338.7,154.7,323.3,124.6,316.2,118.7z"/>
	</g>
	<path class="st2" d="M99.7,110.8c-5.9,0-10.6-2.1-13.9-6.4H85c0.5,4.2,0.7,6.6,0.7,7.3v20.2H72V59.5h11.2l1.9,6.5h0.6
		c3.2-5,8-7.5,14.3-7.5c5.9,0,10.6,2.3,14,6.9c3.4,4.6,5,11,5,19.2c0,5.4-0.8,10.1-2.4,14c-1.6,4-3.8,7-6.7,9.1
		C107,109.8,103.6,110.8,99.7,110.8z M95.6,69.5c-3.4,0-5.9,1-7.4,3.1c-1.6,2.1-2.4,5.5-2.4,10.3v1.5c0,5.4,0.8,9.3,2.4,11.6
		c1.6,2.3,4.2,3.5,7.6,3.5c6.2,0,9.2-5.1,9.2-15.2c0-5-0.8-8.7-2.3-11.2C101.2,70.8,98.9,69.5,95.6,69.5z"/>
	<path class="st3" d="M126.5,46.5c0-4.5,2.5-6.7,7.5-6.7c5,0,7.5,2.2,7.5,6.7c0,2.1-0.6,3.8-1.9,5c-1.2,1.2-3.1,1.8-5.6,1.8
		C129,53.2,126.5,51,126.5,46.5z M140.8,109.9h-13.8V59.5h13.8V109.9z"/>
	<path class="st4" d="M187.1,94.9c0,5.2-1.8,9.1-5.4,11.8c-3.6,2.7-9,4.1-16.1,4.1c-3.7,0-6.8-0.2-9.4-0.7c-2.6-0.5-5-1.2-7.3-2.2
		V96.5c2.6,1.2,5.4,2.2,8.6,3c3.2,0.8,6,1.2,8.5,1.2c5,0,7.5-1.4,7.5-4.3c0-1.1-0.3-2-1-2.6c-0.7-0.7-1.8-1.4-3.4-2.3
		c-1.6-0.9-3.8-1.9-6.5-3c-3.9-1.6-6.7-3.1-8.5-4.5c-1.8-1.4-3.1-3-4-4.8c-0.8-1.8-1.2-4-1.2-6.6c0-4.5,1.7-7.9,5.2-10.4
		c3.5-2.5,8.4-3.7,14.8-3.7c6.1,0,12,1.3,17.7,4l-4.1,9.9c-2.5-1.1-4.9-2-7.1-2.7c-2.2-0.7-4.4-1-6.7-1c-4.1,0-6.1,1.1-6.1,3.3
		c0,1.2,0.7,2.3,2,3.2c1.3,0.9,4.2,2.2,8.6,4c3.9,1.6,6.8,3.1,8.7,4.5c1.8,1.4,3.2,3,4.1,4.8C186.7,90.3,187.1,92.4,187.1,94.9z"/>
	<path class="st5" d="M219.1,99.8c2.4,0,5.3-0.5,8.7-1.6v10.2c-3.4,1.5-7.6,2.3-12.6,2.3c-5.5,0-9.5-1.4-12-4.2
		c-2.5-2.8-3.8-6.9-3.8-12.5V69.8h-6.6V64l7.6-4.6l4-10.6h8.8v10.7h14.1v10.3h-14.1v24.3c0,2,0.5,3.4,1.6,4.3
		C215.8,99.4,217.3,99.8,219.1,99.8z"/>
	<path class="st6" d="M280,84.6c0,8.2-2.2,14.6-6.5,19.2c-4.3,4.6-10.4,6.9-18.1,6.9c-4.8,0-9.1-1.1-12.8-3.2
		c-3.7-2.1-6.5-5.2-8.5-9.1c-2-4-3-8.6-3-13.9c0-8.2,2.1-14.6,6.4-19.2c4.3-4.6,10.3-6.9,18.1-6.9c4.8,0,9.1,1.1,12.8,3.2
		s6.5,5.1,8.5,9.1C279,74.7,280,79.3,280,84.6z M245.2,84.6c0,5,0.8,8.8,2.5,11.3c1.6,2.6,4.3,3.8,8,3.8c3.7,0,6.3-1.3,7.9-3.8
		c1.6-2.5,2.4-6.3,2.4-11.3c0-5-0.8-8.7-2.4-11.2c-1.6-2.5-4.3-3.7-8-3.7c-3.7,0-6.3,1.2-7.9,3.7C246,75.8,245.2,79.6,245.2,84.6z"
		/>
	<g>
		<g>
			<path class="st7" d="M99.6,132.7c-2.7,0-4.1-1.5-4.1-4.5c0-1.5,0.4-2.6,1.1-3.4c0.7-0.8,1.8-1.2,3.2-1.2c1,0,1.9,0.2,2.7,0.6
				l-0.7,1.9c-0.4-0.2-0.7-0.3-1-0.4c-0.3-0.1-0.6-0.1-1-0.1c-1.2,0-1.9,0.9-1.9,2.6c0,1.7,0.6,2.6,1.9,2.6c0.5,0,0.9-0.1,1.3-0.2
				s0.8-0.3,1.2-0.6v2c-0.4,0.2-0.8,0.4-1.2,0.5C100.7,132.6,100.2,132.7,99.6,132.7z"/>
			<path class="st7" d="M112.2,128.1c0,1.4-0.4,2.5-1.1,3.3c-0.8,0.8-1.8,1.2-3.1,1.2c-0.8,0-1.6-0.2-2.2-0.6s-1.1-0.9-1.5-1.6
				c-0.3-0.7-0.5-1.5-0.5-2.4c0-1.4,0.4-2.5,1.1-3.3c0.7-0.8,1.8-1.2,3.2-1.2c0.8,0,1.6,0.2,2.2,0.5s1.1,0.9,1.5,1.6
				C112.1,126.4,112.2,127.2,112.2,128.1z M106.2,128.1c0,0.9,0.1,1.5,0.4,2c0.3,0.4,0.7,0.7,1.4,0.7c0.6,0,1.1-0.2,1.4-0.7
				c0.3-0.4,0.4-1.1,0.4-2c0-0.9-0.1-1.5-0.4-2c-0.3-0.4-0.7-0.7-1.4-0.7c-0.6,0-1.1,0.2-1.4,0.6
				C106.3,126.6,106.2,127.3,106.2,128.1z"/>
			<path class="st7" d="M122.3,132.5h-2.4v-5.1c0-0.6-0.1-1.1-0.3-1.4c-0.2-0.3-0.6-0.5-1.1-0.5c-0.7,0-1.2,0.2-1.4,0.7
				c-0.3,0.4-0.4,1.2-0.4,2.2v4.1h-2.4v-8.8h1.8l0.3,1.1h0.1c0.3-0.4,0.6-0.7,1.1-1c0.5-0.2,1-0.3,1.6-0.3c1,0,1.8,0.3,2.3,0.8
				s0.8,1.3,0.8,2.4V132.5z"/>
		</g>
	</g>
	<g>
		<g>
			<g>
				<g>
					<path class="st8" d="M302.1,127.4c8.9,7.7,9.8,21,2.2,29.9c-7.7,8.9-21,9.8-29.9,2.2c-8.9-7.7-9.8-21.1-2.2-29.9
						C279.9,120.7,293.2,119.7,302.1,127.4z"/>
					<path class="st9" d="M288.2,165.9c-5.2,0-10.4-1.8-14.7-5.5c-9.4-8.1-10.4-22.3-2.3-31.7c8.1-9.4,22.3-10.4,31.7-2.3l0,0
						c4.5,3.9,7.3,9.4,7.7,15.4c0.4,6-1.5,11.8-5.4,16.3C300.8,163.3,294.5,165.9,288.2,165.9z M288.2,123.5
						c-5.6,0-11.1,2.3-15.1,6.9c-7.2,8.3-6.3,20.9,2,28.1c8.3,7.2,20.9,6.3,28.1-2c3.5-4,5.2-9.2,4.8-14.5
						c-0.4-5.3-2.8-10.1-6.8-13.6l0,0C297.5,125.1,292.9,123.5,288.2,123.5z"/>
				</g>
			</g>
			<g>
				<g>
					<path class="st1" d="M289.1,128.9c-0.3,0.3-0.7,0.5-1.2,0.6c-8,0.3-11.5,6.9-11.6,7.2c-0.4,0.8-1.4,1.1-2.2,0.7
						c-0.8-0.4-1.1-1.4-0.7-2.2c0.2-0.4,4.4-8.7,14.4-9c0.9,0,1.7,0.7,1.7,1.6C289.5,128.2,289.4,128.6,289.1,128.9z"/>
				</g>
			</g>
		</g>
	</g>
	<path class="st7" d="M165.4,163.3c-0.2,0-0.4-0.1-0.4-0.3l-7.1-22.6c-0.4-1.3-1.2-4.1-2.2-8.2c-0.8,3.5-1.5,6.3-2.2,8.3l-7.3,22.5
		c-0.1,0.2-0.2,0.3-0.4,0.3h-6.7c-0.2,0-0.4-0.1-0.4-0.3l-10.5-38.4c0-0.1,0-0.3,0.1-0.4c0.1-0.1,0.2-0.2,0.3-0.2h6.1
		c0.2,0,0.4,0.1,0.4,0.3l5.7,22.1c1,3.8,1.6,6.7,2,8.6c0.2-1,0.5-2.2,0.9-3.6c0.6-2.1,1.1-3.8,1.5-5.1l7-22c0.1-0.2,0.2-0.3,0.4-0.3
		h6.3c0.2,0,0.4,0.1,0.4,0.3l6.9,22.1c1.1,3.2,1.8,6.1,2.4,8.5c0.1-0.6,0.3-1.4,0.5-2.3c0.4-1.7,2.8-11,7.3-28.3
		c0.1-0.2,0.2-0.3,0.4-0.3h6c0.1,0,0.3,0.1,0.3,0.2c0.1,0.1,0.1,0.3,0.1,0.4L172.7,163c-0.1,0.2-0.2,0.3-0.4,0.3H165.4z"/>
	<path class="st7" d="M165.4,162.9l-7.1-22.6c-0.4-1.4-1.3-4.5-2.5-9.4h-0.3c-0.9,4.1-1.8,7.2-2.5,9.5l-7.3,22.5h-6.7l-10.5-38.4
		h6.1c2.5,9.7,4.4,17,5.7,22.1c1.3,5.1,2,8.5,2.2,10.2h0.3c0.3-1.3,0.7-3.1,1.2-5.2s1.1-3.8,1.5-5l7-22.1h6.3l6.9,22.1
		c1.3,4,2.2,7.4,2.7,10.1h0.3c0.1-0.8,0.3-2.1,0.8-3.9c0.4-1.8,2.8-11.2,7.3-28.3h6l-10.6,38.4H165.4z"/>
	<path class="st7" d="M204.5,164c-5.8,0-10.4-1.8-13.8-5.3c-3.3-3.5-5-8.5-5-14.7c0-6.3,1.6-11.3,4.7-15c3.1-3.7,7.4-5.6,12.6-5.6
		c4.9,0,8.9,1.6,11.8,4.9c2.9,3.2,4.3,7.6,4.3,12.8v3.7c0,0.2-0.2,0.4-0.4,0.4h-26c0.2,4.2,1.3,7.4,3.3,9.5c2.1,2.2,5,3.4,8.8,3.4
		c4.1,0,8.1-0.9,12.1-2.6c0.1,0,0.1,0,0.2,0c0.1,0,0.2,0,0.2,0.1c0.1,0.1,0.2,0.2,0.2,0.4v5.2c0,0.2-0.1,0.3-0.3,0.4
		c-2.1,0.9-4.1,1.5-5.9,1.9C209.4,163.8,207.1,164,204.5,164z M211.9,139.5c-0.1-3.3-0.9-5.9-2.3-7.7c-1.5-1.8-3.8-2.8-6.7-2.8
		c-2.9,0-5.3,1-7.1,2.9c-1.7,1.8-2.7,4.4-3.1,7.6H211.9z"/>
	<path class="st7" d="M204.5,163.6c-5.7,0-10.2-1.7-13.5-5.2c-3.3-3.5-4.9-8.3-4.9-14.4c0-6.2,1.5-11.1,4.6-14.8
		c3.1-3.6,7.1-5.5,12.3-5.5c4.8,0,8.6,1.6,11.4,4.8c2.8,3.2,4.2,7.3,4.2,12.5v3.7h-26.5c0.1,4.5,1.3,7.9,3.4,10.3
		c2.2,2.3,5.2,3.5,9.1,3.5c4.1,0,8.2-0.9,12.3-2.6v5.2c-2.1,0.9-4,1.5-5.8,1.9C209.3,163.4,207.1,163.6,204.5,163.6z M202.9,128.6
		c-3.1,0-5.5,1-7.4,3c-1.8,2-2.9,4.8-3.2,8.3h20.1c0-3.7-0.8-6.5-2.5-8.4C208.3,129.6,205.9,128.6,202.9,128.6z"/>
	<path class="st7" d="M242.4,164c-2.6,0-4.9-0.5-7-1.4c-2-0.9-3.7-2.3-5.1-4.1l-1.1,4.5c0,0.2-0.2,0.3-0.4,0.3h-4.2
		c-0.2,0-0.4-0.2-0.4-0.4v-47.5c0-0.2,0.2-0.4,0.4-0.4h5.8c0.2,0,0.4,0.2,0.4,0.4v6.2c0,2.5-0.1,4.9-0.2,7c2.8-3.4,6.7-5.2,11.8-5.2
		c5.2,0,9.2,1.8,12.1,5.3c2.8,3.5,4.3,8.5,4.3,14.9c0,6.4-1.5,11.4-4.3,15C251.6,162.2,247.5,164,242.4,164z M241.6,129.1
		c-3.8,0-6.6,1.1-8.2,3.2c-1.7,2.2-2.5,6-2.5,11.3c0,5.3,0.9,9.1,2.6,11.3c1.7,2.2,4.5,3.3,8.3,3.3c3.5,0,5.9-1.2,7.6-3.7
		c1.7-2.5,2.6-6.2,2.6-11c0-4.9-0.9-8.6-2.5-10.9C247.7,130.3,245.1,129.1,241.6,129.1z"/>
	<path class="st7" d="M242.4,123.8c5.1,0,9,1.7,11.8,5.2c2.8,3.5,4.2,8.3,4.2,14.6c0,6.3-1.4,11.2-4.2,14.7
		c-2.8,3.5-6.7,5.2-11.7,5.2c-2.5,0-4.8-0.5-6.9-1.4c-2.1-0.9-3.8-2.3-5.2-4.3h-0.4l-1.2,4.9h-4.2v-47.5h5.8v6.2c0,3-0.1,5.6-0.3,8
		h0.3C233.1,125.7,237.1,123.8,242.4,123.8z M241.6,128.7c-4,0-6.8,1.1-8.6,3.4c-1.8,2.3-2.6,6.1-2.6,11.5c0,5.4,0.9,9.3,2.7,11.6
		c1.8,2.3,4.7,3.5,8.7,3.5c3.6,0,6.2-1.3,8-3.9s2.6-6.4,2.6-11.2c0-5-0.9-8.7-2.6-11.2C247.9,129.9,245.2,128.7,241.6,128.7z"/>
</g>
</svg>
