<?xml version="1.0" encoding="utf-8"?>
<!-- Generator: Adobe Illustrator 24.0.1, SVG Export Plug-In . SVG Version: 6.00 Build 0)  -->
<svg version="1.1" id="Capa_1" xmlns="http://www.w3.org/2000/svg" xmlns:xlink="http://www.w3.org/1999/xlink" x="0px" y="0px"
	 viewBox="0 0 400 225" style="enable-background:new 0 0 400 225;" xml:space="preserve">
<style type="text/css">
	.st0{fill:#010101;}
	.st1{fill:#020202;}
	.st2{fill:#030303;}
	.st3{fill:#090909;}
	.st4{fill:#0A0A0A;}
	.st5{fill:#FEFEFE;}
	.st6{fill:#FCFCFC;}
	.st7{fill:#F9F9F9;}
	.st8{fill:#F8F8F8;}
</style>
<path d="M64,95.7c4.5-3.8,9.4-4.4,14.6-3c1.9,0.5,3.5,1.5,4.7,3c0.7,0.8,1,1.1,2,0.2c4.4-3.9,9.6-4.6,15.1-3.4
	c5.5,1.2,9.1,6.1,9.1,12.2c0.1,5.4,0.1,10.7,0,16.1c0,1.5,0.3,2,1.9,1.9c2.9-0.1,3,0.2,3,4.1c0,2.7-0.3,3-3,3c-2,0-3.9,0-5.9,0
	c-3.1,0-4.3-1.2-4.3-4.3c0-6,0-12,0-18c0-1.2-0.1-2.3-0.4-3.4c-0.7-2.5-2.5-4.1-5.1-4.3c-2.1-0.2-4.2,0-6.1,1.1
	c-1.9,1.1-3.1,2.3-2.8,4.9c0.4,5,0.2,10.1,0.1,15.2c0,1.4,0.3,1.8,1.8,1.8c2.9-0.1,3.1,0.3,3,4.1c0,2.6-0.4,3-3,3
	c-1.7,0-3.5,0-5.2,0c-3.8,0-4.9-1.1-4.9-5c0-6,0-12,0-18c0-2.1-0.3-4.2-2.1-5.7c-2.9-2.5-7.6-1.8-10.5,1.5c-1,1.1-1.5,2.3-1.5,3.9
	c0.1,4.8,0.1,9.6,0,14.3c0,1.3,0.2,2.1,1.8,1.9c1.9-0.2,2.7,0.7,2.6,2.6c0,0.7,0,1.3,0,2c0.1,1.8-0.7,2.7-2.6,2.6
	c-1.9-0.1-3.8,0-5.7,0c-3.3,0-4.5-1.3-4.5-4.6c0-7.8-0.1-15.6,0-23.5c0-1.6-0.4-2.1-2-2c-2.5,0.1-2.8-0.4-2.8-3.4
	c0-3.1,0.4-3.7,2.8-3.7c2,0,3.9,0,5.9,0C62.1,92.5,63.6,93.3,64,95.7z"/>
<path d="M202.8,96c0-3.9,0-7.4,0-11c0-1.1-0.3-1.4-1.4-1.3c-1.2,0-2.8,0.4-3.2-1c-0.6-1.6-0.5-3.4,0-5.1c0.3-0.8,1.2-1,2-0.9
	c2.1,0,4.2,0,6.3,0c3.2,0,4.4,1.3,4.4,4.5c0,4.5,0,9,0,13.5c0,8.7,0,17.4,0,26.1c0,1.5,0.2,2.2,2,2.1c2.6-0.1,2.9,0.4,2.9,3.8
	c0,2.9-0.3,3.3-3,3.3c-1.7,0-3.5,0-5.2,0c-3,0-3.7-0.6-4.6-3.7c-3.5,3.3-7.6,4.6-12.3,4.2c-6.3-0.6-10.8-3.8-13.3-9.4
	c-3-6.5-2.9-13.2,0.1-19.7C182.2,91.1,195.7,89.3,202.8,96z"/>
<path d="M245.7,123.1c-3.9,4.8-8.8,6.3-14.5,5.4c-5.9-0.9-9.6-5.2-9.6-11.2c-0.1-5.6-0.1-11.3,0-16.9c0-1.6-0.2-2.3-2.1-2.2
	c-2.7,0.2-3.7-1.3-2.9-4.1c0.2-0.6,0.5-0.8,1.1-0.8c2.5,0,4.9-0.1,7.4,0.1c1.9,0.1,2.4,1.5,2.4,3.2c0,4.9,0,9.7,0,14.6
	c0,1.1,0,2.2,0,3.3c0,4.8,1.6,7.7,4.7,8.7c4,1.4,9.3-0.3,11.8-3.5c0.3-0.4,0.6-0.7,0.6-1.3c-0.6-6.1-0.2-12.2-0.2-18.2
	c0-1.5-0.4-1.9-1.9-1.9c-3,0.1-3.6-0.9-3-3.9c0.2-0.9,0.7-1,1.4-1c1.9,0,3.8,0,5.7,0c2.9,0,3.6,0.8,3.7,3.6c0,4.7,0,9.4,0,14.1
	c0,1.3,0,2.6,0,3.9c0.1,4.9,2,7.7,5.8,8.5c3.8,0.8,8.5-1.6,10.3-5.3c0.3-0.6,0.3-1.2,0.3-1.9c0-5.4,0-10.9,0-16.3
	c0-1.4-0.4-1.9-1.8-1.8c-2.3,0.1-3.6-2.4-2.4-4.4c0.3-0.5,0.8-0.5,1.3-0.5c2,0,4.1,0,6.1,0c1.9,0.1,2.9,1.1,2.9,3
	c0,7,0,14.1-0.1,21.1c-0.1,2.3-1.8,4.1-3.3,5.7c-4.6,5-10.5,6.4-17,5.2C249.4,127.8,247.8,126.3,245.7,123.1z"/>
<path d="M145.8,95.7c4.3-3.7,9-4.4,14.1-3.3c5.4,1.2,9.2,5.8,9.4,11.6c0.2,5.6,0.1,11.2,0.1,16.7c0,1.5,0.4,2,1.9,1.9
	c2.7-0.1,3.1,0.5,3,3.7c0,3-0.4,3.4-3.1,3.4c-1.8,0-3.6,0-5.4,0c-3.4,0-4.7-1.2-4.7-4.7c0-5.9,0-11.7,0-17.6c0-4.4-1.4-6.8-4.4-7.6
	c-3.5-1-8.2,1-10,4.2c-0.4,0.7-0.4,1.4-0.4,2.1c0,4.9,0.1,9.9,0,14.8c0,1.4,0.3,1.9,1.8,1.8c2.8-0.1,3,0.4,2.9,4.2
	c0,2.5-0.4,2.9-2.9,2.9c-2,0-3.9,0-5.9,0c-2.9,0-4.2-1.3-4.2-4.3c0-7.9,0-15.8,0-23.7c0-1.6-0.2-2.4-2-2.1c-2,0.3-3-0.7-2.8-2.8
	c0.1-0.7,0-1.4,0-2.2c0-1.5,0.7-2.2,2.1-2.2c2.2,0,4.5,0,6.7,0C144,92.6,145.2,93.7,145.8,95.7z"/>
<path d="M304.2,122c-4.3,5.5-9.3,7.7-15.6,7.2c-4.9-0.4-8.5-3-9.6-6.8c-1.5-4.9,0.4-9.5,5.1-11.8c4.4-2.2,9.2-2.5,14-2.6
	c0.9,0,1.9,0,2.8,0c3,0,3,0,2.5-3c-0.7-3.9-3.3-6.1-7.8-6.5c-4-0.3-7.8,0.3-11.1,2.7c-2.2,1.6-2.4-0.7-3.4-1.5
	c-1.2-1-0.6-1.9,0.4-2.6c4.9-3.5,10.5-4.3,16.3-3.6c7.9,1,11.7,5.5,11.7,13.5c0,5.1,0.1,10.1,0,15.2c0,1.5,0.4,1.8,1.8,1.8
	c3.1-0.1,3.6,0.7,3,3.8c-0.2,1-0.9,1-1.6,1.1c-1.7,0-3.5,0.1-5.2,0c-2.6-0.1-3.3-0.9-3.3-3.5C304.2,124.4,304.2,123.5,304.2,122z"/>
<path d="M334.3,122.5c2.2-6.1,4.2-11.7,6.1-17.2c0.6-1.8,1.2-3.6,1.9-5.3c0.5-1.1,0.4-1.5-1-1.5c-0.8,0-2.1,0.5-2.4-0.4
	c-0.4-1.1-0.2-2.4-0.1-3.6c0.1-0.9,1-0.7,1.6-0.7c2,0,4.1,0,6.1,0c3.2,0,3.6,0.7,2.6,3.6c-3.4,9.6-6.8,19.2-10.3,28.7
	c-1.6,4.3-2.9,8.7-5.2,12.8c-1.9,3.4-4.5,4.9-8.3,4.7c-1.5-0.1-3-0.1-4.6,0c-2,0.1-1.5-1.4-1.5-2.4c0-1-0.7-2.5,1.4-2.4
	c0.7,0,1.3,0,2,0c4.4,0,6.1-1.1,7.7-5.2c0.7-1.8,1.3-3.6,2.1-5.6c-2,0.1-2.5-1.3-3-2.7c-3.2-8.2-6.5-16.4-9.6-24.6
	c-0.7-1.8-1.5-2.6-3.4-2.2c-1.8,0.3-2.4-0.4-2.3-2.2c0.1-1.6,0-2.7,2.2-2.6c7.5,0.1,6.5-0.3,9,6.1
	C328.3,107.2,331.2,114.6,334.3,122.5z"/>
<path d="M119.6,113.5c0-4,0-8,0-11.9c0-1.3-0.2-1.9-1.7-1.9c-3,0.1-3.3-0.4-3.2-3.9c0-2.8,0.4-3.2,3.3-3.3c1.8,0,3.6,0,5.4,0
	c3.2,0.1,4.5,1.3,4.5,4.5c0,7.8,0,15.6,0,23.5c0,1.6,0.2,2.4,2.1,2.2c1.8-0.3,2.7,0.7,2.6,2.5c0,0.7,0,1.4,0,2.2
	c0.1,1.6-0.6,2.4-2.3,2.4c-2.2-0.1-4.5,0-6.7,0c-2.6-0.1-3.8-1.3-3.9-3.9C119.5,121.7,119.6,117.6,119.6,113.5z"/>
<path class="st0" d="M301.7,151.1c1.2-1.1,2.1-1.8,2.9-2.7c0.7-0.8,2.5-1.2,1.1-3c-0.5-0.7,0.1-1.4,1.2-1.4c1.7,0.1,3.3,0,5.3,0
	c-1.4,1.9-3.3,3.1-4.8,4.5c-0.8,0.7-0.9,1.2-0.2,2.1c1.3,1.6,2.5,3.4,3.8,5c0.5,0.7,0.9,1.5,2,1.4c0.9-0.1,0.7,0.7,0.7,1.3
	c0,0.6-0.3,0.9-0.9,0.9c-1.2,0.1-2.2-0.2-3-1.3c-1.4-2-2.9-3.8-4.2-5.8c-0.8-1.1-1.2-0.9-2.1-0.1c-1.1,1-2.1,2-1.8,3.7
	c0.1,0.7-0.1,1.5,1.1,1.4c1-0.1,0.9,0.7,0.9,1.3c0,0.8-0.6,0.8-1.2,0.9c-3.1,0.2-3.4,0-3.4-3.1c0-5.1,0-10.1,0-15.2
	c0-0.9,0.1-1.8-1.3-1.6c-0.8,0.1-0.8-0.5-0.9-1.2c0-0.8,0.3-1,1.1-1c3.8,0,3.7-0.1,3.7,3.2C301.6,143.8,301.7,147.3,301.7,151.1z"/>
<path class="st0" d="M151.7,156.7c-1.9,2.2-4.1,2.9-6.6,2.7c-2.1-0.2-3.8-1.5-4.1-3.3c-0.4-2.3,0.6-4.1,2.8-5c1.9-0.8,3.9-0.9,6-0.9
	c0.6,0,1.4,0.4,1.7-0.4c0.2-0.7,0-1.4-0.4-2.1c-0.9-1.5-3.4-2-5.8-1.2c-0.5,0.2-1.1,0.4-1.6,0.8c-0.9,0.7-1.3,0.1-1.7-0.5
	c-0.5-0.7-0.1-1.1,0.4-1.4c2.8-1.7,5.8-1.9,8.8-0.8c2.6,1,3,3.3,3.1,5.7c0.1,1.6,0,3.2,0,4.8c0,1-0.4,2.3,1.5,2.1
	c0.5,0,0.6,0.6,0.6,1c0,0.4,0,0.8-0.5,1.1C154.2,160,152.1,158.9,151.7,156.7z"/>
<path class="st1" d="M175.9,146.2c1.2-1.2,2.3-2,3.7-2.2c3.8-0.5,6.2,1.3,6.4,5.2c0.1,2.2,0,4.3,0,6.5c0,0.8,0,1.5,1.1,1.4
	c1-0.1,0.9,0.7,0.9,1.3c0,0.8-0.5,0.8-1.2,0.9c-3.2,0.3-3.5,0-3.5-3.2c0-2.1,0.1-4.2,0-6.3c-0.1-2.5-1.3-3.6-3.4-3.5
	c-2.2,0.1-3.8,1.6-3.8,3.8c0,1.7,0,3.3,0,5c0,0.9-0.4,2,1.3,2.1c1,0.1,0.8,1.5,0.3,1.8c-1,0.6-2.3,0.3-3.4,0.1
	c-1.1-0.2-0.8-1.2-0.8-2c0-3.1,0-6.2,0-9.3c0-0.9,0.1-1.8-1.3-1.6c-0.9,0.1-0.8-0.6-0.8-1.1c0-0.7,0.2-1.1,1-1
	C173.8,144.3,175.9,143.1,175.9,146.2z"/>
<path class="st0" d="M283,145.9c1.2-1.2,2.5-1.9,4.1-2c3.4-0.2,5.6,1.6,5.8,5c0.1,2.2,0.1,4.5,0,6.7c0,0.9,0,1.6,1.2,1.4
	c0.8-0.1,0.9,0.5,0.9,1.1c0,0.7-0.3,1-1,1c-3.2,0.4-3.7,0-3.7-3.1c0-2.1,0.1-4.2,0-6.3c-0.1-2.5-1.3-3.6-3.4-3.5
	c-2.2,0.1-3.8,1.6-3.9,3.8c0,1.7,0,3.5,0,5.2c0,0.9-0.2,1.8,1.3,1.9c1.2,0,0.9,1.5,0.5,1.8c-1,0.7-2.4,0.4-3.6,0.2
	c-0.9-0.1-0.9-1-0.9-1.7c0-3.2,0-6.4,0-9.6c0-0.9,0.2-1.8-1.2-1.6c-0.6,0.1-0.9-0.3-0.9-1c0-0.4,0-0.9,0.4-1.1
	C279.9,143.4,282.4,144.3,283,145.9z"/>
<path class="st0" d="M133,152c-1.4,0-2.9,0.1-4.3,0c-1.4-0.1-1.4,0.6-1.1,1.6c0.9,3.6,5.4,4.8,8.6,2.3c0.6-0.5,1.1-1.8,2.2-0.5
	c1,1.2-0.3,1.7-0.9,2.2c-2.5,2.3-7.1,2.5-9.9,0.5c-2.9-2.1-3.9-6.7-2.2-10.2c1.5-3,5.1-4.6,8.7-3.7c2.8,0.7,5.1,4.2,4.8,7
	c-0.1,0.8-0.6,0.9-1.2,0.9C136,152,134.5,152,133,152z"/>
<path class="st0" d="M242.7,152c-1.2,0-2.5,0-3.7,0c-2,0-2.2,0.4-1.4,2.2c1.5,3.3,5.5,3.9,8.6,1.4c0.5-0.4,0.9-1.4,1.8-0.4
	c1,1.1,0,1.6-0.5,2.1c-2.6,2.5-7.2,2.8-10.1,0.8c-2.8-2-3.9-6.2-2.5-9.8c1.3-3.2,4.6-4.9,8.3-4.3c3.2,0.5,5.5,3.7,5.2,7
	c-0.1,0.8-0.4,1-1.1,0.9C245.9,151.9,244.3,152,242.7,152z"/>
<path class="st0" d="M127.8,83.3c0,2.8-2.3,5.1-5.1,5.1c-3,0-5.3-2.2-5.3-5.1c0-2.9,2.4-5.3,5.2-5.3C125.5,78,127.9,80.4,127.8,83.3
	z"/>
<path class="st0" d="M225,156.3c1.3-3.4,2.4-6.3,3.5-9.2c0.2-0.5,0.4-0.9-0.5-0.9c-1.4,0-1.1-1.4-0.8-1.7c1.1-1,2.6-0.5,3.9-0.4
	c1.2,0.1,0.8,1.1,0.5,1.9c-1.5,4-3.1,7.9-4.6,11.9c-0.4,1-0.9,1.3-2,1.3c-1,0-1.8-0.1-2.2-1.3c-1.3-3.5-2.7-6.9-4-10.3
	c-0.3-0.9-0.6-1.6-1.7-1.4c-0.8,0.1-0.9-0.4-1-1.1c0-0.9,0.3-1.1,1.1-1.1c1.8-0.1,3,0.3,3.7,2.2C222.2,149.4,223.6,152.6,225,156.3z
	"/>
<path class="st0" d="M120.5,147.3c0,2.8,0,5.6,0,8.5c0,0.8,0,1.4,1.1,1.3c0.9-0.1,1,0.5,1,1.3c0,0.8-0.6,0.9-1.2,0.9
	c-3.8,0.1-3.6,0-3.5-3.1c0-5.1,0-10.1,0-15.2c0-0.9,0.1-1.7-1.3-1.6c-1.3,0-1-1.4-0.7-1.7c1-0.9,2.3-0.4,3.5-0.4
	c0.9,0,1.1,0.8,1.1,1.6C120.5,141.6,120.5,144.4,120.5,147.3z"/>
<path class="st0" d="M201.9,149.1c0-2.5,0-4.9,0-7.4c0-1.1,0.6-2.5-1.6-2.5c-0.9,0-0.8-1.4-0.3-1.7c1-0.7,2.4-0.4,3.6-0.2
	c1,0.1,0.9,1.1,0.9,1.9c0,5.4,0,10.8,0,16.3c0,0.9-0.1,1.6,1.3,1.6c1.4,0,1,1.5,0.5,1.8c-1,0.6-2.4,0.4-3.6,0.1
	c-1-0.2-0.8-1.2-0.8-2C202,154.4,201.9,151.7,201.9,149.1z"/>
<path class="st0" d="M262.5,149.1c0-2.5,0-4.9,0-7.4c0-1.1,0.6-2.5-1.5-2.5c-0.9,0-0.8-1.4-0.3-1.7c1-0.7,2.4-0.4,3.6-0.3
	c1.1,0.1,0.9,1.1,0.9,1.9c0,5.3,0,10.6,0,15.8c0,1-0.4,2.3,1.5,2.1c0.5-0.1,0.7,0.4,0.6,0.9c0,0.4,0.1,1-0.4,1.1
	c-1.2,0.2-2.5,0.4-3.6-0.1c-1-0.4-0.7-1.5-0.7-2.3C262.5,154.1,262.5,151.6,262.5,149.1z"/>
<path class="st2" d="M163.3,147.4c1.4-2.3,3.2-3.2,5.4-3.4c0.8-0.1,1.4-0.1,1.4,1.1c0,0.9-0.1,1.4-1.3,1.5c-3.9,0.4-5.6,2.3-5.6,6.3
	c0,0.9,0,1.9,0,2.8c0,0.8,0.1,1.4,1.1,1.3c1-0.1,0.9,0.7,0.9,1.3c0,0.8-0.6,0.8-1.2,0.9c-3.2,0.3-3.5,0-3.5-3.2c0-2.8,0-5.6,0-8.4
	c0-0.7,0.1-1.5-1-1.4c-1,0.1-1-0.5-1-1.2c0-1,0.6-0.9,1.3-1C162.8,143.9,162.9,144,163.3,147.4z"/>
<path class="st3" d="M213.5,150.7c0,1.5,0,3,0,4.5c0,0.9-0.2,1.8,1.3,1.9c1.2,0,0.9,1.5,0.5,1.8c-0.9,0.8-2.2,0.3-3.3,0.3
	c-1,0-1.2-0.9-1.2-1.8c0-3.2,0-6.4,0-9.5c0-0.9,0.2-1.8-1.2-1.6c-0.9,0.1-0.8-0.6-0.8-1.2c-0.1-0.7,0.3-0.9,1-1
	c3.2-0.4,3.7,0,3.7,3.2C213.5,148.3,213.5,149.5,213.5,150.7z"/>
<path class="st3" d="M274,150.8c0,1.4,0,2.7,0,4.1c0,1-0.3,2.1,1.5,2.2c0.9,0,0.8,1.5,0.3,1.8c-1,0.6-2.2,0.3-3.4,0.2
	c-1-0.1-1-1.1-1-1.9c0-3.2,0-6.4,0-9.5c0-0.8,0.1-1.6-1.2-1.5c-0.9,0.1-0.9-0.5-0.9-1.1c0-0.7,0.2-1,0.9-1.1c3.2-0.4,3.8,0,3.7,3.1
	C274,148.3,274,149.6,274,150.8z"/>
<path class="st4" d="M213.5,139.6c-0.1,1.2-0.7,1.8-1.8,1.8c-1.1-0.1-1.7-0.8-1.6-1.9c0.1-1,0.7-1.6,1.7-1.6
	C212.9,137.9,213.4,138.6,213.5,139.6z"/>
<path class="st4" d="M272.4,141.4c-1.1-0.1-1.8-0.7-1.8-1.8c0-1.1,0.6-1.7,1.8-1.7c1.1,0,1.6,0.6,1.7,1.6
	C274.1,140.6,273.5,141.2,272.4,141.4z"/>
<path class="st5" d="M202.9,110.8c0,2.8-0.4,5.2-1.7,7.4c-1.8,3.2-4.6,4.8-8.2,4.7c-3.8-0.1-6.5-2.2-8.1-5.6
	c-1.7-3.6-1.7-7.4-0.5-11.2c1.5-4.5,5.5-7.1,10-6.5c4.5,0.5,7.8,4.2,8.3,9.2C202.9,109.5,202.9,110.3,202.9,110.8z"/>
<path class="st5" d="M298.5,112.4c0.2,0,0.4,0,0.7,0c1.4,0.3,3.7-0.8,4.1,0.6c0.5,2.2,1,4.8-1.3,6.8c-3.1,2.9-6.7,4.5-11,4.2
	c-1.6-0.1-3.1-0.6-4.4-1.7c-2.7-2.3-2.5-6.1,0.5-8.1c2.6-1.7,5.5-1.7,8.4-1.9C296.5,112.3,297.5,112.4,298.5,112.4z"/>
<path class="st6" d="M146.9,157.1c-1.6,0-3-0.5-3.2-2.2c-0.2-1.7,1.3-2.3,2.7-2.5c1.1-0.2,2.3-0.2,3.5-0.1c0.6,0,1.4-0.4,1.7,0.5
	c0.2,0.7,0.3,1.6-0.3,2.3C150.1,156.3,148.7,157.1,146.9,157.1z"/>
<path class="st7" d="M131.6,150.1c-0.8,0-1.6,0-2.4,0c-0.5,0-1.3,0.3-1.6-0.2c-0.4-0.7,0.1-1.4,0.5-2c1.1-1.5,2.6-2,4.4-1.8
	c1.5,0.1,2.6,0.9,3.1,2.3c0.4,0.9,0.6,1.9-1,1.7C133.6,150,132.6,150.1,131.6,150.1z"/>
<path class="st8" d="M237.4,150.1c0.4-2.6,1.7-3.9,4-4c2-0.1,3.5,0.7,4.2,2.6c0.4,1,0.3,1.5-0.9,1.4
	C242.3,150,239.9,150.1,237.4,150.1z"/>
</svg>
