<?xml version="1.0" encoding="utf-8"?>
<!-- Generator: Adobe Illustrator 24.0.1, SVG Export Plug-In . SVG Version: 6.00 Build 0)  -->
<svg version="1.1" id="Capa_1" xmlns="http://www.w3.org/2000/svg" xmlns:xlink="http://www.w3.org/1999/xlink" x="0px" y="0px"
	 viewBox="0 0 400 225" style="enable-background:new 0 0 400 225;" xml:space="preserve">
<style type="text/css">
	.st0{fill-rule:evenodd;clip-rule:evenodd;fill:#002F87;}
	.st1{fill:#9E9D9C;}
</style>
<g>
	<path class="st0" d="M118.6,93.6c0.5-0.4,0.9-0.5,1.6-0.5c0.7,0,1.2,0.6,1.6,1l0,0l21,21c-8.3,18.4-26.8,29.9-48.2,29.9
		c-29.2,0-52.5-23.6-52.5-52.8C42.1,63.1,65.8,39,95,39c21.3,0,39.5,12.1,47.9,30.3l-21.3,21.2l0.1-0.1c-0.5,0.4-1.1,0.8-1.8,0.7
		c-0.6-0.1-0.9-0.1-1.4-0.5h-0.1L95.6,67.9L71.3,92.2l24.2,24.4L118.6,93.6z"/>
	<path class="st0" d="M68.8,158.2c-2.1-1.3-4.7-1.9-7.2-1.9c-8.4,0-15.1,6.6-15.1,15c0,8.2,6.7,14.7,14.9,14.7c2.5,0,5.3-0.7,7.5-2
		v-4.2c-2.1,1.9-4.8,2.9-7.6,2.9c-6.4,0-11.2-5.3-11.2-11.6c0-6.3,4.9-11.6,11.3-11.6c2.7,0,5.5,1,7.5,2.8V158.2z"/>
	<path class="st0" d="M86,182.7c-6.2,0-11.4-5-11.4-11.5c0-6.3,4.7-11.5,11.4-11.5c6.7,0,11.4,5.3,11.4,11.5
		C97.3,177.7,92.1,182.7,86,182.7 M86,156.3c-8.2,0-14.9,6.7-14.9,14.9c0,8.5,6.7,14.8,14.9,14.8c8.2,0,14.9-6.4,14.9-14.8
		C100.9,163,94.1,156.3,86,156.3"/>
	<path class="st0" d="M107.9,160.1h0.9c3.5,0,7.8,0.5,7.8,5c0,4.5-3.9,5.2-7.6,5.2h-1.1V160.1z M107.9,173.5h2c5.4,0,10-2.3,10-8.3
		c0-5.2-2.7-8.2-11.5-8.2h-4.1v28.5h3.5V173.5z"/>
	<polygon class="st0" points="123,185.4 138.3,185.4 138.3,182.1 126.6,182.1 126.6,173.2 138,173.2 138,170 126.6,170 126.6,160.2 
		138.3,160.2 138.3,156.9 123,156.9 	"/>
	<path class="st1" d="M174.9,103.5c0.1,1.6,0.5,2.8,1.2,3.6c0.7,0.8,1.9,1.2,3.4,1.2c1,0,1.9-0.1,2.7-0.3c0.9-0.2,1.6-0.5,2.3-0.7
		c0.2,0.4,0.4,0.8,0.5,1.3c0.1,0.5,0.1,1,0.1,1.5c-0.4,0.2-0.8,0.3-1.3,0.5c-0.5,0.1-1.1,0.3-1.6,0.4c-0.6,0.1-1.1,0.2-1.7,0.3
		c-0.6,0.1-1.1,0.1-1.6,0.1c-1.4,0-2.6-0.2-3.6-0.6c-1-0.4-1.8-0.9-2.4-1.5c-0.6-0.7-1.1-1.4-1.3-2.3c-0.3-0.9-0.4-1.9-0.4-2.9
		c0-1.5,0.2-2.9,0.7-4.3c0.5-1.4,1.2-2.7,2.1-3.8c0.9-1.1,2-2,3.3-2.7c1.3-0.7,2.7-1,4.3-1c1.6,0,2.8,0.4,3.8,1.2
		c0.9,0.8,1.4,1.8,1.4,3.1c0,1.1-0.3,2-0.8,2.7c-0.5,0.8-1.2,1.5-2.1,2c-0.9,0.6-2,1-3.2,1.4c-1.2,0.4-2.6,0.6-4,0.9L174.9,103.5z
		 M177.2,100.5c1.2-0.2,2.2-0.5,3-0.7c0.8-0.3,1.4-0.6,1.9-0.9c0.5-0.3,0.8-0.7,1-1c0.2-0.4,0.3-0.8,0.3-1.2c0-0.6-0.2-1-0.6-1.3
		c-0.4-0.3-0.9-0.5-1.7-0.5c-0.8,0-1.5,0.2-2.1,0.5c-0.6,0.4-1.2,0.8-1.7,1.4c-0.5,0.6-0.9,1.2-1.3,1.9c-0.4,0.7-0.6,1.5-0.8,2.2
		L177.2,100.5z"/>
	<path class="st1" d="M193.4,102.2c-0.4-0.1-0.7-0.3-1.2-0.5c-0.4-0.2-0.8-0.5-1.1-0.8c-0.3-0.3-0.6-0.8-0.8-1.3
		c-0.2-0.5-0.3-1.1-0.3-1.8c0-0.9,0.2-1.7,0.5-2.4c0.4-0.7,0.9-1.3,1.5-1.8c0.6-0.5,1.4-0.9,2.3-1.1c0.9-0.3,1.9-0.4,3-0.4
		c1,0,1.9,0.1,2.8,0.3c0.9,0.2,1.6,0.5,2.1,0.7c-0.2,0.9-0.5,1.8-1,2.7c-0.4-0.2-1-0.4-1.7-0.6c-0.7-0.2-1.5-0.3-2.3-0.3
		c-1,0-1.9,0.2-2.6,0.5c-0.7,0.4-1,1-1,1.9c0,0.6,0.2,1,0.5,1.4c0.3,0.4,0.9,0.7,1.7,1.1l0.8,0.4c0.5,0.2,0.9,0.4,1.4,0.7
		c0.5,0.2,0.9,0.5,1.3,0.9c0.4,0.3,0.7,0.8,1,1.3c0.3,0.5,0.4,1.1,0.4,1.8c0,1.2-0.2,2.1-0.6,3c-0.4,0.8-1,1.5-1.8,2.1
		c-0.8,0.5-1.6,0.9-2.6,1.2c-1,0.3-2.1,0.4-3.2,0.4c-1,0-1.9-0.1-2.8-0.2c-0.9-0.2-1.7-0.4-2.3-0.6c0.1-0.5,0.1-1,0.3-1.5
		c0.1-0.5,0.3-0.9,0.6-1.4c0.6,0.3,1.4,0.5,2.2,0.6c0.8,0.2,1.6,0.2,2.3,0.2c0.6,0,1.2-0.1,1.7-0.2c0.5-0.1,1-0.3,1.4-0.5
		c0.4-0.2,0.7-0.5,0.9-0.9c0.2-0.4,0.3-0.9,0.3-1.4c0-0.7-0.2-1.3-0.6-1.7c-0.4-0.4-1-0.7-1.8-1L193.4,102.2z"/>
	<path class="st1" d="M207.1,95.3h-2.9c0-0.5,0-0.9,0.1-1.4c0.1-0.4,0.2-0.9,0.4-1.5h2.9c0.1-0.6,0.2-1.3,0.3-1.9
		c0.1-0.6,0.1-1.3,0.1-2v-0.6c0.5-0.2,1.1-0.4,1.7-0.5c0.7-0.1,1.2-0.2,1.7-0.2c0,0.2,0,0.4,0.1,0.6c0,0.2,0,0.4,0,0.7
		c0,0.7-0.1,1.7-0.3,2.8l-0.2,1.1h4.6c0,0.5,0,1-0.1,1.5c-0.1,0.4-0.2,0.9-0.4,1.4h-4.6l-1.4,7.8c-0.1,0.6-0.2,1.1-0.3,1.7
		c-0.1,0.6-0.1,1.1-0.1,1.6c0,0.7,0.2,1.2,0.6,1.5c0.4,0.3,0.9,0.4,1.5,0.4c0.4,0,0.8,0,1.1-0.1c0.3-0.1,0.7-0.1,1-0.2
		c0.1,0.2,0.1,0.5,0.2,0.8c0,0.3,0.1,0.6,0.1,0.9v0.5c0,0.2,0,0.4,0,0.6c-0.3,0.1-0.7,0.2-1.2,0.3c-0.5,0.1-1,0.1-1.6,0.1
		c-0.8,0-1.5-0.1-2.1-0.2c-0.6-0.1-1.2-0.3-1.6-0.6c-0.4-0.3-0.8-0.7-1.1-1.2c-0.2-0.5-0.4-1.2-0.4-2c0-0.5,0-0.9,0.1-1.5
		c0.1-0.5,0.2-1,0.3-1.6L207.1,95.3z"/>
	<path class="st1" d="M231.5,103c-0.3,1.4-0.5,2.7-0.6,3.7c-0.2,1-0.2,1.9-0.2,2.7c0,0.3,0,0.6,0,0.7c0,0.2,0,0.4,0.1,0.7
		c-0.3,0-0.6,0.1-0.9,0.1c-0.3,0-0.6,0-0.9,0c-0.2,0-0.5,0-0.8,0c-0.3,0-0.6-0.1-0.8-0.1c0-0.3-0.1-0.5-0.1-0.8c0-0.3,0-0.6,0-1
		c0-0.3,0-0.6,0.1-1.1c0.1-0.5,0.1-0.9,0.2-1.2c-0.3,0.5-0.6,1.1-1,1.6c-0.4,0.5-0.9,1-1.5,1.5c-0.6,0.4-1.2,0.8-1.9,1.1
		c-0.7,0.3-1.5,0.4-2.3,0.4c-1.6,0-2.8-0.5-3.6-1.6c-0.8-1-1.2-2.5-1.2-4.3c0-1.7,0.3-3.4,0.8-5c0.5-1.6,1.3-3.1,2.3-4.3
		c1-1.3,2.3-2.3,3.8-3c1.5-0.8,3.3-1.2,5.4-1.2c0.9,0,1.7,0.1,2.6,0.2c0.9,0.1,1.6,0.3,2.3,0.6L231.5,103z M229.5,95.2
		c-0.3-0.1-0.6-0.1-0.9-0.1c-0.3,0-0.7,0-1,0c-1.2,0-2.3,0.3-3.2,0.8c-0.9,0.6-1.8,1.3-2.4,2.2c-0.7,0.9-1.2,2-1.6,3.1
		c-0.4,1.2-0.5,2.4-0.5,3.6c0,1.1,0.2,2,0.6,2.7c0.4,0.6,1,1,1.8,1c0.7,0,1.5-0.2,2.2-0.7c0.7-0.5,1.3-1.1,1.9-2
		c0.6-0.9,1.1-1.8,1.5-3c0.4-1.1,0.7-2.4,1-3.6L229.5,95.2z"/>
	<path class="st1" d="M235.6,110.9c0.3-1.5,0.6-3.1,0.9-4.8c0.3-1.7,0.6-3.3,0.9-4.9c0.3-1.6,0.5-3,0.7-4.3c0.2-1.3,0.3-2.3,0.3-3.1
		c0-0.3,0-0.6,0-0.7c0-0.2,0-0.4-0.1-0.7c0.3,0,0.6-0.1,0.9-0.1c0.3,0,0.6,0,0.9,0c0.2,0,0.5,0,0.8,0c0.3,0,0.6,0,0.8,0.1
		c0.1,0.2,0.1,0.4,0.1,0.6c0,0.2,0,0.6,0,1c0,0.6,0,1.1-0.1,1.6c0.3-0.4,0.7-0.8,1-1.2c0.4-0.4,0.8-0.7,1.2-1c0.5-0.3,1-0.6,1.5-0.7
		c0.6-0.2,1.2-0.3,1.8-0.3c0.2,0,0.4,0,0.6,0c0.2,0,0.4,0.1,0.6,0.1c0,0.5-0.1,1-0.2,1.6c-0.1,0.6-0.3,1.1-0.6,1.6
		c-0.1,0-0.2,0-0.4-0.1c-0.2,0-0.4,0-0.6,0c-1.6,0-2.9,0.6-3.9,1.7c-1,1.1-1.7,2.9-2.1,5.3l-1.5,8.3c-0.5,0.1-1,0.1-1.5,0.1h-0.9
		L235.6,110.9z"/>
	<path class="st1" d="M174.7,129.4h-2.2c0-0.5,0-0.9,0.1-1.4c0.1-0.4,0.2-0.9,0.4-1.4h5.8l-3.2,18.4c-0.3,0.1-0.6,0.1-0.9,0.1
		c-0.3,0-0.6,0-0.9,0c-0.3,0-0.5,0-0.8,0c-0.3,0-0.6,0-0.8-0.1L174.7,129.4z M174.7,122.8c0-0.7,0.1-1.3,0.2-2
		c0.1-0.6,0.3-1.3,0.5-1.9c0.3-0.1,0.7-0.1,1.1-0.1c0.4,0,0.7,0,1,0c0.3,0,0.6,0,1,0c0.4,0,0.7,0.1,1,0.1c0,0.7-0.1,1.4-0.2,2
		c-0.1,0.6-0.3,1.3-0.5,1.9c-0.3,0.1-0.7,0.1-1.1,0.1c-0.4,0-0.7,0-1,0c-0.3,0-0.6,0-1,0C175.3,122.9,174.9,122.8,174.7,122.8"/>
	<path class="st1" d="M183.2,134.3c0.3-1.4,0.5-2.7,0.6-3.7c0.2-1,0.2-1.9,0.2-2.7c0-0.3,0-0.6,0-0.7c0-0.2,0-0.4-0.1-0.7
		c0.3,0,0.5-0.1,0.9-0.1c0.3,0,0.6,0,0.9,0c0.2,0,0.5,0,0.8,0c0.3,0,0.6,0.1,0.8,0.1c0,0.2,0.1,0.4,0.1,0.7c0,0.3,0,0.6,0,1
		c0,0.5,0,0.9-0.1,1.3c-0.1,0.4-0.1,0.8-0.2,1.2c0.2-0.5,0.6-1,1-1.6c0.4-0.5,0.9-1,1.5-1.5c0.6-0.4,1.2-0.8,1.9-1.1
		c0.7-0.3,1.5-0.4,2.3-0.4c1.4,0,2.6,0.4,3.4,1.1c0.8,0.8,1.2,2,1.2,3.6c0,0.4,0,0.8-0.1,1.2c0,0.4-0.1,0.9-0.2,1.3l-2.1,11.7
		c-0.3,0-0.6,0.1-0.9,0.1c-0.3,0-0.6,0-0.9,0c-0.3,0-0.6,0-0.9,0c-0.3,0-0.6-0.1-0.8-0.1l1.9-11.1c0.1-0.4,0.1-0.8,0.2-1.1
		s0.1-0.7,0.1-0.9c0-1-0.2-1.6-0.7-2c-0.4-0.4-1-0.6-1.8-0.6c-0.6,0-1.3,0.2-1.9,0.6c-0.6,0.4-1.2,1-1.8,1.7c-0.6,0.8-1,1.7-1.5,2.8
		c-0.4,1.1-0.8,2.4-1.1,3.9l-1.2,6.7c-0.3,0-0.6,0.1-0.9,0.1c-0.3,0-0.6,0-0.9,0c-0.3,0-0.6,0-0.9,0c-0.3,0-0.6-0.1-0.8-0.1
		L183.2,134.3z"/>
	<path class="st1" d="M204.8,129.4h-3c0-0.5,0-0.9,0.1-1.4c0.1-0.4,0.2-0.9,0.4-1.5h3l0.2-1c0.4-2.4,1.2-4.2,2.4-5.4
		c1.2-1.2,2.9-1.8,5-1.8c0.6,0,1.2,0,1.6,0.1c0.5,0.1,0.9,0.2,1.3,0.3c-0.1,0.6-0.3,1.1-0.4,1.6c-0.2,0.4-0.4,0.9-0.6,1.3
		c-0.3-0.1-0.5-0.2-0.8-0.3c-0.3-0.1-0.6-0.1-1-0.1c-0.5,0-1,0.1-1.4,0.2c-0.4,0.1-0.8,0.4-1.1,0.7c-0.3,0.3-0.6,0.8-0.8,1.3
		c-0.2,0.6-0.4,1.3-0.6,2.1c0,0.2-0.1,0.3-0.1,0.5c0,0.2-0.1,0.3-0.1,0.5h4.4c0,0.5,0,1-0.1,1.4c-0.1,0.4-0.2,0.9-0.4,1.4h-4.4
		l-2.8,15.7c-0.3,1.6-0.6,3-1.1,4.1c-0.4,1.1-0.9,2-1.6,2.7c-0.6,0.7-1.3,1.2-2.2,1.5c-0.8,0.3-1.8,0.4-2.9,0.4c-0.5,0-1,0-1.5-0.1
		c-0.5-0.1-0.9-0.2-1.3-0.3c0.1-0.6,0.2-1,0.4-1.5c0.1-0.4,0.3-0.9,0.6-1.3c0.2,0.1,0.5,0.2,0.8,0.2c0.3,0.1,0.6,0.1,0.9,0.1
		c0.6,0,1-0.1,1.5-0.2c0.4-0.1,0.8-0.4,1.2-0.9c0.3-0.4,0.6-1,0.9-1.8c0.3-0.8,0.5-1.8,0.7-3L204.8,129.4z"/>
	<path class="st1" d="M220,145.4c-2.2,0-3.9-0.6-5-1.8c-1.1-1.2-1.7-3-1.7-5.2c0-1.3,0.2-2.7,0.6-4.1c0.4-1.5,1-2.8,1.9-4
		c0.8-1.2,1.9-2.2,3.2-2.9c1.3-0.8,2.8-1.2,4.5-1.2c2.2,0,3.9,0.6,5.1,1.9c1.1,1.2,1.7,3,1.7,5.3c0,1.3-0.2,2.7-0.6,4.2
		c-0.4,1.4-1,2.7-1.9,3.9c-0.8,1.2-1.9,2.2-3.2,2.9C223.3,145.1,221.8,145.4,220,145.4 M220.4,142.6c1.1,0,2.1-0.3,2.9-0.9
		c0.8-0.6,1.5-1.4,2-2.3c0.5-0.9,0.9-1.9,1.1-3c0.2-1.1,0.4-2.1,0.4-3.1c0-1.4-0.3-2.4-0.9-3.1c-0.6-0.7-1.5-1.1-2.6-1.1
		c-1.1,0-2.1,0.3-2.9,0.9c-0.8,0.6-1.4,1.4-1.9,2.3c-0.5,0.9-0.9,1.9-1.1,3c-0.2,1.1-0.3,2.1-0.3,3c0,1.4,0.3,2.4,0.9,3.1
		C218.4,142.2,219.3,142.6,220.4,142.6"/>
	<path class="st1" d="M232.7,145c0.3-1.5,0.6-3.1,0.9-4.8c0.3-1.7,0.6-3.3,0.9-4.9c0.3-1.6,0.5-3,0.7-4.3c0.2-1.3,0.3-2.3,0.3-3.1
		c0-0.3,0-0.6,0-0.7c0-0.2,0-0.4-0.1-0.7c0.3,0,0.6-0.1,0.9-0.1c0.3,0,0.6,0,0.9,0c0.2,0,0.5,0,0.8,0c0.3,0,0.6,0,0.8,0.1
		c0.1,0.2,0.1,0.4,0.1,0.6c0,0.2,0,0.5,0,0.9c0,0.6,0,1.1-0.1,1.6c0.3-0.4,0.7-0.8,1-1.2c0.4-0.4,0.8-0.7,1.2-1
		c0.5-0.3,1-0.6,1.5-0.7c0.6-0.2,1.2-0.3,1.8-0.3c0.2,0,0.4,0,0.6,0c0.2,0,0.4,0.1,0.6,0.1c0,0.5-0.1,1-0.2,1.6
		c-0.1,0.6-0.3,1.1-0.6,1.6c-0.1,0-0.2-0.1-0.4-0.1c-0.2,0-0.4,0-0.6,0c-1.6,0-2.9,0.6-3.9,1.7c-1,1.2-1.7,2.9-2.1,5.3l-1.5,8.3
		c-0.5,0.1-1,0.1-1.5,0.1h-0.9L232.7,145z"/>
	<path class="st1" d="M247.3,134.3c0.3-1.4,0.5-2.7,0.6-3.7c0.2-1,0.2-1.9,0.2-2.7v-0.7c0-0.2,0-0.4-0.1-0.7c0.3,0,0.6-0.1,0.9-0.1
		c0.3,0,0.6,0,0.9,0c0.2,0,0.5,0,0.8,0c0.3,0,0.6,0.1,0.8,0.1c0.1,0.2,0.1,0.4,0.1,0.6c0,0.2,0,0.5,0,0.9c0,0.3,0,0.6,0,0.8
		c0,0.3-0.1,0.5-0.1,0.8c0.6-1,1.5-1.9,2.6-2.6c1.1-0.7,2.3-1.1,3.6-1.1c1.3,0,2.3,0.3,3,0.9c0.7,0.6,1.1,1.6,1.2,2.8
		c0.7-1.1,1.6-2,2.7-2.7c1.1-0.7,2.3-1,3.6-1c2.8,0,4.2,1.6,4.2,4.7c0,0.4,0,0.8-0.1,1.2c-0.1,0.4-0.1,0.9-0.2,1.3l-2.1,11.7
		c-0.3,0-0.6,0.1-0.9,0.1c-0.3,0-0.6,0-0.9,0c-0.3,0-0.6,0-0.9,0c-0.3,0-0.6-0.1-0.8-0.1l1.9-11.1c0.1-0.4,0.1-0.8,0.2-1.1
		c0-0.4,0.1-0.7,0.1-1c0-0.9-0.2-1.6-0.5-2c-0.4-0.4-0.9-0.6-1.7-0.6c-0.5,0-1,0.1-1.6,0.4c-0.5,0.2-1.1,0.6-1.5,1.2
		c-0.5,0.6-0.9,1.3-1.3,2.3c-0.4,0.9-0.7,2.1-1,3.5l-1.5,8.4c-0.3,0-0.6,0.1-0.9,0.1c-0.3,0-0.6,0-0.9,0c-0.3,0-0.6,0-0.9,0
		c-0.3,0-0.6-0.1-0.8-0.1l1.9-11.1c0.1-0.4,0.1-0.8,0.2-1.1c0-0.4,0.1-0.7,0.1-1c0-0.9-0.2-1.6-0.5-2c-0.4-0.4-0.9-0.6-1.7-0.6
		c-0.5,0-1,0.1-1.6,0.4c-0.5,0.2-1.1,0.7-1.5,1.3c-0.5,0.6-0.9,1.4-1.4,2.4c-0.4,1-0.8,2.2-1,3.8l-1.4,8c-0.3,0-0.6,0.1-0.9,0.1
		c-0.3,0-0.6,0-0.9,0s-0.6,0-0.9,0c-0.3,0-0.6-0.1-0.8-0.1L247.3,134.3z"/>
	<path class="st1" d="M290.8,137.2c-0.3,1.4-0.5,2.7-0.6,3.7c-0.2,1-0.2,1.9-0.2,2.7c0,0.3,0,0.6,0,0.7c0,0.2,0,0.4,0.1,0.7
		c-0.3,0-0.6,0.1-0.9,0.1c-0.3,0-0.6,0-0.9,0c-0.2,0-0.5,0-0.8,0c-0.3,0-0.6-0.1-0.8-0.1c0-0.3-0.1-0.5-0.1-0.8c0-0.3,0-0.6,0-1
		c0-0.3,0-0.6,0.1-1.1c0.1-0.5,0.1-0.9,0.2-1.2c-0.3,0.5-0.6,1.1-1,1.6c-0.4,0.5-0.9,1-1.5,1.5c-0.6,0.4-1.2,0.8-1.9,1.1
		c-0.7,0.3-1.5,0.4-2.3,0.4c-1.6,0-2.8-0.5-3.6-1.6c-0.8-1-1.2-2.5-1.2-4.2c0-1.7,0.3-3.4,0.8-5s1.3-3.1,2.3-4.3
		c1-1.3,2.3-2.3,3.8-3c1.5-0.8,3.3-1.1,5.4-1.1c0.9,0,1.7,0.1,2.6,0.2c0.9,0.1,1.6,0.3,2.3,0.6L290.8,137.2z M288.8,129.3
		c-0.3-0.1-0.6-0.1-0.9-0.1c-0.3,0-0.7,0-1,0c-1.2,0-2.3,0.3-3.2,0.8c-1,0.6-1.8,1.3-2.4,2.2c-0.7,0.9-1.2,2-1.6,3.1
		c-0.4,1.2-0.5,2.3-0.5,3.6c0,1.2,0.2,2,0.6,2.7c0.4,0.6,1,0.9,1.8,0.9c0.7,0,1.5-0.2,2.2-0.7c0.7-0.5,1.3-1.1,1.9-2
		c0.6-0.8,1.1-1.8,1.5-3c0.4-1.1,0.7-2.4,1-3.6L288.8,129.3z"/>
	<path class="st1" d="M310.5,137.2c-0.3,1.4-0.5,2.7-0.6,3.7c-0.1,1-0.2,1.9-0.2,2.7v0.7c0,0.2,0,0.4,0.1,0.7
		c-0.3,0-0.5,0.1-0.8,0.1c-0.3,0-0.6,0-0.8,0c-0.3,0-0.5,0-0.8,0c-0.3,0-0.6-0.1-0.8-0.1c-0.1-0.2-0.1-0.4-0.1-0.6
		c0-0.2-0.1-0.5-0.1-1c0-0.3,0-0.7,0.1-1.2c0.1-0.5,0.1-1,0.3-1.4c-0.3,0.5-0.6,1.1-1.1,1.6c-0.4,0.6-0.9,1.1-1.5,1.5
		c-0.6,0.5-1.2,0.8-1.9,1.1c-0.7,0.3-1.5,0.4-2.3,0.4c-1.6,0-2.8-0.5-3.6-1.6c-0.8-1-1.2-2.5-1.2-4.2c0-1.7,0.3-3.4,0.8-5
		c0.5-1.6,1.3-3.1,2.3-4.3c1-1.3,2.3-2.3,3.9-3c1.5-0.8,3.3-1.1,5.3-1.1c0.3,0,0.5,0,0.8,0c0.3,0,0.5,0,0.7,0.1
		c0.3-1.4,0.5-2.6,0.6-3.6c0.1-1,0.2-1.9,0.2-2.7v-0.7c0-0.2,0-0.4,0-0.6c0.3,0,0.6-0.1,0.9-0.1c0.4,0,0.7,0,1,0c0.2,0,0.5,0,0.8,0
		c0.3,0,0.6,0,0.8,0.1c0.1,0.5,0.1,0.9,0.1,1.3c0,0.6-0.1,1.3-0.2,2.1c-0.1,0.9-0.2,1.7-0.4,2.5L310.5,137.2z M308.4,129.3
		c-0.3-0.1-0.6-0.1-0.9-0.1c-0.3,0-0.7,0-1,0c-1.2,0-2.3,0.3-3.2,0.8c-0.9,0.6-1.8,1.3-2.4,2.2c-0.7,0.9-1.2,2-1.6,3.1
		c-0.4,1.2-0.5,2.3-0.5,3.6c0,1.2,0.2,2,0.6,2.7c0.4,0.6,1,0.9,1.8,0.9c0.7,0,1.5-0.2,2.2-0.7c0.7-0.5,1.3-1.1,1.9-2
		c0.6-0.8,1.1-1.8,1.5-3c0.4-1.1,0.8-2.4,1-3.6L308.4,129.3z"/>
	<path class="st1" d="M321.4,145.4c-2.2,0-3.9-0.6-5-1.8c-1.1-1.2-1.7-3-1.7-5.2c0-1.3,0.2-2.7,0.6-4.1c0.4-1.5,1-2.8,1.9-4
		c0.9-1.2,1.9-2.2,3.2-2.9c1.3-0.8,2.8-1.2,4.5-1.2c2.3,0,3.9,0.6,5.1,1.9c1.1,1.2,1.7,3,1.7,5.3c0,1.3-0.2,2.7-0.6,4.2
		c-0.4,1.4-1,2.7-1.9,3.9c-0.8,1.2-1.9,2.2-3.2,2.9C324.7,145.1,323.2,145.4,321.4,145.4 M321.7,142.6c1.1,0,2.1-0.3,2.9-0.9
		c0.8-0.6,1.5-1.4,2-2.3c0.5-0.9,0.9-1.9,1.1-3c0.2-1.1,0.4-2.1,0.4-3.1c0-1.4-0.3-2.4-0.9-3.1c-0.6-0.7-1.5-1.1-2.6-1.1
		c-1.1,0-2.1,0.3-2.9,0.9c-0.8,0.6-1.4,1.4-1.9,2.3c-0.5,0.9-0.9,1.9-1.1,3c-0.2,1.1-0.3,2.1-0.3,3c0,1.4,0.3,2.4,0.9,3.1
		C319.8,142.2,320.6,142.6,321.7,142.6"/>
	<path class="st1" d="M341,145c0-0.7,0.1-1.3,0.2-2c0.1-0.7,0.3-1.3,0.5-2c0.3-0.1,0.7-0.1,1-0.1c0.3,0,0.7,0,1,0c0.3,0,0.7,0,1,0
		c0.3,0,0.7,0.1,1,0.1c0,0.7-0.1,1.4-0.2,2c-0.1,0.6-0.3,1.3-0.5,2c-0.4,0-0.7,0.1-1.1,0.1c-0.3,0-0.7,0-1,0c-0.3,0-0.7,0-1,0
		C341.7,145.1,341.4,145.1,341,145 M343.4,131.7c0-0.7,0.1-1.3,0.2-2c0.1-0.7,0.3-1.3,0.5-2c0.3-0.1,0.7-0.1,1-0.1c0.3,0,0.7,0,1,0
		c0.3,0,0.7,0,1,0c0.3,0,0.7,0.1,1,0.1c0,0.7-0.1,1.4-0.2,2c-0.1,0.6-0.3,1.3-0.5,2c-0.4,0-0.7,0.1-1.1,0.1c-0.3,0-0.7,0-1,0
		c-0.3,0-0.7,0-1,0C344,131.8,343.7,131.8,343.4,131.7"/>
	<path class="st1" d="M346.6,151c0.8-1.1,1.6-2.4,2.5-3.9c0.9-1.5,1.7-3.3,2.5-5.3c0.8-2,1.4-4.1,1.9-6.5c0.5-2.4,0.8-4.9,0.8-7.5
		c0-1.3-0.1-2.6-0.2-3.7c-0.1-1.1-0.3-2.2-0.4-3.1c-0.2-0.9-0.4-1.7-0.6-2.3c-0.2-0.6-0.4-1.1-0.5-1.5c0.3,0,0.6-0.1,0.9-0.1
		c0.3,0,0.7,0,1,0c0.3,0,0.6,0,0.9,0c0.3,0,0.5,0.1,0.7,0.1c0.5,1.1,0.9,2.6,1.3,4.5c0.4,1.8,0.6,3.9,0.6,6.1c0,2.2-0.2,4.5-0.7,6.9
		c-0.5,2.4-1.1,4.6-1.8,6.7c-0.7,2.1-1.6,4-2.5,5.7c-0.9,1.7-1.8,3-2.7,3.9c-0.3,0.1-0.5,0.1-0.8,0.1c-0.3,0-0.6,0-0.9,0
		c-0.3,0-0.7,0-1,0C347.2,151.1,346.9,151,346.6,151"/>
</g>
</svg>
