<?xml version="1.0" encoding="utf-8"?>
<!-- Generator: Adobe Illustrator 24.2.1, SVG Export Plug-In . SVG Version: 6.00 Build 0)  -->
<svg version="1.1" id="Capa_1" xmlns="http://www.w3.org/2000/svg" xmlns:xlink="http://www.w3.org/1999/xlink" x="0px" y="0px"
	 viewBox="0 0 400 225" style="enable-background:new 0 0 400 225;" xml:space="preserve">
<style type="text/css">
	.st0{fill:#B9B3AD;}
	.st1{fill:#FFFFFF;}
	.st2{fill:#80BC00;}
	.st3{fill:#B14FC5;}
	.st4{fill:#F32735;}
	.st5{fill:#FF6B00;}
	.st6{fill:#009EE2;}
	.st7{fill:#AFA99F;}
	.st8{fill:#FFA400;}
	.st9{fill:#B27913;}
</style>
<g>
	<g>
		<path class="st0" d="M357.6,120.1c-22.8-19.8-32.4-10-42.9-12.4c-10.4-2.3-23.9,3.1-28.9,12.6c-5,9.4-0.1,13.1-9.3,28.6
			c-7,11.8-16,31-8.2,45.1c7.8,14.1,22.5,19.7,38.7,12.4c16.2-7.3,26-3,32.6-7C388.7,170.1,367.5,128.6,357.6,120.1z"/>
		<path class="st1" d="M355,120.8c-21.1-17.7-30.2-8.5-39.6-10.4c-9.3-1.8-21.3,3.4-25.9,12c-4.6,8.5-2.3,12.5-9,25.7
			c-5.3,10.4-15.7,28.2-9.6,41.2c6.2,13.2,19.8,18.5,34.6,12.3c15.1-6.3,24.3-1.9,30.7-5.5C385,168.8,364.4,128.7,355,120.8z"/>
	</g>
	<path class="st2" d="M66.2,110.2c-7.9,0-14.1-2.9-18.6-8.6h-1c0.6,5.6,1,8.9,1,9.7v27H29.3V41.8h14.9l2.6,8.7h0.8
		c4.3-6.7,10.6-10,19.1-10c7.9,0,14.2,3.1,18.6,9.2c4.5,6.1,6.7,14.7,6.7,25.6c0,7.2-1.1,13.4-3.2,18.7c-2.1,5.3-5.1,9.3-9,12.1
		C76,108.8,71.4,110.2,66.2,110.2z M60.8,55.2c-4.5,0-7.8,1.4-9.9,4.2c-2.1,2.8-3.2,7.4-3.2,13.8v2c0,7.2,1.1,12.4,3.2,15.5
		c2.1,3.1,5.5,4.7,10.2,4.7c8.2,0,12.3-6.8,12.3-20.3c0-6.6-1-11.6-3-14.9C68.3,56.9,65.1,55.2,60.8,55.2z"/>
	<path class="st3" d="M102,24.4c0-6,3.3-9,10-9c6.7,0,10,3,10,9c0,2.8-0.8,5.1-2.5,6.6c-1.7,1.6-4.2,2.4-7.5,2.4
		C105.3,33.4,102,30.4,102,24.4z M121.1,109h-18.3V41.8h18.3V109z"/>
	<path class="st4" d="M182.8,89.1c0,6.9-2.4,12.1-7.2,15.8c-4.8,3.6-12,5.4-21.5,5.4c-4.9,0-9.1-0.3-12.5-1
		c-3.5-0.7-6.7-1.6-9.7-2.9V91.2c3.4,1.6,7.2,2.9,11.5,4c4.3,1.1,8,1.6,11.3,1.6c6.7,0,10-1.9,10-5.8c0-1.4-0.4-2.6-1.3-3.5
		c-0.9-0.9-2.4-1.9-4.6-3.1c-2.2-1.1-5.1-2.5-8.7-4c-5.2-2.2-9-4.2-11.4-6c-2.4-1.8-4.2-4-5.3-6.3c-1.1-2.4-1.7-5.3-1.7-8.8
		c0-6,2.3-10.6,6.9-13.9c4.6-3.3,11.2-4.9,19.7-4.9c8.1,0,16,1.8,23.6,5.3l-5.5,13.2c-3.4-1.4-6.5-2.6-9.4-3.5
		c-2.9-0.9-5.9-1.4-9-1.4c-5.4,0-8.1,1.5-8.1,4.4c0,1.6,0.9,3.1,2.6,4.3c1.7,1.2,5.6,3,11.5,5.4c5.3,2.1,9.1,4.1,11.5,6
		c2.4,1.8,4.3,4,5.4,6.4C182.2,82.9,182.8,85.7,182.8,89.1z"/>
	<path class="st5" d="M225.4,95.6c3.2,0,7.1-0.7,11.5-2.1v13.6c-4.6,2-10.2,3.1-16.8,3.1c-7.3,0-12.7-1.8-16-5.6
		c-3.3-3.7-5-9.3-5-16.7V55.6h-8.8v-7.8l10.1-6.1l5.3-14.2h11.7v14.3h18.8v13.8h-18.8V88c0,2.6,0.7,4.5,2.2,5.8
		C221.1,95,223,95.6,225.4,95.6z"/>
	<path class="st6" d="M306.7,75.3c0,10.9-2.9,19.5-8.7,25.7c-5.8,6.2-13.8,9.3-24.1,9.3c-6.5,0-12.1-1.4-17.1-4.2
		c-4.9-2.8-8.7-6.9-11.4-12.2c-2.6-5.3-4-11.5-4-18.5c0-11,2.9-19.5,8.6-25.6c5.7-6.1,13.8-9.1,24.2-9.1c6.5,0,12.1,1.4,17.1,4.2
		c4.9,2.8,8.7,6.8,11.4,12.1C305.4,62.1,306.7,68.2,306.7,75.3z M260.3,75.3c0,6.7,1.1,11.7,3.3,15.1c2.2,3.4,5.7,5.1,10.7,5.1
		c4.9,0,8.4-1.7,10.5-5.1c2.1-3.4,3.2-8.4,3.2-15.1c0-6.7-1.1-11.6-3.2-15c-2.2-3.3-5.7-5-10.6-5c-4.9,0-8.4,1.7-10.6,5
		C261.3,63.6,260.3,68.6,260.3,75.3z"/>
	<g>
		<g>
			<path class="st7" d="M66,139.4c-3.6,0-5.5-2-5.5-6c0-2,0.5-3.5,1.5-4.6c1-1,2.4-1.6,4.3-1.6c1.4,0,2.6,0.3,3.6,0.8l-0.9,2.5
				c-0.5-0.2-1-0.4-1.4-0.5c-0.4-0.1-0.9-0.2-1.3-0.2c-1.7,0-2.5,1.2-2.5,3.5c0,2.3,0.8,3.4,2.5,3.4c0.6,0,1.2-0.1,1.7-0.2
				c0.5-0.2,1-0.4,1.6-0.8v2.7c-0.5,0.3-1,0.6-1.6,0.7C67.5,139.4,66.8,139.4,66,139.4z"/>
			<path class="st7" d="M82.9,133.3c0,1.9-0.5,3.4-1.5,4.5c-1,1.1-2.4,1.6-4.2,1.6c-1.1,0-2.1-0.2-3-0.7c-0.9-0.5-1.5-1.2-2-2.1
				c-0.5-0.9-0.7-2-0.7-3.2c0-1.9,0.5-3.4,1.5-4.5c1-1.1,2.4-1.6,4.2-1.6c1.1,0,2.1,0.2,3,0.7c0.9,0.5,1.5,1.2,2,2.1
				C82.7,131,82.9,132.1,82.9,133.3z M74.9,133.3c0,1.2,0.2,2,0.6,2.6c0.4,0.6,1,0.9,1.9,0.9c0.9,0,1.5-0.3,1.8-0.9
				c0.4-0.6,0.6-1.5,0.6-2.6c0-1.2-0.2-2-0.6-2.6c-0.4-0.6-1-0.9-1.9-0.9c-0.8,0-1.5,0.3-1.8,0.9C75,131.3,74.9,132.2,74.9,133.3z"
				/>
			<path class="st7" d="M96.4,139.2h-3.2v-6.8c0-0.8-0.1-1.5-0.5-1.9c-0.3-0.4-0.8-0.6-1.4-0.6c-0.9,0-1.5,0.3-1.9,0.9
				c-0.4,0.6-0.6,1.6-0.6,3v5.5h-3.2v-11.7H88l0.4,1.5h0.2c0.4-0.6,0.8-1,1.5-1.3c0.6-0.3,1.3-0.4,2.1-0.4c1.4,0,2.4,0.4,3.1,1.1
				c0.7,0.7,1.1,1.8,1.1,3.2V139.2z"/>
		</g>
	</g>
	<g>
		<g>
			<g>
				<g>
					<path class="st8" d="M336.2,132.4c11.8,10.2,13.1,28.1,2.9,39.9c-10.2,11.8-28.1,13.1-39.9,2.9c-11.8-10.2-13.1-28.1-2.9-39.9
						C306.5,123.4,324.4,122.1,336.2,132.4z"/>
					<path class="st9" d="M317.7,183.7c-6.9,0-13.9-2.4-19.6-7.3c-12.5-10.8-13.9-29.8-3.1-42.3c10.8-12.5,29.8-13.9,42.3-3.1l0,0
						c6.1,5.2,9.7,12.5,10.3,20.5c0.6,8-2,15.7-7.2,21.8C334.4,180.2,326.1,183.7,317.7,183.7z M317.7,127.2
						c-7.5,0-14.9,3.1-20.1,9.2c-9.6,11.1-8.4,27.9,2.7,37.5c11.1,9.6,27.9,8.4,37.5-2.7c4.6-5.4,6.9-12.2,6.4-19.3
						c-0.5-7.1-3.8-13.5-9.1-18.2l0,0C330.1,129.3,323.9,127.2,317.7,127.2z"/>
				</g>
			</g>
			<g>
				<g>
					<path class="st1" d="M318.8,134.3c-0.4,0.4-0.9,0.7-1.6,0.8c-10.7,0.4-15.3,9.2-15.5,9.6c-0.5,1.1-1.8,1.5-2.9,1
						c-1.1-0.5-1.5-1.8-1-2.9c0.2-0.5,5.9-11.6,19.2-12.1c1.2,0,2.2,0.9,2.3,2.1C319.4,133.4,319.2,133.9,318.8,134.3z"/>
				</g>
			</g>
		</g>
	</g>
	<path class="st7" d="M153.8,180.3c-0.3,0-0.5-0.2-0.6-0.4l-9.4-30.1c-0.6-1.7-1.5-5.4-2.9-11c-1.1,4.6-2.1,8.4-2.9,11.1l-9.7,30
		c-0.1,0.2-0.3,0.4-0.6,0.4h-9c-0.3,0-0.5-0.2-0.6-0.4l-14-51.3c0-0.2,0-0.4,0.1-0.5c0.1-0.1,0.3-0.2,0.5-0.2h8.1
		c0.3,0,0.5,0.2,0.6,0.4l7.6,29.4c1.3,5,2.2,8.9,2.7,11.5c0.3-1.4,0.7-3,1.2-4.8c0.8-2.8,1.4-5.1,2-6.7l9.4-29.4
		c0.1-0.2,0.3-0.4,0.6-0.4h8.4c0.3,0,0.5,0.2,0.6,0.4l9.2,29.4c1.4,4.3,2.5,8.1,3.2,11.4c0.2-0.9,0.4-1.9,0.7-3
		c0.5-2.3,3.7-14.7,9.8-37.8c0.1-0.3,0.3-0.4,0.6-0.4h8c0.2,0,0.4,0.1,0.5,0.2c0.1,0.1,0.1,0.3,0.1,0.5l-14.2,51.3
		c-0.1,0.3-0.3,0.4-0.6,0.4H153.8z"/>
	<path class="st7" d="M153.8,179.7l-9.4-30.1c-0.6-1.8-1.7-6-3.3-12.5h-0.4c-1.2,5.5-2.3,9.7-3.3,12.6l-9.7,30h-9l-14-51.3h8.1
		c3.3,12.9,5.8,22.7,7.6,29.4c1.7,6.7,2.7,11.3,3,13.6h0.4c0.3-1.8,0.9-4.1,1.7-6.9c0.8-2.8,1.4-5.1,2-6.7l9.4-29.4h8.4l9.2,29.4
		c1.7,5.4,2.9,9.9,3.6,13.5h0.4c0.1-1.1,0.5-2.9,1-5.2c0.5-2.3,3.8-14.9,9.8-37.7h8l-14.2,51.3H153.8z"/>
	<path class="st7" d="M206,181.2c-7.7,0-13.9-2.4-18.4-7.1c-4.5-4.7-6.7-11.3-6.7-19.6c0-8.4,2.1-15.1,6.2-20.1
		c4.2-5,9.8-7.5,16.8-7.5c6.6,0,11.8,2.2,15.7,6.5c3.8,4.3,5.8,10.1,5.8,17.1v4.9c0,0.3-0.3,0.6-0.6,0.6h-34.7
		c0.2,5.6,1.7,9.8,4.4,12.7c2.8,3,6.7,4.5,11.8,4.5c5.4,0,10.8-1.1,16.1-3.4c0.1,0,0.2,0,0.2,0c0.1,0,0.2,0,0.3,0.1
		c0.2,0.1,0.3,0.3,0.3,0.5v6.9c0,0.2-0.1,0.4-0.4,0.5c-2.8,1.2-5.4,2.1-7.9,2.6C212.5,180.9,209.4,181.2,206,181.2z M215.9,148.6
		c-0.1-4.5-1.1-7.9-3.1-10.3c-2.1-2.5-5.1-3.7-8.9-3.7c-3.9,0-7.1,1.3-9.4,3.8c-2.2,2.5-3.6,5.9-4.1,10.2H215.9z"/>
	<path class="st7" d="M206,180.6c-7.6,0-13.6-2.3-17.9-6.9c-4.4-4.6-6.6-11-6.6-19.2c0-8.3,2-14.8,6.1-19.7s9.5-7.3,16.4-7.3
		c6.4,0,11.5,2.1,15.2,6.3c3.7,4.2,5.6,9.8,5.6,16.7v4.9h-35.3c0.2,6,1.7,10.6,4.6,13.7c2.9,3.1,6.9,4.7,12.2,4.7
		c5.5,0,11-1.2,16.4-3.5v6.9c-2.7,1.2-5.3,2-7.8,2.5C212.4,180.4,209.4,180.6,206,180.6z M203.9,134c-4.1,0-7.4,1.3-9.8,4
		s-3.9,6.4-4.3,11.1h26.8c0-4.9-1.1-8.6-3.3-11.2C211,135.3,207.9,134,203.9,134z"/>
	<path class="st7" d="M256.6,181.2c-3.4,0-6.6-0.6-9.4-1.9c-2.7-1.2-5-3-6.9-5.4l-1.5,6c-0.1,0.3-0.3,0.4-0.6,0.4h-5.6
		c-0.3,0-0.6-0.3-0.6-0.6v-63.3c0-0.3,0.3-0.6,0.6-0.6h7.8c0.3,0,0.6,0.3,0.6,0.6v8.2c0,3.4-0.1,6.5-0.3,9.3c3.7-4.6,9-6.9,15.8-6.9
		c6.9,0,12.3,2.4,16.1,7.1c3.8,4.7,5.7,11.4,5.7,19.9c0,8.5-1.9,15.2-5.8,20C268.8,178.8,263.4,181.2,256.6,181.2z M255.4,134.7
		c-5.1,0-8.8,1.5-11,4.3c-2.2,2.9-3.4,8-3.4,15c0,7,1.2,12.1,3.5,15.1c2.3,2.9,6,4.4,11.1,4.4c4.6,0,7.9-1.6,10.2-5
		c2.3-3.4,3.4-8.3,3.4-14.7c0-6.5-1.1-11.4-3.4-14.6C263.6,136.2,260.2,134.7,255.4,134.7z"/>
	<path class="st7" d="M256.6,127.6c6.7,0,12,2.3,15.7,6.9c3.7,4.6,5.6,11.1,5.6,19.5c0,8.4-1.9,15-5.6,19.6c-3.8,4.7-9,7-15.6,7
		c-3.3,0-6.4-0.6-9.1-1.8c-2.8-1.2-5.1-3.1-6.9-5.7h-0.6l-1.6,6.6h-5.6v-63.3h7.8v8.2c0,4-0.1,7.5-0.4,10.7h0.4
		C244.1,130.1,249.5,127.6,256.6,127.6z M255.4,134.1c-5.3,0-9.1,1.5-11.5,4.6c-2.3,3-3.5,8.2-3.5,15.4c0,7.2,1.2,12.4,3.6,15.5
		c2.4,3.1,6.2,4.7,11.6,4.7c4.8,0,8.3-1.7,10.7-5.2c2.3-3.5,3.5-8.5,3.5-15c0-6.7-1.2-11.6-3.5-14.9
		C263.9,135.7,260.3,134.1,255.4,134.1z"/>
</g>
</svg>
