<?xml version="1.0" encoding="utf-8"?>
<!-- Generator: Adobe Illustrator 24.0.1, SVG Export Plug-In . SVG Version: 6.00 Build 0)  -->
<svg version="1.1" id="Capa_1" xmlns="http://www.w3.org/2000/svg" xmlns:xlink="http://www.w3.org/1999/xlink" x="0px" y="0px"
	 viewBox="0 0 400 225" style="enable-background:new 0 0 400 225;" xml:space="preserve">
<style type="text/css">
	.st0{fill:url(#SVGID_1_);}
	.st1{fill:url(#SVGID_2_);}
	.st2{fill:#1F1E21;}
	.st3{fill:url(#SVGID_3_);}
</style>
<g>
	
		<linearGradient id="SVGID_1_" gradientUnits="userSpaceOnUse" x1="184.0193" y1="-175.9677" x2="184.0193" y2="-76.2663" gradientTransform="matrix(1 0 0 1 0 234.17)">
		<stop  offset="0.261" style="stop-color:#F4D437"/>
		<stop  offset="1" style="stop-color:#DE9B26"/>
	</linearGradient>
	<path class="st0" d="M231.8,91.1h-26.6l3.1-32.9l-21.4,32.9h-29.3l19.2,15.4l-40.6,51.5l55-40.1L213,134l-7.1-26.1L231.8,91.1z"/>
	
		<linearGradient id="SVGID_2_" gradientUnits="userSpaceOnUse" x1="200" y1="-36.67" x2="200" y2="-206.67" gradientTransform="matrix(1 0 0 1 0 234.17)">
		<stop  offset="0.2" style="stop-color:#1F1E21"/>
		<stop  offset="0.7" style="stop-color:#3F3F41"/>
		<stop  offset="1" style="stop-color:#58595A"/>
	</linearGradient>
	<path class="st1" d="M262.9,113.9c7.3-2.4,13-7,13-16.9c0-11.7-11.8-14.7-24-14.7c-4.7,0-10.3,0.4-14.5,0.9h-23.6l5.3-55.8
		l-36.3,55.8h-69.3c-3.2-0.6-6.4-0.9-9.3-0.9c-14,0-22.7,7.9-22.7,19c0,16.5,19.2,12.5,19.2,16.6c0,0.7-0.6,1.7-4.7,1.7
		c-6.1,0-10.8-2.1-14.1-3.9l-4.7,13.4c4.8,2.2,11,3.7,17.9,3.7c14.3,0,23.5-6.4,23.5-18.1c0-17.1-19.7-13.1-19.7-17.3
		c0-1.3,1.9-1.7,4.4-1.7c3.2,0,6.5,0.6,9.3,1.4h17.3l-4.9,34.7h17.8l4.9-34.7h5.2l13.2,10.5l-70.8,89.9l96.1-70.1l35.3,26.2
		l-11.6-42.3l16.6-10.8l-4.4,31.3h17.2l2.2-15.1c0.3,0,0.6,0,0.9-0.1c5.2,12.5,8.9,16.2,15.9,16.2c4.2,0,7.2-0.6,9.7-1.4l1.6-11.6
		C271.5,119.7,267.3,120.6,262.9,113.9L262.9,113.9z M205.9,107.9L213,134l-21.8-16.2l-55,40.1l40.6-51.5l-19.2-15.4h29.3l21.4-32.9
		l-3.1,32.9h26.6L205.9,107.9z M249.5,105.3c-0.6,0-1.1,0-1.5-0.1l1.4-9.7c0.5-0.1,1.2-0.2,2-0.2c2.9,0,6.9,0.8,6.9,4.3
		C258.3,104.5,252.6,105.3,249.5,105.3L249.5,105.3z M288.7,116.6l-0.4,2.6h7.1l-0.9,6.3h-7.1l-0.9,6.3h-7.7l3-21.2h15.8l-0.9,6
		H288.7z M322.8,110.6l-3,21.2h-7.2l1.5-10.8l-5,6.7H309l-3.1-6.8l-1.5,10.8h-7.2l3-21.2h7.8l2.6,6.9l4.5-6.9L322.8,110.6
		L322.8,110.6z"/>
	<path class="st2" d="M217.9,30.5l-5,52.6l-0.1,0.9h24.6c3.7-0.4,9.4-0.9,14.4-0.9c15.4,0,23.3,4.7,23.3,13.9
		c0,8.2-3.9,13.3-12.5,16.1l-1,0.3l0.6,0.9c3.5,5.4,7.1,6.1,10.2,6.1c0.4,0,0.8,0,1.2,0h0.1l-1.4,10.2c-2.1,0.6-5,1.3-9.1,1.3
		c-6.7,0-10-3.5-15.1-15.7l-0.2-0.6l-0.6,0.2c-0.2,0-0.4,0-0.7,0h-0.7l-0.1,0.6l-2.1,14.5H228l4.3-30.4l0.2-1.7l-1.4,0.9l-16.6,10.9
		L214,111l0.2,0.5l11,40.1l-33.5-24.9l-0.4-0.3l-0.4,0.3l-91.5,66.8l67.3-85.4l0.5-0.6l-0.6-0.5l-13.2-10.5l-0.2-0.2h-6.1l-0.1,0.6
		l-4.8,34h-16.2l4.8-33.8l0.1-0.9h-18.1c-3.1-0.9-6.4-1.4-9.4-1.4c-1.4,0-5.2,0-5.2,2.4c0,2,2.5,2.6,5.7,3.3c5.9,1.3,14,3.2,14,14
		c0,5.5-2,9.8-6.1,12.8c-3.9,3-9.7,4.5-16.7,4.5c-6,0-11.9-1.2-16.9-3.3l4.1-11.9c4.5,2.4,9,3.6,13.6,3.6c1.3,0,5.4,0,5.4-2.4
		c0-1.9-2.4-2.5-5.5-3.2c-5.8-1.3-13.7-3-13.7-13.4c0-10.9,8.8-18.2,21.9-18.2c2.8,0,5.9,0.3,9.2,0.9H183l0.2-0.4L217.9,30.5
		 M249.5,106.1c6,0,9.6-2.4,9.6-6.4c0-3.2-2.9-5.1-7.8-5.1c-0.9,0-1.6,0.1-2.1,0.2l-0.6,0.1l-0.1,0.6l-1.4,9.7l-0.1,0.8l0.7,0.1
		C248.3,106.1,248.9,106.1,249.5,106.1 M219,27.5l-36.3,55.8h-69.3c-3.2-0.6-6.4-0.9-9.3-0.9c-14,0-22.7,7.9-22.7,19
		c0,16.5,19.2,12.5,19.2,16.6c0,0.7-0.6,1.7-4.7,1.7c-6.1,0-10.8-2.1-14.1-3.9l-4.7,13.4c4.8,2.2,11,3.7,17.9,3.7
		c14.3,0,23.5-6.4,23.5-18.1c0-17.1-19.7-13.1-19.7-17.3c0-1.3,1.9-1.7,4.4-1.7c3.2,0,6.5,0.6,9.3,1.4h17.3l-4.9,34.7h17.8l4.9-34.7
		h5.2l13.2,10.5l-70.8,89.9l96.1-70.1l35.3,26.2l-11.6-42.3l16.6-10.8l-4.4,31.3h17.2l2.2-15.1c0.3,0,0.6,0,0.9-0.1
		c5.2,12.5,8.9,16.2,15.9,16.2c4.2,0,7.2-0.6,9.7-1.4l1.6-11.6c-0.6,0-1.4,0-2.1,0c-2.7,0-6.1-0.6-9.5-5.8c7.3-2.4,13-7,13-16.9
		c0-11.7-11.8-14.7-24-14.7c-4.7,0-10.3,0.4-14.5,0.9h-23.6L219,27.5z M249.5,105.3c-0.6,0-1.1,0-1.5-0.1l1.4-9.7
		c0.5-0.1,1.2-0.2,2-0.2c2.9,0,6.9,0.8,6.9,4.3C258.3,104.5,252.6,105.3,249.5,105.3L249.5,105.3z"/>
	
		<linearGradient id="SVGID_3_" gradientUnits="userSpaceOnUse" x1="184.0193" y1="-175.9677" x2="184.0193" y2="-76.2663" gradientTransform="matrix(1 0 0 1 0 234.17)">
		<stop  offset="0.261" style="stop-color:#F4D437"/>
		<stop  offset="1" style="stop-color:#DE9B26"/>
	</linearGradient>
	<path class="st3" d="M231.8,91.1h-26.6l3.1-32.9l-21.4,32.9h-29.3l19.2,15.4l-40.6,51.5l55-40.1l21.8,16.2l-7.1-26.1L231.8,91.1z
		 M210.2,129.8l-19-14.1L145,149.4l34.1-43.3l-16.8-13.4h25.4l18.2-28l-2.6,28h22.9L204,107.2L210.2,129.8L210.2,129.8z"/>
	<path class="st2" d="M175.9,171.9c0,3.2-2.5,4.9-6.3,4.9c-1.9,0-3.5-0.4-4.8-1l1.3-3.7c0.9,0.5,2.2,1.1,3.8,1.1
		c1.1,0,1.3-0.2,1.3-0.4c0-1.1-5.2,0-5.2-4.5c0-3,2.4-5.1,6.1-5.1c1.5,0,3.2,0.3,4.5,0.8l-1.3,3.6c-0.8-0.4-2.2-0.8-3.5-0.8
		c-0.7,0-1.2,0.1-1.2,0.4C170.6,168.4,175.9,167.3,175.9,171.9z M191.3,169.1c0,4.6-3.5,7.7-8,7.7c-3.8,0-6.2-2.1-6.2-5.9
		c0-4.6,3.5-7.7,8-7.7C188.9,163.2,191.3,165.3,191.3,169.1z M186.4,169.4c0-1.6-0.6-2.4-1.9-2.4c-1.8,0-2.7,1.6-2.7,3.6
		c0,1.6,0.6,2.5,1.9,2.5C185.5,173.1,186.4,171.4,186.4,169.4z M197.2,172.8h4.7l-0.5,3.7h-9.5l1.8-13.1h4.8L197.2,172.8
		L197.2,172.8z M217,169.1c0,4.6-3.5,7.7-8,7.7c-3.8,0-6.2-2.1-6.2-5.9c0-4.6,3.5-7.7,8-7.7C214.6,163.2,217,165.3,217,169.1z
		 M212.1,169.4c0-1.6-0.6-2.4-1.9-2.4c-1.8,0-2.7,1.6-2.7,3.6c0,1.6,0.6,2.5,1.9,2.5C211.2,173.1,212.1,171.4,212.1,169.4z
		 M229.5,176.5h-4.8l1.3-9.4h-3.6l0.5-3.7h11.9l-0.5,3.7h-3.5L229.5,176.5L229.5,176.5z M240.3,167.1l-0.2,1.1h4.9l-0.5,3.4h-4.9
		l-0.2,1.2h5.6l-0.5,3.7h-10.3l1.8-13.1h10.3l-0.5,3.7H240.3z M262.3,163.4l-1.8,13.1H256l0.9-6.7l-3.1,4.2h-0.1l-1.9-4.2l-0.9,6.7
		h-4.5l1.8-13.1h4.8l1.6,4.3l2.8-4.3H262.3z M275.8,176.5h-4.8l-0.2-2.2H267l-0.9,2.2h-4.8l6.2-13.1h5.7L275.8,176.5z M268.2,171.3
		h2.1l-0.5-4L268.2,171.3z M288.7,163.4l-0.5,3.6l-5.5,5.8h4.8l-0.5,3.7h-10.8l0.4-3l6.1-6.4h-5l0.5-3.7H288.7L288.7,163.4z
		 M303.2,169.1c0,4.6-3.5,7.7-8.1,7.7c-3.8,0-6.2-2.1-6.2-5.9c0-4.6,3.5-7.7,8.1-7.7C300.8,163.2,303.2,165.3,303.2,169.1z
		 M298.3,169.4c0-1.6-0.6-2.4-1.9-2.4c-1.8,0-2.7,1.6-2.7,3.6c0,1.6,0.6,2.5,1.9,2.5C297.4,173.1,298.3,171.4,298.3,169.4z
		 M314.6,171.9c0,3.2-2.5,4.9-6.3,4.9c-1.9,0-3.5-0.4-4.8-1l1.3-3.7c0.9,0.5,2.2,1.1,3.8,1.1c1.1,0,1.3-0.2,1.3-0.4
		c0-1.1-5.2,0-5.2-4.5c0-3,2.4-5.1,6.1-5.1c1.5,0,3.2,0.3,4.5,0.8l-1.3,3.6c-0.8-0.4-2.2-0.8-3.5-0.8c-0.7,0-1.2,0.1-1.2,0.4
		C309.2,168.4,314.6,167.3,314.6,171.9z"/>
	<g>
		<path class="st2" d="M112.7,48.1l-3.2,22.6h-7.7l1.6-11.5l-5.4,7.2h-0.2l-3.2-7.2L93,70.7h-7.7l3.2-22.6h8.3l2.7,7.4l4.9-7.4
			C104.4,48.1,112.7,48.1,112.7,48.1z M123.5,54.5l-0.3,2h8.4l-0.9,5.9h-8.4l-0.3,2.1h9.7l-0.9,6.3h-17.7l3.2-22.6H134l-0.9,6.3
			H123.5z M155.7,58.2l-1.6,11.2c-2.4,1.1-5.8,1.7-8.7,1.7c-7.1,0-11.1-3.7-11.1-10.2c0-8,6-13.3,14.9-13.3c2.9,0,5.3,0.6,7,1.1
			l-2,6.2c-1.2-0.4-2.8-0.8-4.7-0.8c-5,0-6.7,2.8-6.7,5.8c0,3.4,2,4.6,4.1,4.6c0.3,0,0.6,0,0.8-0.1l0.9-6.4
			C148.5,58.2,155.7,58.2,155.7,58.2L155.7,58.2z M179.6,70.7h-8.3l-0.4-3.8h-6.3l-1.5,3.8h-8.3l10.7-22.6h9.9L179.6,70.7z
			 M166.7,61.7h3.6l-0.9-6.9L166.7,61.7L166.7,61.7z"/>
	</g>
</g>
</svg>
