<?xml version="1.0" encoding="utf-8"?>
<!-- Generator: Adobe Illustrator 24.0.1, SVG Export Plug-In . SVG Version: 6.00 Build 0)  -->
<svg version="1.1" id="Capa_1" xmlns="http://www.w3.org/2000/svg" xmlns:xlink="http://www.w3.org/1999/xlink" x="0px" y="0px"
	 viewBox="0 0 400 225" style="enable-background:new 0 0 400 225;" xml:space="preserve">
<style type="text/css">
	.st0{fill:#E20613;}
</style>
<g>
	<path class="st0" d="M310,119.6c-1.1,3.7-4.6,7.2-8,8.1c-2.6,0.4-4.5,0.1-5.9-0.8c-1.4-1-2.3-2.6-2.7-4.2c-0.1-0.5-0.1-1.1-0.1-1.6
		c0-3.4,1.8-6.6,5.1-9.1c1.9-1.3,4.5-1.8,6.8-1.3c1.3,0.3,3.1,1.1,4.2,3c0.6,1.1,0.9,2.4,0.9,3.8C310.3,118.2,310.2,118.9,310,119.6
		 M177.2,119.6c-1.1,3.7-4.3,7.1-7.7,8c-2.6,0.5-4.8,0.2-6.2-0.7c-1.4-1-2.2-2.6-2.6-4.2c-0.2-0.7-0.2-1.1-0.2-1.6
		c0-3.4,1.8-6.6,5.1-9.1c1.9-1.3,4.5-1.8,6.8-1.3c1.3,0.3,3,1.1,4.1,3c0.6,1.1,0.9,2.4,0.9,3.8C177.5,118.2,177.4,118.9,177.2,119.6
		 M318.6,104.7c0-0.2-0.1-0.4-0.2-0.6c-0.2-0.2-0.4-0.3-0.7-0.3H313c-0.4,0-0.8,0.3-0.9,0.7l-0.4,1.8c-1.1-0.9-2.1-1.5-3.6-2.1
		l-0.5-0.2l-0.2-0.1c-5.1-1.1-10.3,0.4-14.5,4.4c-2.1,1.9-3.7,4.2-4.7,6.6l4.7-25.2c0.1-0.2,0-0.4-0.1-0.6s-0.3-0.3-0.5-0.3H286
		l-0.5,0.3c0,0-19,24.9-22,28.3c1.1-4.2,5-27.7,5-27.7v-0.1l-0.2-0.5c-0.1-0.2-0.3-0.3-0.5-0.3h-6.6l-0.5,0.3l-31.8,36.7
		c-0.5-5.3-3.1-11.2-3.1-11.2c-4.2-8.5-13.4-11.4-18.8-6.8c-0.3,0.1-0.6,0.2-0.9,0.4c4.1-5.7,13.6-5.2,19.8,1.9c0,0,2.8,3.4,4.8,8.5
		c0.5-1.8,0.9-3.6,1-5.5c-3.3-4.5-7-7.1-7-7.1c-7.8-5.2-17-3.3-19.6,3.2c-0.3,0.3-0.5,0.7-0.7,1.1c0.7-7,9.2-11.3,18.1-8.3
		c0,0,4.3,1.6,8.7,5.1c-0.1-0.3-0.1-0.6-0.2-0.8c-0.5-1.9-1.2-3.6-2-5.3c-5.1-2.2-9.6-2.6-9.6-2.6c-9.6-0.7-16.8,6-15.3,13.1v0.4
		c0,0.2,0,0.4,0,0.6c-3.2-6.5,2-14.7,11.4-16.6c0,0,4.4-0.8,9.9,0c-1.4-1.4-2.9-2.7-4.7-3.8c-5.5,0.6-9.5,2.5-9.5,2.5
		c-8.7,4.2-11.5,13.6-6.7,19c0.2,0.3,0.4,0.6,0.6,0.9c-6.1-4-5.7-13.7,1.5-20.1c0,0,3.4-2.9,8.5-4.9c-2.1-0.6-4.3-1-6.5-1
		c-4.2,3.2-6.7,6.8-6.7,6.8c-5.4,8-3.1,17.7,3.9,19.8l0,0h0.1c0.2,0.1,0.4,0.3,0.7,0.4c-7.2-0.4-11.8-9-8.7-18.1c0,0,1.5-4,4.7-8.1
		c-1.8,0.5-3.6,1.2-5.2,2c-2.1,4.9-2.5,9.2-2.5,9.2c-0.7,9.5,5.9,16.6,12.9,15.3h0.4c0.2,0,0.5,0,0.7-0.1c-6.4,3.2-14.7-2-16.5-11.4
		c0,0-0.7-4.3,0-9.6c-1.5,1.5-2.9,3.2-4,5c0.7,5.2,2.5,9.1,2.5,9.1c4.3,8.7,13.7,11.6,19.1,6.5l0,0l0.1-0.1c0.2-0.1,0.5-0.3,0.7-0.4
		c-3.9,6.1-13.8,5.8-20.1-1.5c0,0-3.1-4.1-4.8-8.9l-0.3-0.6c-0.2-0.2-0.5-0.3-0.7-0.3h-4.7c-0.4,0-0.8,0.2-1,0.7
		c0,0-0.3,0.5-0.4,1.6c-1.1-0.9-2.3-1.5-3.4-2l-0.7-0.2c-5.1-1.2-10.3,0.4-14.5,4.3c-2.5,2.3-4.2,5-5.3,8l-0.1,0.2l2.2-11.6
		c0-0.3,0-0.5-0.2-0.7s-0.4-0.3-0.7-0.3h-5.2c-0.4,0-0.8,0.3-0.9,0.8l-5.2,28.4c-0.1,0.3,0,0.5,0.2,0.7s0.4,0.2,0.7,0.2h5.2
		c0.4,0,0.8-0.2,0.9-0.6l2.1-11.6c0,0.1,0.1,2.4,0.3,3.6c0.8,4.4,4.6,8.4,8.8,9.2c3.6,0.7,7.5-0.3,11.3-2.6c-0.1,0.4-0.2,1-0.2,1
		v0.2c0,0.2,0,0.3,0.2,0.5s0.5,0.3,0.7,0.3h4.7c0.4,0,0.8-0.2,0.9-0.6l4.1-22.4c3.1,3.7,7.1,6.8,7.1,6.8c7.8,5.3,17.1,3.3,19.6-3.3
		c0.3-0.3,0.5-0.6,0.6-1c-0.7,7-9.2,11.3-18.1,8.2c0,0-4-1.5-8.1-4.7l0.1,0.5c0.5,1.9,1.2,3.7,2.1,5.4c4.8,2,9,2.4,9,2.4
		c9.5,0.7,16.7-5.9,15.3-13c0-0.2,0.1-0.5,0.1-0.7v-0.3c3,6.4-2.2,14.5-11.5,16.3c0,0-4.2,0.7-9.4,0c1.2,1.3,2.7,2.5,4.2,3.5
		c5.4-0.7,9.4-2.5,9.4-2.5c8.5-4.1,11.4-13.2,6.9-18.7c-0.2-0.4-0.4-0.8-0.6-1.1c5.8,4.1,5.4,13.7-1.8,19.9c0,0-3.5,2.9-8.7,4.9
		c2,0.7,4.1,1.1,6.3,1.2c4.5-3.3,7.1-7,7.1-7c5.4-8,3.1-17.6-3.8-19.8c-0.3-0.2-0.6-0.3-0.9-0.5c7.3,0.4,11.9,9,8.7,18.1
		c0,0-1.6,4.3-5.1,8.6c0.3-0.1,0.6-0.1,0.8-0.2c1.8-0.5,3.4-1.1,5-1.9c2.2-5.1,2.6-9.5,2.6-9.5c0.7-9.4-5.7-16.4-12.6-15.3
		c-0.3-0.1-0.6-0.1-0.9-0.1h-0.2c6.4-2.8,14.3,2.4,16.1,11.6c0,0,1.1,4.4,0.3,9.6c-0.2,0.7-0.5,1.8-1.1,3c-0.2,0.3-0.4,0.7-0.7,1.1
		l0,0l0,0l0,0c-0.1,0.2-0.1,0.5,0,0.7s0.4,0.4,0.6,0.4h7.5c0.2,0,0.4-0.1,0.5-0.2c0,0,24.6-26.4,27.4-29.8
		c-1.1,5.6-3.2,19.1-5.3,29.2v0.1l0.2,0.4c0.1,0.2,0.3,0.3,0.5,0.3h5.8l0.5-0.2c0,0,19.8-26.4,22.7-29.8c-1.2,5.6-3.3,19.2-5.3,29.2
		v0.2l0.1,0.4c0.1,0.2,0.3,0.3,0.5,0.3h5.8c0.3,0,0.6-0.2,0.7-0.5l2.1-12.3c0,0.4,0,0.8,0,0.8c0,1.2-0.4,2.3-0.2,3.5
		c0.8,4.4,4.6,8.4,8.8,9.2c3.6,0.7,7.5-0.3,11.3-2.6c-0.1,0.4-0.2,1-0.2,1v0.2c0,0.2,0.1,0.4,0.2,0.6c0.2,0.2,0.4,0.2,0.7,0.2h4.7
		c0.4,0,0.8-0.2,0.9-0.6l4.2-22.5L318.6,104.7z"/>
	<path class="st0" d="M352,131.3c-2.1-3.4-8.1-13.2-8.6-14.1c0.7-0.8,8.2-9.9,9.7-11.7l-0.7,3.5c0,0.3,0,0.5,0.2,0.8
		c0.2,0.2,0.4,0.3,0.7,0.3h2.6C355.6,111.8,352.8,126.6,352,131.3 M370.2,104.1c-0.2-0.2-0.4-0.3-0.7-0.3h-5.3
		c0.3-1.6,1.5-7.8,1.5-7.8v-0.2c0-0.2-0.1-0.4-0.2-0.6c-0.2-0.2-0.4-0.3-0.7-0.3h-5.3c-0.4,0-0.8,0.3-0.9,0.8c0,0-1.3,6.9-1.5,8.2
		c-0.5,0-1.3,0-1.3,0H355h-0.8c-0.3,0-0.6,0.1-0.8,0.4c-0.2-0.3-0.4-0.4-0.7-0.4H348h-1.4c-0.3,0-0.5,0.1-0.7,0.3
		c0,0-4.3,5.4-6.8,8.1c0.7-4.3,3-16.2,3-16.2v-0.2c0-0.2-0.1-0.4-0.2-0.6c-0.2-0.2-0.4-0.3-0.7-0.3H336c-0.4,0-0.8,0.3-0.9,0.8
		c-0.1,0.7-0.8,4.1-1.5,8.2l0,0c-0.2-0.2-0.4-0.4-0.7-0.4c-2.2,0.1-4.6,1-6.3,2.1l0.1-0.7c0-0.3,0-0.5-0.2-0.7s-0.4-0.3-0.7-0.3
		h-4.7c-0.4,0-0.8,0.3-0.9,0.7l-0.1,0.7L315,133c-0.1,0.3,0,0.5,0.2,0.7s0.5,0.3,0.7,0.3h2.3h2.2c0.4,0,0.8-0.3,0.9-0.7l3.5-17.2
		c1.1-4.3,4-5.6,6.6-6l0.8-0.1c-1.8,10.4-3.8,22.7-3.8,22.9c0,0.3,0,0.5,0.2,0.7s0.4,0.3,0.7,0.3h5.1c0.4,0,0.8-0.2,0.9-0.6
		c0.2-0.5,1.5-7.6,2.2-11.8c1.9,2.9,7.4,12,7.4,12c0.2,0.3,0.5,0.4,0.8,0.4h5.7l0.3-0.2l0.4,0.2h5.9c0.4,0,0.8-0.3,0.9-0.7
		c0,0,4-21.5,4.2-22.9c1.2,0,5.7,0,5.7,0c0.4,0,0.8-0.3,0.9-0.8l0.8-4.6v-0.2C370.4,104.4,370.3,104.2,370.2,104.1"/>
	<path class="st0" d="M140,117.5c0,0.9-0.1,1.4-0.3,2c-1,3.8-4.4,7.2-7.9,8c-2.6,0.5-4.7,0.2-6-0.7c-1.4-1-2.3-2.6-2.7-4.2
		c-0.1-0.7-0.2-1.1-0.2-1.6c0-3.4,1.9-6.7,5.2-9.1c1.9-1.3,4.5-1.8,6.8-1.3c1.3,0.3,2.9,1.2,4.1,3.1
		C139.7,114.8,140,116.1,140,117.5 M96.1,115.3c1.4-2.7,4.4-4.3,7-4.7c2.8-0.2,4.1,0.5,5.3,1.5c1.1,1.1,1.6,2.2,1.8,3.2
		C108.7,115.3,98.3,115.3,96.1,115.3 M149.9,95.2c-0.2-0.2-0.4-0.3-0.7-0.3h-4.7c-0.4,0-0.8,0.3-0.9,0.7c0,0-1.6,7.9-2.2,10.5
		c-1.1-0.9-2.3-1.5-3.4-2l-0.5-0.2l-0.2-0.1c-5.1-1.1-10.3,0.4-14.5,4.4c-2.5,2.3-4.3,5-5.3,8c-0.1-2.5-0.8-4.9-1.7-6.7v-0.1
		c-2.5-4.1-6.6-6.1-12-5.9h-0.1c-5.9,0.7-11.8,4.7-14.7,10.3l-0.1,0.3l4.5-24.6c0-0.2,0-0.4-0.1-0.6s-0.3-0.3-0.5-0.3h-6.2L86,89
		c0,0-19.1,24.9-22.1,28.2c0.9-4.2,4.9-27.7,4.9-27.7v-0.1L68.7,89c-0.1-0.2-0.3-0.3-0.5-0.3h-6L61.7,89l-37.9,43.7
		c-0.2,0.2-0.2,0.5-0.1,0.7s0.4,0.5,0.6,0.5c0,0,5.9,0,7.6,0c0.2,0,0.4-0.1,0.5-0.3c0,0,24.1-27.3,26.9-30.6
		c-1.1,5.6-3.3,19.9-5.5,30v0.1l0.2,0.4c0.1,0.2,0.3,0.3,0.5,0.3h5.8l0.5-0.3c0,0,20-27.2,22.9-30.7c-1.2,5.6-3.1,20.1-5.5,30.1v0.2
		l0.1,0.4c0.1,0.2,0.3,0.3,0.5,0.3h5.7c0.3,0,0.6-0.2,0.7-0.5l2.2-11.6c0,2.5,0.5,4.9,1.5,6.9c2.1,3.7,5.9,5.9,10.4,6
		c6.5,0,12.7-3.9,15.4-9.7c0.1-0.3,0.1-0.6-0.1-0.9s-0.5-0.4-0.8-0.4h-4.9c-0.3,0-0.5,0.1-0.7,0.3c-2.3,2.6-4.9,3.9-7.7,4
		c-2.8,0.1-5.3-1.5-6.3-4.1l-0.1-0.3c-0.1-0.5-0.3-0.9-0.3-1.3v-0.3c1,0,21.8,0,21.8,0c0.2,0,0.5-0.1,0.6-0.2c0,1.2,0.1,2.3,0.3,3.5
		c0.8,4.3,4.6,8.4,8.8,9.2c3.6,0.7,7.5-0.3,11.3-2.6c-0.1,0.4-0.2,1-0.2,1v0.2c0,0.2,0.1,0.4,0.2,0.6c0.2,0.2,0.4,0.2,0.7,0.2h4.7
		c0.4,0,0.8-0.2,0.9-0.6l6.9-37.3C150.1,95.7,150,95.4,149.9,95.2"/>
	<path class="st0" d="M151.4,102.9h5.2c0.4,0,0.8-0.4,0.9-0.9l1.1-6.1c0-0.3,0-0.5-0.2-0.7s-0.4-0.3-0.7-0.3h-5.3
		c-0.4,0-0.8,0.3-0.9,0.8l-1.1,6.1c-0.1,0.3,0,0.7,0.2,0.9C150.8,102.8,151.1,102.9,151.4,102.9"/>
	<path class="st0" d="M369.5,97.6h0.8c0.3,0,0.7-0.1,0.7-0.5c0-0.2-0.1-0.5-0.6-0.5h-0.8v1H369.5z M369.5,99.6h-0.7v-3.5h1.6
		c0.2,0,1.3,0,1.3,1c0,0.7-0.5,0.8-0.6,0.9l0.6,1.5H371l-0.6-1.4h-0.8v1.5H369.5z M370.2,100.5c1.5,0,2.6-1.2,2.6-2.7
		s-1.2-2.7-2.6-2.7s-2.6,1.2-2.6,2.7C367.5,99.3,368.7,100.5,370.2,100.5 M370.2,94.6c1.8,0,3.2,1.4,3.2,3.2c0,1.8-1.4,3.2-3.2,3.2
		c-1.8,0-3.2-1.4-3.2-3.2C366.9,96.1,368.4,94.6,370.2,94.6"/>
</g>
</svg>
