<?xml version="1.0" encoding="utf-8"?>
<!-- Generator: Adobe Illustrator 24.0.1, SVG Export Plug-In . SVG Version: 6.00 Build 0)  -->
<svg version="1.1" id="Capa_1" xmlns="http://www.w3.org/2000/svg" xmlns:xlink="http://www.w3.org/1999/xlink" x="0px" y="0px"
	 viewBox="0 0 400 225" style="enable-background:new 0 0 400 225;" xml:space="preserve">
<style type="text/css">
	.st0{fill:#1E1E1E;}
	.st1{fill:#2F2F2F;}
	.st2{fill:#2B2B2B;}
	.st3{fill:#E5E5E5;}
	.st4{fill:#CFCFCF;}
	.st5{fill:#E7E7E7;}
	.st6{fill:#CDCDCD;}
	.st7{fill:#C3C3C3;}
	.st8{fill:#F3F3F3;}
	.st9{fill:#1D1D1D;}
	.st10{fill:#FEFEFE;}
	.st11{fill:#F6F6F6;}
	.st12{fill:#FDFDFD;}
	.st13{fill:#1B1B1B;}
	.st14{fill:#1C1C1C;}
	.st15{fill:#DCDCDC;}
	.st16{fill:#CECECE;}
	.st17{fill:#242424;}
	.st18{fill:#2C2C2C;}
	.st19{fill:#515151;}
	.st20{fill:#181818;}
	.st21{fill:#2A2A2A;}
	.st22{fill:#383838;}
	.st23{fill:#171717;}
	.st24{fill:#292929;}
	.st25{fill:#161616;}
	.st26{fill:#151515;}
	.st27{fill:#232323;}
	.st28{fill:#0C0C0C;}
	.st29{fill:#212121;}
	.st30{fill:#272727;}
	.st31{fill:#0D0D0D;}
	.st32{fill:#2E2E2E;}
	.st33{fill:#252525;}
	.st34{fill:#282828;}
	.st35{fill:#313131;}
	.st36{fill:#222222;}
	.st37{fill:#1E1F1E;}
	.st38{fill:#1F1F1F;}
	.st39{fill:#262626;}
	.st40{fill:#A7A7A7;}
	.st41{fill:#0E0E0E;}
	.st42{fill:#282829;}
	.st43{fill:#111111;}
	.st44{fill:#232221;}
	.st45{fill:#131313;}
	.st46{fill:#101010;}
	.st47{fill:#F2F2F2;}
	.st48{fill:#FAFAFA;}
	.st49{fill:#4C4C4C;}
	.st50{fill:#141414;}
	.st51{fill:#F7F7F7;}
	.st52{fill:#979797;}
	.st53{fill:#4F4F4F;}
	.st54{fill:#272725;}
	.st55{fill:#E0E0E0;}
	.st56{fill:#505050;}
	.st57{fill:#494949;}
	.st58{fill:#BEBEBE;}
	.st59{fill:#090909;}
	.st60{fill:#EDEDED;}
	.st61{fill:#414141;}
	.st62{fill:#151516;}
	.st63{fill:#1A1A1A;}
	.st64{fill:#0F0F0F;}
	.st65{fill:#F8F8F8;}
	.st66{fill:#A9A9A9;}
	.st67{fill:#F1F1F1;}
	.st68{fill:#ADADAD;}
	.st69{fill:#DBDBDB;}
	.st70{fill:#F4F4F4;}
	.st71{fill:#F9F9F9;}
	.st72{fill:#D0D0D0;}
	.st73{fill:#FCFCFC;}
	.st74{fill:#1E1E1D;}
	.st75{fill:#202020;}
	.st76{fill:#191919;}
	.st77{fill:#303030;}
</style>
<g>
	<path class="st0" d="M215.5,197c-0.4,0-0.8,0-1.2,0c-2.2-0.4-4.3-0.1-6.5-0.2c-0.4,0-0.8-0.2-1.2-0.2c-4.3-0.8-8.7-1.4-12.9-2.9
		c-6.4-2.2-12-5.7-16.1-11.2c-1.6-2.1-2.2-2.1-3.7-0.1c-0.7,1.2-1.7,2.2-2.9,2.9c-0.9,0.3-1.6,0.9-2.2,1.6c-0.1,0.1-0.2,0.2-0.4,0.3
		c-0.5,0.3-1,0.7-1.5,1c-1.1,0.8-2.2,1.4-3.2,2.3c-0.1,0.1-0.3,0.2-0.4,0.3c-1.4,0.9-3.2,1.2-4.4,2.4c-1,0.8-2.1,1.1-3.3,1.2
		c-3.1,0.2-6,1.4-9,1.8c-6.4,0.8-12.7,0.4-19.1-1.2c-4-1-7.9-2.3-11.5-4.2c-5.9-3.2-10.3-7.8-13.4-13.7c-0.4-0.7-0.8-1.5-1.2-2.2
		c-2.1-5.7-3.6-11.6-3.7-17.8c0-1.9,0.4-3.7,0.8-5.5c0.3-1.2,1-2.2,2.1-2.9c2.7-2.2,5-4.8,7.3-7.3c0.1-0.1,0.2-0.3,0.3-0.4
		c1.6-1.7,3.3-3.4,4.9-5c0.5-0.5,1.1-1.1,1.3-1.8c0.6-1.1,1.2-2.1,2.4-2.5c2-1,3-3.1,4.6-4.6c-0.1-1.3-1.2-0.9-1.9-1
		c-1.8-0.1-3.7,0-5.5,0c-1.8,0-3.7,0-5.5,0c-5.1,0.1-7.7-2.3-8.4-5c-0.6-2.5-0.8-5.1-0.5-7.7c0.6-4.6,1.5-9.1,3.3-13.4
		c1.8-4.6,4.7-8.5,8.2-12c4.3-4.5,8.5-9.1,12.9-13.5c0.5-0.6,1-1.1,1.4-1.8c0.4-0.7,0.7-1.4,1.3-1.9c6.8-6.8,13.2-13.9,19.9-20.8
		c0.4-0.4,0.8-0.8,1.3-1.1c0.7-0.3,1-0.8,1.2-1.5c0.1-0.2,0.1-0.3,0.2-0.4c0.3-0.5,0.7-1,1-1.4c0.3-0.5,0.6-1,1.2-1.2
		c0.4-0.1,0.6-0.3,0.9-0.7c0.1-0.1,0.2-0.2,0.4-0.3c1.5,1.2,3.2,1.2,5,0.9c0.3,0,0.6,0.2,0.8,0.4c0.9,1.4,0.6,1.8-1.5,2.6
		c-0.6,0.1-0.8,0.4-0.6,1c0.2,2.2-1.4,3.8-2,5.7c-0.9,3-2.1,5.9-1.9,9.1c0,0.9-0.4,1.6-0.6,2.4c-0.4,1.1-0.7,2.3,1,2.7
		c5.1-0.4,10.2-0.1,15.3-0.2c1,0,1.9,0.1,2.9-0.1c0.2-0.1,0.4-0.1,0.5-0.2c1.3-0.7,0.4-2.2,1.2-3.1c0.3-0.6,0.3-1.2,0.3-1.8
		c0-0.4,0-0.8,0.1-1.1c0.4-0.8,0.6-1.7,1.1-2.5c0.2-0.3,0.5-0.4,0.8-0.4c1.6,0.7,1.5,2.6,2.6,3.6c0.7,0.6,1.1,1.3,2.1,1.5
		c0.8,0.1,1.5,0.6,1.5,1.5c0.1,3.6,0.4,7.3-0.2,10.9c-1.1,1.4-2.5,0.9-3.9,0.8c-0.3-0.1-0.6-0.6-0.7,0.1c-0.1,0.5,0.2,1.1,0.2,1.6
		c0,2.9,0.2,5.8-0.1,8.6c-0.1,0.4-0.4,0.6-0.8,0.8c-5.1,1.9-8.1,6.3-11.4,10.3c-0.3,0.3-0.5,0.8-0.6,1.2c-0.2,1.6-1,2.6-2.8,2.5
		c-1.2,0-1.2,1.2-1.9,1.7c-1.5,0.5-3,0.2-4.5,0.3c-0.7,0.1-1.5-0.1-2.2,0.3c-0.5,0.3-1,0.6-1.3,1c-1,1.5,0,2.9,0.1,4.4
		c0.6,1.6,0.4,3.4,1,5.1c0,0.5-0.2,1-0.4,1.5c0,0.1-0.1,0.2,0,0.3c0-0.2,0.1-0.4,0.3-0.4c1.4,1.3,1.2,3.3,2.1,4.8
		c1.1,2.8,2.7,5.3,4.9,7.3c0.4,0.4,0.9,0.9,1.3,1.4c1.2,1.3,2.6,2.3,4.1,3.1c0.2,0.1,0.3,0.2,0.4,0.3c0.5,0.4,1.1,0.7,1.7,1
		c0.1,0.1,0.3,0.2,0.4,0.2c0.8,0.5,1.7,0.8,2.6,0.8c0.8,0.1,1.5,0.3,2.2,0.5c0.5,0.3,1.2,0.3,1,1.2c-1.1,0.7-1.9,0.1-2.8-0.3
		c2.6,1.1,5.5,1.3,8.1,2.1c3,0.9,5.9,0.7,8.8,0.7c3,0,5.9-0.5,8.7-1.2c2.8-0.7,5.7-1.4,8.2-3.1c0.9,0,1.6-0.3,2.2-1
		c0.7-0.7,1.4-1.3,2.4-1.6c0.9-0.3,1.5-0.8,2-1.6c0.8-1.2,1.6-1.4,2.9-0.7c-0.6-1.7,0.5-2.8,1.4-3.9c3-3.7,5-7.8,6-12.4
		c0.1-0.7,0-1.8,1.3-1.7c0.7,1,0.1,2.3,0.7,3.3c0.1,0.2,0,0.5,0.2,0.7c-0.2-0.2,0-0.4,0.1-0.6c1.1,0.1,0.8,1.1,1.2,1.7
		c0.5,0.8,0.4,1.8,1.1,2.6c1.5,2.1,2.2,4.8,4.1,6.7c1.6,2.6,4.2,4,6.3,6.1c0.5,0.9,1.4,1.1,2.3,1.5c0.2,0.1,0.3,0.2,0.4,0.3
		c0.6,0.5,1.3,0.8,2.1,0.9c0.2,0.1,0.3,0.1,0.5,0.3c0.3,0.3,0.4,0.6,0.7,0.9c1.4,1.1,3.2,1.2,4.9,1.6c3.6,0.9,7.3,1.1,11,1.3
		c0.8,0,1.7-0.1,2.4,0.4c0.3,2.3,0.3,2.4,2.9,2.3c1.5,0,2.9,0.3,4.4,0.4c1.5,0.1,2.2,0.9,2.2,2.4c-0.1,1.6,0.6,2.4,2.2,2.3
		c0.4,0,0.9-0.1,1.1,0.2c1.4,1.6,2.9,1.1,4.4,0.1c0.9,0.5,0.4,1.2,0,1.6c-4.7,4.6-8.7,9.9-13.8,14c-1.4,0.4-2,1.7-2.9,2.7
		c-1.6,1.7-3.4,3.3-4.6,5.3c-1.9,3-4.5,5.3-7.1,7.5c-1.1,0.4-1.5,1.3-2.2,2.1c-2.7,3-5.5,5.8-8.8,8.1c-0.6,0.4-1.2,0.9-1.7,1.6
		c-2.1,1.9-4.6,2.9-7.2,3.9c-3.9,1.4-7.8,2.5-11.9,2.6C216.5,196.6,216,196.7,215.5,197z"/>
	<path class="st1" d="M155.9,193.9c-3.7,1.6-7.7,2-11.6,2.7c-1.9,0.4-3.8,0.1-5.7,0.2c-0.7,0-1.4-0.2-2,0.2c-0.3,0-0.5,0-0.8,0
		c-0.4-1.1-1.4-0.6-2.1-0.7c-5.7-0.9-11.4-2-16.5-4.8c-6.9-3.7-12.1-8.9-15.3-16.1c-0.2-0.2-0.2-0.4,0.1-0.4c1.8,2.6,3.3,5.4,5.3,8
		c3,3.9,7,6.6,11.4,8.6c7.3,3.4,15.1,4.8,23.2,4.7c3.4,0,6.8-0.7,10.2-1.6C153.2,194.2,154.5,194.1,155.9,193.9z"/>
	<path class="st2" d="M247.1,28.6c1.2-0.5,2.5-0.6,3.8-0.8c0.6-0.1,1.4,0.2,1.6-0.8c0.3,0,0.5,0,0.8,0c1.7,0.4,3.5,0.1,5.3,0.2
		c0.7,0,1.4-0.2,2,0.2c1.8,0.5,3.7,0.3,5.4,1.1c-0.9,0.9-2.1,0.7-3.1,0.5c-4.3-0.9-8.5-0.5-12.8,0C249.1,29.2,248,29.4,247.1,28.6z"
		/>
	<path class="st3" d="M189.7,27c0,0.1,0,0.3,0,0.4c-2.5,0.9-5,0.6-7.5,0.2c-0.2-0.2-0.3-0.4-0.2-0.6C184.6,27,187.1,27,189.7,27z"/>
	<path class="st4" d="M136.5,197c0.4-0.9,1.2-0.4,1.8-0.4c2-0.1,3.9,0,5.9,0c0,0.1,0,0.3,0,0.4C141.6,197,139.1,197,136.5,197z"/>
	<path class="st5" d="M260.6,27.4c-2.2,0-4.3,0-6.5,0.1c-0.3,0-0.8,0.2-0.9-0.4c2.4,0,4.9,0,7.3,0C260.6,27.2,260.6,27.3,260.6,27.4
		z"/>
	<path class="st6" d="M207.4,196.7c2.2-0.3,4.3-0.1,6.5-0.1c0.3,0,0.5,0.2,0.5,0.5c-2.3,0-4.6,0-6.9,0c-0.1-0.1-0.1-0.1-0.1-0.2
		C207.4,196.7,207.4,196.7,207.4,196.7z"/>
	<path class="st7" d="M207.4,196.7c0,0.1,0,0.2,0,0.3c-0.3,0-0.5,0-0.8,0c-0.6-0.7-1.7,0-2.3-0.8c0.8-0.4,1.5-0.3,2.3,0
		C206.9,196.4,207.2,196.5,207.4,196.7z"/>
	<path class="st8" d="M182,27c0,0.1,0,0.3,0,0.4c-0.9,1-1.9,1.2-3.1,0.4c0.5-0.7,1.5-0.1,1.9-0.8C181.2,27,181.6,27,182,27z"/>
	<path class="st9" d="M175.8,28.6c0.1-0.1,0.2-0.1,0.3-0.1c2.2-0.3,4.4-0.6,6.6-0.7c1.6,0,3.2,0,4.8,0c0.9,0,1.7-0.1,2.6,0.1
		c0.5,0.2,0.6,0.5,0.4,0.9c-0.1,0.2-0.2,0.3-0.3,0.5c-0.5,1.7-0.1,2.9,1.3,3.2c1.5,0.3,2.9,0.6,4,1.9c0.2,0.2,0.6,0,0.9,0
		c0.2,0,0.3,0.1,0.5,0.1c0.5,0.3,0.8,0.9,1.4,1.1c2,0.3,3.6,1.7,5.5,2.1c0.9,0.1,1.5,0.9,2.2,1.3c0.4,0.2,0.8,0.6,1.4,0.5
		c0.5-0.2,0.8-0.6,1.3-0.7c0.2,0,0.3,0,0.5,0c0.5,0.2,1.1,0.3,1.5-0.3c0.7-1.3,0.4-1.9-1.1-2.1c-0.6-0.1-1.3,0.2-1.5-0.7
		c-0.1-0.5,0.1-1,0.5-1.3c0.7-0.5,1.2,0.1,1.7,0.4c3.7,2.6,7,5.6,9.4,9.5c1.1,1.7,1.5,1.7,2.7,0c2.8-4.1,6-7.6,10.3-10.2
		c0.4-0.3,0.9-0.5,1.2-1l0,0c2.7-1.5,5.6-2.4,8.5-3.5l0,0c1-0.1,2-0.4,3-0.4c0.4,0,0.8-0.1,1,0.4c0.1,0.5-0.2,0.8-0.6,0.8
		c-0.9,0.2-1,0.4-0.5,1.3c0.3,0.4-0.4,0.8-0.9,1c-0.7,0.3-1.6-0.1-2.2,0.4c-0.1,0.1-0.2,0.2-0.2,0.3c-0.2,0.9-0.1,1.8-0.4,2.9
		c1.4-0.5,2.7-0.6,3.8-1.5c1.2-1,2.7-0.7,4-0.7c1.5,0,3,0,4.4-0.2c4.6-0.6,9.1,0.2,13.6,0.6c1.5,0.1,2.9,0.6,4.1,1.6
		c0.3,0.3,0.8,0.5,0.6,1.1c-0.2,0.5-0.7,0.4-1.2,0.4c-0.5-0.1-1-0.2-1.5-0.3c-0.2-0.1-0.4-0.1-0.5-0.2c-1.6-0.8-3.4-0.8-5.2-0.9
		c-0.2,0-0.4-0.1-0.6-0.1c-3.9-0.9-7.7-0.8-11.6-0.1c-0.2,0.1-0.4,0.1-0.6,0.2c-2.9,0-5.6,0.9-8.2,1.8c-1,0.4-1.9,0.8-2.8,1.3
		c-0.1,0.1-0.3,0.2-0.4,0.2c-0.7,0.2-1.3,0.7-1.9,1.1c-0.7,0.4-1.3,0.7-1.9,1.2c-1.3,0.9-2.3,2.1-3.4,3.3c-0.5,0.4-0.9,0.8-1.2,1.4
		c-1.8,1.8-2.8,4.1-3.9,6.3c-0.4,0.8-0.5,1.9-1.5,2.4c-0.2,0-0.3-0.2-0.4-0.4c0,0.1,0,0.1,0,0.2c0.1,0.5,0.4,0.9,0.4,1.4
		c0,0.2,0,0.4-0.1,0.6c-1,2.4-0.7,5-0.9,7.5c-0.3,1.3-0.7,2.6,0.5,3.7c0.7,0.5,1.8,0.1,2.4,0.9c0.1,0.2,0.2,0.3,0.2,0.5
		c-0.1,2.3,0.5,3.8,3.2,3.7c1.1,0,1.5,1.1,1.5,2.1c0.1,1.6,0.1,3.2,0,4.8c0,1.4,0.5,2.2,2,2.1c1.7-0.1,2.7,0.8,2.6,2.5
		c0,1.4,0.6,2.1,2,2.1c1.7-0.1,2.6,0.8,2.6,2.6c0,1.2,0.5,1.7,1.7,2.2c1.8,0.6,3.6,1.6,5,3c2.5,1,2.5,1,2.6,4c0,2.1,0.1,2.1,2.2,2.2
		c1.5,0,3,0,4.4,0c2,0.1,2.6,0.6,2.6,2.5c0,1.6,0.5,2.1,2.1,2.1c2,0,2.5,0.6,2.5,2.8c0.1,2.7,0,5.5,0.1,8.5c1.2-0.9,0.9-2.2,1.5-2.9
		c0.3-0.6,1-0.8,1.4-1.3c0.2-0.3,0.3-0.6,0.4-0.9c0.3-0.6,0.6-1.2,0.6-2c0-0.8,0.2-1.5,0.3-2.2c0-0.6,0-1.2-0.4-1.6
		c-0.8-1.1-0.7-2.1-0.1-3.2c0.3-0.6-0.1-0.9-0.5-1c-0.6-0.1-1.1-0.1-1.7-0.1c-1.9-0.1-2.4-0.4-2.5-2.4c-0.1-1.4-1-2.4-1.4-3.7
		c-0.5-0.3-1-0.5-1.6-0.7c-0.9-0.4-1.6-0.3-2,0.7c-0.3,0.9-1,1.4-1.9,1.2c-1.1-0.3-1.3-1.1-1.2-2.1c0-1.3-1-0.7-1.6-0.7
		c-1.9,0.1-3.8,0.5-5.7-0.1c-1.3-0.2-1.7-1.2-1.8-2.4c-0.1-1.7,0.2-3.3,0.2-5c0,0.5,0.1,1.1-0.2,1.6c-0.1,0.3-0.4,0.6-0.7,0.6
		c-0.5,0-0.6-0.4-0.7-0.8c-0.3-1.8-0.2-3.6,0-5.4c0-0.2,0.1-0.5,0.2-0.5c1.7-0.8,1.1-2.4,1.1-3.7c0-1.4,0.3-1.6,1.7-0.9
		c0.8,2.7,0.1,5.5,0.3,8.2c0.1,1.3,0,2.7,0.1,4c0.1,1.4,0.7,2.1,2.3,2.1c3.9,0,7.7,0.6,11.5,1.6c2.1,1,4.2,1.9,5.7,3.8
		c1.5,1.9,2.5,4,2.6,6.4c-0.3,1.8-0.3,3.7,0,5.5c-0.6,5.6-3,9.8-8.3,12.2c-0.7,0.3-1.4,0.5-2.1,0.9c-2,0.7-4.1,0.4-6.1,0.3
		c-1.5-0.5-3.1-0.8-4.6-1.4c-1.1-0.6-2.1-1.4-3.1-2.3c-0.8-0.9-1.5-1.8-2.1-2.8c-0.1-0.2-0.2-0.3-0.3-0.5c-1.4-3.1-2-6.3-2.2-9.6
		c0-0.5-0.2-1-0.5-1.4c-0.3-0.4-0.8-0.4-1.2-0.4c-5.3,0-10.5,0-15.8,0c-0.4,0-0.8,0-1.1,0.2c-0.2,0.1-0.3,0.3-0.5,0.4
		c-0.2,0.1-0.4,0.1-0.6,0.1c-0.5-0.4-0.8-0.9-1.1-1.5c-0.2-0.8-0.2-1.6-0.2-2.4c-0.3-4.2-2.1-7.7-4.5-11c-1.9-2.7-4.4-4.6-7.2-6.2
		c-1.3-0.8-1.3-1.2-0.2-2.3c1.4-1.4,3.5-2.2,4.4-4.1c0.1-0.3,0.5-0.5,0.8-0.5c2.3-0.2,2.9-1.7,2.9-3.7c0.1-4,1.4-7.8,1-11.9
		c-0.3-2.9-0.6-5.9-2-8.6c-0.5-0.6-0.8-1.4-1.3-2c-0.3-0.4-0.6-0.8-0.7-1.3c0-0.4-0.2-0.5-0.5-0.5c-1.6-1.8-3-4-4.9-5.6
		c-0.5-0.6-1.3-0.9-1.9-1.4c-1.9-1.4-3.9-2.6-6.1-3.3c-1.2-0.7-2.5-0.8-3.7-1.4c-1.6-0.6-3.2-0.6-4.8-0.9c-0.8-0.4-1.7-0.6-2.6-0.5
		c-3.3,0.2-6.7-0.5-10,0.5c-1.7,0.4-3.6,0.3-5.2,1c-0.2,0.1-0.3,0.2-0.5,0.2c-1.1,0.1-2.1,0.5-3.1,0.7c-0.5,0-1,0-1.2,0.5
		c-2,1.5-4.5,2.4-6.3,4.2c-0.1,0.1-0.2,0.2-0.4,0.3c-0.5,0.3-0.9,0.7-1.2,1.2c-0.1,0.1-0.2,0.3-0.3,0.4c-1.3,1.1-2.3,2.4-3.1,3.9
		c-0.1,0.2-0.2,0.3-0.3,0.4c-1.6,2.4-2.7,5-3.3,7.8c-0.8,1.6-1,3.4-1.2,5.1c-0.3,1.5-0.4,3-0.3,4.5c0,0.7,0.1,1.4-0.5,1.9
		c-1.4-0.2-1.7-1.8-1.4-2.3c1.4-1.9,0.8-4.1,1.1-6.1c0.7-3.8,2.1-7.2,3.7-10.7c0.3-0.6,0.2-0.9,0-1.4c-0.3-0.7,0.5-0.8,0.8-1.2
		c1-0.2,2.5-0.1,1.5-1.9c-0.1-0.2,0,0.1-0.1-0.2c-0.4-0.8-0.6-1.7,0.3-2.2c0.9-0.5,1.2,0.6,1.7,1.1c1.2-0.8,0.4-2,0.6-3
		c0.1-0.4-0.5-0.4-0.9-0.4c-0.8,0.1-1.5,0.3-2.2,0.6c-1.1,0.4-2,0.3-2.6-0.8c0.1-0.9,1.1-1.3,1.3-2.1l0,0c1.5-1.2,3.2-2.2,4.6-3.6
		l0,0c1.5-0.7,2.8-1.7,4.3-2.4c0.3-0.1,0.5-0.1,0.8,0.1c0.2,1-0.6,1.3-1.2,1.7c-0.8,0.5-1.6,0.9-2.3,1.5c-0.5,0.4-0.4,0.9,0,1.3
		c0.2,0.2,0.6,0.1,0.6-0.2c0.1-2.4,2.5-2.5,3.7-3.8c0,0-0.6-0.2-0.8-0.4c-0.2-0.9,0.8-0.8,1.1-1.2c0-0.1,0.1-0.1,0.2-0.1
		c1.2-0.3,2.5-0.6,3.6-1.1l0,0C172.7,29.4,174.4,29.3,175.8,28.6z"/>
	<path class="st10" d="M173.2,136.7c-0.4-0.2-0.8-0.5-1.2-0.7c-0.4-0.5-1.1-0.5-1.6-0.8c-0.4-0.2-1-0.1-1-0.6c0-0.6,0.6-0.7,1-0.9
		c2.5-1.3,4.9-2.6,7.1-4.4c1.4-1.2,2.7-2.6,4-3.8c0.6-0.6,1.4-1.3,0.5-2.3c-0.2-0.2,0.1-0.5,0.3-0.6c1.6-0.5,3.3-0.3,5-0.3
		c5,0.1,9.8-3.8,11.7-8.1c1.5-3.3,1.7-6.8,1.3-10.3c-0.1-0.5-0.1-0.9,0.1-1.3c0.4-1,1.2-1.6,2-2.3c0.8-0.7,1.4-1.4,1.9-2.4
		c1.2-2.2,2.8-2.1,4.6-0.4c2.8,2.7,5,5.9,8.2,8.2c1.2,0.9,2.4,1.9,3.3,3.2c-0.3,7-2.7,13.1-7.3,18.4c-1.7,1.9-3.8,3.4-5.6,5.2
		c-0.2,0.3-0.4,0.6-0.7,0.9c-0.6,0.4-1.2,0.7-1.8,1.1c-0.1,0.1-0.3,0.2-0.5,0.2c-0.8,0.3-1.6,0.6-2.3,1c-0.2,0.1-0.3,0.2-0.5,0.2
		c-1,0.4-2.1,0.7-3.1,1.1c-1.7,0.5-3.4,0.8-5.1,1.2c-4.7,0.6-9.4,0.5-14.1,0C177.2,137.8,174.9,138.1,173.2,136.7z"/>
	<path class="st9" d="M159.6,103.5c-0.2-1.6,0.6-2.1,2-1.9c1.1,0.1,1.8-0.2,1.9-1.5c0.1-1.6,1.3-2.7,2.3-3.9c2.5-3,5.1-6,8.6-8
		c0.7-0.4,1.4-0.6,2.2-0.5c1,1.3,0.3,2.7,0.6,4.1c0.5,1.5,1.6,2.1,3,1.7c0.9-0.3,1.7-0.4,2.6,0.1c0.2,0.1,0.5,0.4,0.6,0.2
		c1.5-1.6,3-0.7,4.5,0c0.7,0.3,1.5,0.3,2.3,0.3c1.2,0.1,2.4,0.2,2.2,1.9c-0.1,0.7,0.4,0.4,0.7,0.5c3.1,0.4,5,2.6,5.6,5.7
		c0.4,2.3,0.8,4.6,0.9,7c0.1,0.5-0.1,0.9-0.3,1.3c-0.4,0.6-0.3,1.3-0.2,2c-0.9,2.9-2.5,5.3-4.8,7.2c-0.1,0.1-0.3,0.2-0.4,0.3
		c-0.6,0.3-1.3,0.7-1.9,1.1c-0.2,0.1-0.4,0.1-0.5,0.2c-2.9,1.2-5.9,1.3-9,0.9c-1.1-0.2-2.2-0.6-3.2-1c-0.2-0.1-0.3-0.1-0.5-0.2
		c-0.6-0.4-1.2-0.8-1.8-1.1c-0.2-0.1-0.3-0.2-0.4-0.3c-2-1.9-3.5-4.1-4.1-6.8c0.2-0.7-0.1-1.3-0.5-1.9c-0.6-1.5-1-3-0.9-4.6
		c0.1-1-0.3-1.6-1.2-1.9c-2.2-0.8-4.5-0.2-6.8-0.4C161.9,103.9,160.7,104.4,159.6,103.5z"/>
	<path class="st11" d="M200.5,102.4c0.2,2.3,0.1,4.6,0.1,6.8c0,6.8-7,14.3-14.2,13.7c-1.5-0.1-2.9,0-4.4,0c-0.4,0.3-1,0.4-1.3,1
		c-1.4,3.5-4,5.9-7.6,7.2c-0.9,0.3-1.6,0.8-1.8,1.8c-0.1,0.5-0.4,0.9-0.9,1.2c-0.3,0.2-0.6,0.4-0.8,0.6c0.7,0.5,1.9,0.2,2.3,1.4
		c-0.7-0.2-1.5-0.3-2.2-0.5c-0.9-0.4-2-0.5-2.7-1.2l0,0c-0.7-0.3-1.4-0.6-2-1.2l0,0c-1.6-0.8-3-1.8-4.1-3.2
		c-4.7-4.7-7.5-10.5-8.6-17.1c-0.4-2.1,0-4.2-0.5-6.3c-0.2-1.1,0.6-1.7,1.6-1.7c5.2-0.1,10.4-0.1,15.6,0c1.3,0,1.7,0.9,1.8,2
		c0.3,2.9,0.6,5.8,2.2,8.3c1.2,1.6,2.2,3.3,3.8,4.5l0,0c0.6,0.4,1.4,0.6,1.9,1.2l0,0c1.2,0.4,2.4,0.9,3.7,1.1
		c3.3,0.7,6.5,0.1,9.5-1.1l0,0c0.6-0.5,1.3-0.8,2-1.1l0,0c1.9-1.7,3.6-3.5,4.6-6c0.6-1.7,1.1-3.4,1.1-5.2c0-1.5,0.1-2.9,0-4.4
		c-0.2-3.3-1.4-6.1-4.1-8.1c-1.2-1.1-3-1.3-4-2.7c0-0.2,0-0.4,0.1-0.5c2-0.5,3.4,0.8,4.8,1.8c1.1,0.7,1.9,1.5,3.4,1
		c0.9-0.3,1.5,0.2,1.4,1.2c0,0.2-0.1,0.4-0.2,0.5c-0.3,0.4-0.7,0.8-1.3,0.7c0.1,0.6,0.6,0.9,0.7,1.5c0.1,0.4,0.3,0.9,0.4,1.3
		C200.9,101.5,200.8,101.9,200.5,102.4z"/>
	<path class="st9" d="M279.9,145.3c-0.7,0.8-1.3,1.7-2.2,2.3c-1.4,0.1-1.7,1.6-2.9,2.2c-0.7-1.7-2-2.5-3.9-2.2
		c-1.5,0.2-1.9-0.7-1.8-2c0.3-1.9-0.4-2.7-2.5-2.7c-1.6,0-3.3-0.3-4.9-0.3c-0.7,0-1.6,0.3-2.1-0.6c-0.4-0.9,0.3-1.4,0.6-2.1
		c2.3-1.2,4.8-1.4,7.2-1.6c1,0.4,1.9,0.3,2.5-0.7c0.4-0.4,0.9-0.7,1.5-0.8c4-1.1,7.2-3.5,10.3-6c0.4-0.3,0.7-0.8,0.8-1.3
		c0.6-1.3,1.7-2.2,2.5-3.3c2.2-2.5,3.8-5.3,4.5-8.6c2.5-7.4,3-14.9-0.1-22.3c-0.2-0.5-0.4-1.1-0.6-1.6c-0.3-1.6-1.9-2.6-2.1-4.3
		c0.1-0.3,0.3-0.5,0.6-0.5c2,1,2.5,3.1,3.7,4.7c0.4,0.6,0.8,1.3,1.1,2c0.2,1.2,0.1,2.4,0.6,3.5c0.5,1,0.3,2.3,1,3.2
		c0.5,1.8-0.1,3.6,0.3,5.4c-0.6,3.7-1.5,7.3-2.5,10.9c-0.3,1,0.3,1.2,1.2,1.3c1.3,0.1,2.5-0.2,3.8,0c0.6,0.5,0.5,1.3,0.7,1.9
		c-1.6,5.4-4.9,9.8-8.5,14c-1.1,1.2-2.4,2.1-3.2,3.6l0,0C283.9,141.2,281.6,143,279.9,145.3z"/>
	<path class="st9" d="M181.2,76.1c0-3.4,0-6.8,0-10.2c0-1.2-0.2-2-1.6-1.8c-0.9,0.1-1.3-0.7-1.9-1.3c-1.3-1.2-1.1-3.2-2.7-4.1
		c0-2.1,1.6-4.5,4.1-5.2c1.9-0.6,3.7-1.1,5.8-1.2c2.7-0.1,5,0.7,7.2,2.1c1.8,1.2,3.2,2.7,3.7,4.9c0.7,3.4,1.6,6.8,0.1,10.2
		c-1.2,2.7-2.6,5.1-5.8,5.9c-1.9,0.5-3.8,1.2-5.7,1.5C183.3,77,182.1,77.2,181.2,76.1z"/>
	<path class="st12" d="M235.6,132.8c-2.2-1.9-4.7-3.5-6.2-6c-2.2-3.3-4.1-6.7-5.1-10.6c0.2-1-0.6-2.3,0.9-2.9
		c1.2,1.9,2.3,3.8,4.4,4.9c1.2,0.6,1.8,1.9,2.7,2.9c2.3,2.6,5.3,4.1,7.9,6.4c1.2,1.1,2,2.4,3.3,3.4c1.4,1,3.1,1.7,3.7,3.5
		c0.1,0.2,0.4,0.4,0.6,0.4c1.8,0.5,3.6,1.4,5.4,1.8c2.2,0.2,4.5-0.4,6.8,0.5c-0.5,1-1.2,0.9-1.9,1c-4.1,0.1-8.3,0.1-12.3-1.2
		c-0.7-0.2-1.5-0.4-2.3-0.4c-1,0-1.8-0.4-2.5-1l0,0c-0.9-0.4-2-0.4-2.7-1.2l0,0C237.5,133.8,236.3,133.6,235.6,132.8z"/>
	<path class="st2" d="M121.4,127.5c0.6-1.2-0.2-1.2-1.1-1.2c-4,0-8,0.1-11.9,0c-3.2-0.1-6.1-1-7.8-4.1c-0.8-1.5-1.2-3.1-1.1-4.8
		c0.3-9.6,2.5-18.6,8.8-26.1c5.5-6.6,11.7-12.6,17.7-18.8c-0.1,0.7-0.5,1.3-1,1.8c-5,5.3-10.1,10.5-15.1,15.9
		c-3.1,3.3-5.4,7.1-6.8,11.4c-1.7,4.9-2.9,9.9-2.8,15.1c0,1.8,0.1,3.6,1,5.2c1.5,2.8,4.1,3.6,7.1,3.6c2.1,0.3,4.1,0.3,6.2,0
		c2.3,0.2,4.7-0.3,7,0.3c1.5,0.4,1.3,0.9,0.3,1.7C121.7,127.6,121.6,127.6,121.4,127.5z"/>
	<path class="st13" d="M181.2,76.1c2.6,0.7,5,0.2,7.4-0.9c1.4-0.6,3-0.4,4.2-1.6c2.2-2.4,3.7-5.2,3.4-8.4c-0.2-3-0.2-6.3-2.5-8.8
		c-2.9-3.2-7.9-4.3-12.5-2.8c-2.2,0.7-4,1.4-5.2,3.2c-0.4,0.6-0.6,1.3-0.9,1.9c-0.1,0.1-0.3,0.3-0.4,0.4c-0.1,0-0.2-0.1-0.3-0.1
		c-0.2-0.2-0.4-0.4-0.4-0.7c0.1-1.5,1.3-2.4,2.1-3.6c0.1-0.2,0.3-0.3,0.5-0.4c3.8-3,8.1-3.1,12.6-2.4c0.7,0.1,1.4,0.4,2.1,0.5
		c2.1,0.7,3.7,1.9,4.5,4c1.7,4.2,2.6,8.5,1.2,13c-0.3,1-0.7,1.9-1.1,2.8c-0.1,0.2-0.2,0.3-0.3,0.5c-0.6,0.7-1.3,1.3-1.9,2
		c-0.2,0.2-0.4,0.4-0.6,0.6c-0.5,0.4-1.1,0.7-1.7,0.9c-0.7,0.1-1.4,0.5-2.1,0.8c-1,0.4-2.1,0.5-3.2,0.5c-0.8,0-1.6,0-2.4,0.2
		c-0.6,0.1-1.2,0.1-1.9,0.2c-0.8,0-1.7,0-2.5-0.1c-0.6-0.1-1.2-0.3-1.8-0.5c-0.3-0.2-0.5-0.4-0.4-0.7
		C178.4,76.4,179.9,76.8,181.2,76.1z"/>
	<path class="st13" d="M283,129.4c-0.3,2-2.1,2.9-3.5,3.7c-2.7,1.7-5.3,3.9-8.7,4.3c-0.2,0-0.4,0.3-0.6,0.5
		c-0.7,0.4-1.4,0.9-2.3,0.8c-2.6-0.1-5.1,1-7.7,1.2c-3.1,0.3-6.3-0.3-9.4-0.5c-2.9-0.2-5.7-1.2-8.5-2c-0.4-0.1-1.1-0.3-1.1-1
		c0.8-0.6,1.7,0.2,2.5,0.1c0.2,0,0.4,0.1,0.5,0.2c1.7,0.9,3.6,0.7,5.4,1.2c3.1,0.4,6.3,0.2,9.4,0.3c2,0,4-0.1,5.9-0.6
		c0.6,0,1.3,0.1,1.8,0.4c0.6,0.3,0.1-0.2,0.2-0.3c0.5-0.9,1.6-0.7,2.2-1.3c0.5-0.3,1.1-0.5,1.7-0.8c3.4-1.2,6.4-3.1,9.4-5
		C281.4,130.5,281.8,129.2,283,129.4z"/>
	<path class="st14" d="M193.5,137.8c1.7-0.4,3.3-0.8,5-1.1c1.1-0.3,2.3-0.3,3.1-1.2l0,0c0.7-0.2,1.4-0.6,2.2-0.7
		c0.2,0,0.4,0.1,0.5,0.3c-3.2,2.5-7,3-10.8,3.9c-3.5,0.8-7,0.4-10.4,1c-0.6,0.1-1.3,0.2-1.7-0.1c-2.2-1.7-5.2-0.4-7.4-2.1
		c-0.6-0.4-1.5,0.7-2.1-0.3c-1.3,0.8-1.3-0.7-2-1.2c1.2-0.1,2.2,0.6,3.3,0.3c1.9,0.4,3.8,0.8,5.7,1.1
		C183.8,138.8,188.7,138.8,193.5,137.8z"/>
	<path class="st15" d="M173.2,115.9c-1.7-1.4-1.9-3.5-2.3-5.4c-0.3-1.3-0.3-2.7-0.4-4c-0.1-0.9-0.6-1-1.3-1c-5.2,0-10.4,0-15.6,0
		c-0.9,0-1.3,0.4-1.2,1.3c0.6,3.3,0.4,6.7,1.4,10c1.4,4.6,3.6,8.7,6.9,12.2c0.4,0.4,0.7,0.8,0.8,1.3c-0.6,0.3-0.8-0.1-1.1-0.5
		c-0.4-0.4-0.7-0.8-1.1-1.1c-2.2-2.3-3.8-4.9-5-7.8c-1.7-4.4-2.8-8.9-2.8-13.7c0-2.3,0.6-3,3-3c4.7-0.1,9.4-0.1,14.1,0
		c2.4,0,2.9,0.6,2.9,3c0,2.3,0.8,4.5,1.4,6.7C173,114.5,173.5,115.1,173.2,115.9z"/>
	<path class="st9" d="M155.4,39.8c0.8,0.8,1.5,1,2.6,0.4c0.7-0.4,1.7-0.6,2.5-0.7c0.9,0,1.4,0.2,1.1,1.5c-0.3,1.5-0.1,3-2.2,3.4
		c-0.2-0.1,0-0.3,0.1-0.5c0.6-0.7,0-1.1-0.5-1.2c-0.7-0.1-0.5,0.6-0.5,1c0,0.4,0,0.8,0,1.2c-0.9-0.5-1.8-0.7-2.6,0.2
		c-0.9,0.9-1.5,0.4-1.9-0.5c-0.3-0.6-0.3-1.3-1.3-0.8C152.6,42.3,153.8,40.5,155.4,39.8z"/>
	<path class="st16" d="M224.8,116.3c0.9,3.3,2.2,6.4,4.1,9.3c0.3,0.4,0.6,0.7,0.5,1.2c-2.1-1.8-2.7-4.4-4.1-6.6
		c-1.7-3.9-2.4-8-2.9-12.1c-0.1-1.4-0.3-2.9,1.3-3.6c3.7-0.5,7.4-0.1,11.1-0.2c1.9,0,3.7,0,5.6,0c1,0,1.9,0.4,2,1.6
		c0.2,3.5,0.9,6.9,2.4,10.2l0,0c0.3,0.5,1.1,0.9,0.2,1.6c-0.9-0.1-1.2-0.8-1.6-1.5c-1.3-2.5-2.1-5.2-2.2-8.1c-0.1-1.4-0.6-1.9-2-1.9
		c-4.3,0-8.7,0-13,0c-1.3,0-2,0.4-2,1.9C224.3,110.7,224.5,113.5,224.8,116.3z"/>
	<path class="st9" d="M204.4,135.2c-0.1,0-0.3,0-0.4,0c-0.2-0.4,0.2-0.6,0.3-0.9l0,0c0.7-0.3,1.4-0.6,2-1.1c0.1-0.2,0.3-0.4,0.4-0.6
		c1.7-1.5,3.6-2.8,5.3-4.4c2.7-2.1,4.3-5,5.8-8c1.3-2.6,1.9-5.4,2.6-8.2c0.1-0.4,0.2-0.9,0.6-1.2c0.4-0.1,0.7,0.2,0.9,0.5
		c0.2,0.2,0.3,0.4,0.2,0.7c-1.1,1.1-0.5,2.7-1,4c-1.3,3.2-2.7,6.3-4.5,9.2c-0.7,1-1.7,1.8-2.4,2.9c-0.3,0.5-0.7,0.9-0.2,1.5
		c0.6,0.8,0,1.3-0.6,1.5c-1.1,0.2-0.2-0.9-0.6-1.3c-1,0.5-2.2,0.8-2.1,2.3c0,0.4-0.2,0.6-0.6,0.6c-1.9-0.3-2.9,1-4,2.1
		C205.5,135.6,205,135.6,204.4,135.2z"/>
	<path class="st17" d="M173.2,115.9c-1.3-3.1-2.1-6.3-2.1-9.7c0-1-0.5-1.3-1.4-1.3c-5.5,0-10.9,0-16.4,0c-1.3,0-1.5,0.7-1.5,1.8
		c0.1,5.1,1.2,9.9,2.9,14.6c-0.1,0.2-0.3,0.2-0.4,0c-1-1.5-1.1-3.4-1.9-5c-0.3-0.3-0.2-0.7-0.1-1.1c-1-1.7-0.6-3.7-1.1-5.5
		c-0.1-1.5-0.7-3.1,0-4.6c0.2-0.5,0.6-0.8,1.2-0.8c0.4-0.4,0.9-0.4,1.5-0.4c4.9,0,9.9,0,14.8,0c0.5,0,1,0,1.5,0.4
		c0.8,0,1.7-0.1,1.5,1.1c-0.2,2,0.5,3.9,0.8,5.9c0.4,0.4,0.5,1,0.4,1.5c0.8,2.7,2.5,4.9,4.2,7C175.1,119,174.4,117.2,173.2,115.9z"
		/>
	<path class="st18" d="M206.7,196.2c-0.8,0-1.5,0-2.3,0c-8-1.3-15.7-3.3-22.1-8.7c-1.7-1.4-3.3-2.9-4.6-4.6
		c-1.9-2.4-1.9-2.4-4.1-0.6c1-2.5,2.4-3,3.9-0.9c2.4,3.4,5.6,5.9,8.9,8.2c3.5,2.3,7.4,3.6,11.4,4.7
		C200.7,195.2,203.8,195,206.7,196.2z"/>
	<path class="st19" d="M101.9,175c0,0.1-0.1,0.3-0.1,0.4c-2.2-4.5-3.1-9.3-3.8-14.2c-0.4-2.7-0.7-5.5,0.3-8.2
		c0.2-0.6,0.1-1.3,0.8-1.7c-1.1,4.6-1,9.1,0.1,13.6C99.9,168.4,101,171.6,101.9,175z"/>
	<path class="st20" d="M170,104.3c-5.9,0-11.8,0-17.7,0c0.1-0.9,0.9-0.8,1.5-0.8c2,0,3.9,0,5.9,0c3.1,0,6.3,0,9.4,0
		C169.5,103.5,170.4,103.1,170,104.3z"/>
	<path class="st21" d="M152.7,68.4c0.2-2.2-0.3-4.4,0.4-6.6c0.5-0.1,0.6,0.3,0.8,0.6c0.2,0.7,0.1,1.4,0.2,2.1c0,2.9,0.1,3,3.1,3
		c4,0,8.1,0,12.1,0c0.8,0,1.5-0.1,2.3,0.1c0.2,0.1,0.4,0.2,0.6,0.4c-0.4,0.4-0.9,0.4-1.4,0.4c-5.8,0.1-11.6-0.3-17.4,0.2
		C153.1,68.6,152.9,68.5,152.7,68.4z"/>
	<path class="st18" d="M248.8,178.1c-3.8,4.4-7.7,8.7-12.8,11.6c0.8-1.5,2.4-2,3.6-3c2.8-2.3,5.3-4.9,7.6-7.7
		C247.6,178.5,248,178,248.8,178.1z"/>
	<path class="st13" d="M222.1,112c-0.1-0.1-0.3-0.3-0.4-0.4c-0.2-2.7-0.3-5.4,0-8.1c0.5,0.2,0.8,0.6,0.8,1.2c0.4,2.4,0,4.8,0.7,7.2
		c0.2,0.8,0,1.7,0.2,2.5c0.1,0.4,0.2,0.8-0.1,1.2c0,0.2,0,0.4,0,0.6c-0.2,0.5-0.3,0.1-0.4-0.1C221.7,114.8,222.2,113.4,222.1,112z"
		/>
	<path class="st22" d="M222.9,112c-0.6-2.4-0.4-4.9-0.4-7.3c0.1,0,0.2,0,0.4,0c0.3-0.2,0.6-0.2,0.9,0.1c-0.9,0.4-0.9,1.1-0.9,1.9
		c0.5,3.8,0.5,7.8,1.9,11.4c0.2,0.6,0.6,1.3,0.5,2c-1.3-1.3-1-3.2-2-4.6c0-0.4,0-0.8-0.1-1.2C222.8,113.6,223.3,112.7,222.9,112z"/>
	<path class="st18" d="M172,68c-0.2,0-0.3,0-0.5-0.1c-0.2-1.6-0.1-3.2,0-4.8c0.6-2.1,1-4.3,2.2-6.3c0.6-1,1.1-2.1,2.5-2.1
		c-0.1,1.5-1.7,2.1-1.9,3.5c-0.2,0.3,0,0.7-0.2,1c-0.2,0.9-0.6,1.8-0.7,2.8c-0.6,1.9-0.4,3.9-1,5.8C172.2,68,172.1,68,172,68z"/>
	<path class="st23" d="M171.1,69.1c-5.4,0-10.9,0-16.3,0c0-0.1,0-0.1,0-0.2c5.5,0,10.9,0,16.4,0C171.1,69,171.1,69,171.1,69.1z"/>
	<path class="st24" d="M263.4,162.7c-2.4,2.9-5,5.6-7.8,8.1c1.1-2.3,3.1-3.9,4.8-5.7C261.4,164.2,261.8,162.7,263.4,162.7z"/>
	<path class="st18" d="M101,149.1c2.2-2.8,4.8-5.3,7.3-7.8c0,0.2,0,0.6-0.1,0.7C105.8,144.4,103.7,147.1,101,149.1z"/>
	<path class="st25" d="M172.4,68c0-2.1-0.2-4.2,0.8-6.2c0.2-0.2,0.3-0.6,0.8-0.4c0,0.4,0,0.8,0,1.2c-0.5,0.6,0.1,1.4-0.4,1.9
		c-0.4,0.7-0.4,1.4-0.4,2.2C173.1,67.3,173.2,67.9,172.4,68z"/>
	<path class="st26" d="M176.6,92.3c0-1.5,0-3.1,0-4.6c0-3.2,0-6.4,0-9.7c0.3-0.1,0.5,0,0.6,0.2c0.6,1.6,0.3,3.3,0.3,4.9
		c0,2.7,0.1,5.5,0,8.2C177.3,91.8,177.3,92.3,176.6,92.3z"/>
	<path class="st21" d="M155.4,39.8c-1.1,1.1-2.4,2.1-2.7,3.9c0,0,0,0,0,0c-0.3,0.2-0.4,0.6-0.8,0.8c-0.6,0.2-0.7,0.8-1.1,1.2
		c-0.2-0.1-0.2-0.3-0.1-0.5c1.6-2.7,3.3-5.3,5.8-7.3C156.6,38.8,155.7,39.1,155.4,39.8z"/>
	<path class="st18" d="M108.3,141.3c2-2.5,4.3-4.8,6.6-7c0.1,1-0.7,1.4-1.3,2C111.8,138,110.4,140,108.3,141.3z"/>
	<path class="st0" d="M154.2,121.3c0.1,0,0.3,0,0.4,0c1.3,2.6,3,4.9,4.6,7.4C156.8,126.8,155.4,124.1,154.2,121.3z"/>
	<path class="st27" d="M121.4,127.5c0.1,0,0.3,0,0.4,0c-1.6,1.5-2.5,3.8-4.7,4.6C118.4,130.3,119.8,128.8,121.4,127.5z"/>
	<path class="st0" d="M160.4,129.8c0.4,0.2,0.7,0.3,1.1,0.5c1,1.3,2.5,1.8,3.6,3C163.1,132.6,161.6,131.5,160.4,129.8z"/>
	<path class="st27" d="M163.5,190.5c-1.4,1.2-2.9,1.9-4.7,2.4C160.1,191.5,161.9,191,163.5,190.5z"/>
	<path class="st27" d="M167,188.2c-1,1-2.1,1.8-3.5,2.3c0.7-1.4,2.3-1.8,3.4-2.8C167.2,187.9,167.2,188,167,188.2z"/>
	<path class="st28" d="M151.1,105.1c0,1.5,0,3.1,0,4.6C151,108.2,149.5,106.6,151.1,105.1z"/>
	<path class="st9" d="M173.9,61.4c-0.3,0.1-0.5,0.3-0.8,0.4c0.1-1,0.3-1.9,0.8-2.7c0.3,0.2,0.5-0.2,0.8,0c0,0,0,0,0,0
		C174.8,60,174.4,60.7,173.9,61.4z"/>
	<path class="st27" d="M114.5,125.5c-2.1,0.6-4.1,0.6-6.2,0C110.4,125.5,112.5,125.5,114.5,125.5z"/>
	<path class="st29" d="M244.1,136.7c-1,0.3-1.8-0.4-2.7-0.3c-0.1-0.3-0.2-0.5-0.4-0.8c0.7,0.2,1.4,0.3,2.1,0.5
		C243.5,136.2,244.1,136,244.1,136.7z"/>
	<path class="st2" d="M170.8,185c-0.6,0.8-1.3,1.6-2.3,2C168.9,185.9,169.8,185.3,170.8,185z"/>
	<path class="st30" d="M235.6,132.8c1,0.4,1.9,0.9,2.7,1.6C237.2,134.2,236.1,134.1,235.6,132.8z"/>
	<path class="st30" d="M238.3,134.4c1,0.3,1.9,0.6,2.7,1.2C239.9,135.6,238.9,135.5,238.3,134.4z"/>
	<path class="st0" d="M167,134.3c1,0.2,1.9,0.7,2.7,1.2C168.7,135.4,167.6,135.5,167,134.3z"/>
	<path class="st9" d="M177,78c-0.1,0-0.3,0-0.4,0c-0.5-1.3-0.5-1.3,0.4-1.5c0.1,0.1,0.3,0.3,0.4,0.4c0.2,0.3,0.1,0.6-0.1,0.9
		C177.2,77.9,177.1,78,177,78z"/>
	<path class="st1" d="M148.4,49c0.4-0.6,0.8-1.3,1.2-1.9C149.6,48,149.6,48.9,148.4,49z"/>
	<path class="st0" d="M165.1,133.2c0.8,0.2,1.5,0.5,2,1.2C166.2,134.4,165.4,134.1,165.1,133.2z"/>
	<path class="st1" d="M150.7,45.1c0,0.2,0.1,0.4,0.1,0.5c-0.4,0.5-0.5,1.3-1.2,1.5C149.9,46.4,150.3,45.8,150.7,45.1z"/>
	<path class="st31" d="M152.3,115.2c0,0.4,0,0.7,0.1,1.1c0,0.2,0,0.5-0.1,0.7C152,116.4,151.7,115.8,152.3,115.2z"/>
	<path class="st2" d="M167,188.2c0-0.2,0-0.3,0-0.5c0.5-0.2,0.9-0.9,1.6-0.7C168.2,187.6,167.7,188,167,188.2z"/>
	<path class="st9" d="M151.9,44.4c0-0.5,0.3-0.8,0.8-0.8C152.6,44.1,153,45,151.9,44.4z"/>
	<path class="st9" d="M173.5,64.5c0.1-0.7-0.3-1.4,0.4-1.9C173.8,63.2,174.2,64,173.5,64.5z"/>
	<path class="st9" d="M156.9,46.7c-0.3,0.4-0.5,0.8-0.8,1.2C155.5,46.9,156.4,46.9,156.9,46.7z"/>
	<path class="st32" d="M190.5,28.2c-0.9,0-1.8,0-2.7,0c-1.7-0.3-3.4-0.3-5,0c-2.2-0.3-4.4,0.7-6.7,0.3c0.9-0.2,1.9-0.5,2.8-0.7
		c1-0.1,2.1-0.2,3.1-0.4c2.6,0,5.1,0,7.7,0c1.8,0.5,3.7,0.4,5.4,1.1c-0.1,0.2-0.3,0.3-0.5,0.4c-0.2,0.1-0.4,0.1-0.6,0.1
		c-0.7,0-1.4,0-2.1-0.1C191.5,28.9,190.9,28.7,190.5,28.2z"/>
	<path class="st9" d="M161.1,34.3c-1.2,1.7-2.7,2.8-4.6,3.6C157.8,36.3,159.4,35.2,161.1,34.3z"/>
	<path class="st32" d="M175.8,28.6c-1.3,1.4-3,1-4.7,1.1C172.7,29.1,174.2,28.8,175.8,28.6z"/>
	<path class="st9" d="M165.4,32.1c-1.5,0.7-2.6,2-4.3,2.2c1.1-1.1,2.4-1.8,3.8-2.3C165.1,31.9,165.3,31.9,165.4,32.1z"/>
	<path class="st32" d="M171.2,29.7c-1,1-2.2,1.3-3.6,1.1C168.7,30.2,169.9,29.8,171.2,29.7z"/>
	<path class="st32" d="M165.4,32.1c-0.2,0-0.3-0.1-0.5-0.1c0.7-0.6,1.5-0.9,2.4-1.1c-0.2,0.6-0.9,0.7-1.2,1.1l0,0
		C165.9,32.1,165.7,32.1,165.4,32.1z"/>
	<path class="st0" d="M296.9,119.7c-1.6,0.7-3.3,0.4-4.9,0.3c-1.4-0.1-1-1.3-0.7-2c0.7-1.4,0.5-3,1.1-4.1c1.2-2.1,0.4-4.6,1.8-6.5
		c0.4-0.4,0.9-0.4,1.4-0.6c0.3-0.1,0.6-0.5,0.4-0.7c-1.2-1.1-0.9-3-2.2-4.1c-1.6-0.6-0.2-2.3-1.2-3.1c0.1-1.2,1.3-2.5-0.4-3.5
		c-1.5-1.4-2.2-3.3-3.4-4.9c-0.4-0.6-0.7-1.2-1.2-1.6c-1.4-0.7-1.5-2.1-1.7-3.4c-0.7-0.3-0.9,0.6-1.5,0.5c-0.9-0.2-1.5-0.6-1.7-1.6
		c-0.2-0.9,0.2-1.5,1-1.8c0.3-0.1,0.6-0.2,0.9-0.3c0.5-0.2,1.3-0.1,1.4-0.8c0.2-0.9-0.8-0.8-1.3-1.1c-0.2-0.1-0.3-0.2-0.4-0.3
		c-0.5-0.6-0.6-1.2-0.1-1.8c1.2-1.3,1.9-3.1,3.6-3.9c0.5-0.3,0.6-0.4,0.5-0.9c-0.4-1.3,0-2.6,0.7-3.7c0.7-1,0.3-2.2,0.8-3.3
		c1-2.1,1.4-2.4,3.7-1.8c0.5,0.1,0.8,0,0.9-0.4c0.2-0.7-0.1-1.2-0.7-1.4c-1.4-0.3-2.2-1.1-3-2.2c-0.7-0.8-1.2-1.7-1.1-2.8
		c0-0.8-0.3-1.3-0.9-1.8c-0.3-1.8-0.8-3.4-1.5-5.1c-0.4-1-1-1.9-1.9-2.6c-1.8-1.7-3.2-3.6-5.1-5.3c-1-1-2.1-1.9-3.5-2.2
		c-2.3-0.9-4.4-2.2-6.8-3c-0.4-0.1-0.7-0.4-0.7-0.8c1-0.4,1.8,0.5,2.9,0.2c-1.4-1.3-3-2-4.8-2.2c-3.1-0.3-6.2-0.7-9.3-0.8
		c-2.2-0.1-4.5,0-6.6,0.6c-1,0.2-1.6-0.2-2.5-0.2c-2.7,0.2-4.9,1.5-7.3,2.5c-0.5,0.2-1.1,0-0.7-0.6c0.7-1,0.5-2,0.5-3
		c0-1.2,0.3-1.7,1.6-1.3c0.3,0.1,0.6,0,1,0c0.5,0,1.2,0,1.1-0.7c0-0.6-0.7-0.3-1.1-0.5c-0.2-0.1-0.5-0.2-1.1-0.4
		c1.4-0.4,2.4-0.6,3.4-0.9c0-0.1,0-0.1,0-0.2c-1.2,0-2.5,0-3.7,0c1.5-0.6,3-1,4.6-1.1c2.9,0.1,5.7-0.3,8.5-0.7
		c2.3-0.3,4.4,0.2,6.6,0.5c1.3,0.2,2.5,0.2,3.8,0.2c0,0,0,0,0,0c0.8,0.6,1.8,0.5,2.7,0.8c0.5,0.4,1.1,0.5,1.7,0.4c0.1,0,0.2,0,0.2,0
		c2.3,0.4,4.5,1.2,6.5,2.4c3.1,1.6,5.8,3.7,8.6,5.8l0,0c0.8,1.1,2,1.8,2.7,3.1c0.8,0.6,1.2,1.7,1.9,2.4c0.3,0.5,0.7,1,0.9,1.5
		c-0.1,0.6,0.5,0.8,0.8,1.1c2.2,3.6,3.3,7.6,4.2,11.7c1.1,5.3,0.8,10.5-0.6,15.8c-0.8,2.9-2.1,5.6-3.8,8.1c-0.7,1-0.6,1.8,0.1,2.7
		c0.7,0.8,1.3,1.7,2,2.6c1.5,2.1,2.6,4.5,3.6,6.8c2.3,6.8,3.3,13.7,1.8,20.8c-0.9-0.6-0.7,0.2-1,0.7c-0.4,1.1-1,2.1-0.1,3.1
		c0.2,0.6-0.1,1-0.6,1.4C297.4,119.6,297.2,119.7,296.9,119.7z"/>
	<path class="st32" d="M293.8,86.9c-0.7-0.8-1.2-1.8-2-2.5c-1.9-1.7-0.4-3.1,0.4-4.4c2.4-3.4,3.2-7.4,3.9-11.4
		c1-5.5,0-10.8-1.3-16.1c-0.6-2.5-1.9-4.8-3.3-7c-0.3-0.2-0.4-0.5-0.4-0.8c-0.2-0.5-0.8-0.9-0.8-1.5c-0.1-0.1-0.1-0.2-0.1-0.3
		c0-0.1,0.1-0.1,0.1-0.1c2.2,2.4,3.5,5.3,4.5,8.4c3.1,9,3.5,17.9-0.7,26.8c-0.8,1.6-2.5,3-2.6,4.6c-0.1,1.6,2.1,2.6,2.7,4.3
		C294.1,87.1,294,87.1,293.8,86.9z"/>
	<path class="st2" d="M297.3,119.4c0.2-0.4,0.8-0.6,0.8-1.1c-0.2-1.4,0.1-2.7,0.8-3.9c1.4-3.8,0.8-7.7,0.6-11.6
		c-0.1-3.3-1.4-6.5-2.2-9.7c-0.1-0.2-0.1-0.3,0.1-0.5c1.6,2.3,1.9,5.1,2.3,7.6c2.1,13.6-1.1,25.7-10.8,35.7
		c-0.1-0.1-0.2-0.2-0.1-0.3c0-0.1,0.1-0.2,0.1-0.2c2.3-3.3,5.2-6.3,6.8-10.1c0.6-1.3,1.1-2.6,1.6-3.8
		C296.9,120.9,297.4,120.1,297.3,119.4z"/>
	<path class="st30" d="M285.8,37.8c-1.4-0.2-2.3-1.3-3.3-2.1c-1.7-1.4-3.8-2-5.3-3.6C280.5,33.3,283.3,35.4,285.8,37.8z"/>
	<path class="st33" d="M279.9,145.3c0-1.1,0.9-1.7,1.6-2.3c1.5-1.2,2.5-3.1,4.3-3.9C284,141.4,282,143.3,279.9,145.3z"/>
	<path class="st34" d="M297.3,92.6c0,0.2-0.1,0.3-0.1,0.5c-1.1-2.1-2.3-4.1-3.4-6.2c0.2,0,0.3,0,0.5,0
		C295.7,88.6,296.9,90.4,297.3,92.6z"/>
	<path class="st30" d="M288.4,41c-0.8-1.1-2.4-1.6-2.6-3.2c1.1,0.7,2,1.6,2.7,2.7C288.6,40.7,288.6,40.8,288.4,41z"/>
	<path class="st33" d="M288.8,135.6c0,0.1,0,0.3,0,0.4c-0.9,1.2-1.8,2.3-3,3.1C286.1,137.4,287.6,136.7,288.8,135.6z"/>
	<path class="st2" d="M268.7,29.8c-0.7-0.8-2.1-0.1-2.7-1.2c1.6,0.2,3.2,0.5,4.7,1.1c0,0.1-0.1,0.1-0.2,0.2
		C269.9,29.9,269.3,30.1,268.7,29.8z"/>
	<path class="st2" d="M288.4,41c0-0.2,0-0.3,0-0.5c0.9,0.6,1.3,1.5,1.9,2.4c0,0.1,0,0.3,0,0.4C289.4,42.7,289,41.8,288.4,41z"/>
	<path class="st0" d="M194.7,28.7c0.1,0,0.3-0.1,0.4-0.1c1.6,0.3,3.1,0.5,4.6,1.1c1.1,0.6,2.4,0.8,3.6,1.2c6.6,2.3,11.9,6.3,16,12
		c2,2.8,2,2.8,3.9,0.1c2.8-4.2,6.4-7.4,10.9-9.8c-0.9,1.7-2.8,2.3-4.2,3.5c-3,2.3-5.2,5.2-7.2,8.4c-0.3,0.5-0.4,1-1.2,1
		c-0.8,0-1.2-0.4-1.6-1.1c-2.4-4.1-5.6-7.3-9.6-10c-0.8-0.5-1.4-0.8-1.6,0.4c-0.1,0.4,0,0.9,0.6,0.6c1.4-0.7,2.2,0.5,2.8,1.2
		c0.7,0.9-0.6,1.3-1.2,1.8c-0.5,0.3-1,0.3-1.5,0c-0.1,0-0.3,0-0.4,0c-1.6,0-2.9-1.8-4.7-1c-0.1,0.1-0.2,0.1-0.3,0.2
		c-2.1-0.3-3.7-1.8-5.8-2.3c-0.3-0.4-0.6-0.9-1.2-1.2c-0.1,0-0.3,0-0.4,0c-0.7-0.3-1.5-0.4-1.9-1.2c-0.4-0.7-1.1-0.7-1.8-0.8
		c-2.6-0.2-3.4-1.2-2.9-3.8v0c0.5-0.4,1.1-0.4,1.7-0.2C192.7,29,193.7,29.2,194.7,28.7z"/>
	<path class="st0" d="M242.5,29.7c-0.9,1.5-2.6,1-3.8,1.6c-1.5,0.7-2.9,1.9-4.7,1.9C236.6,31.4,239.4,30.2,242.5,29.7z"/>
	<path class="st35" d="M203.3,30.9c-1.3,0.1-2.6-0.2-3.6-1.2C201,29.8,202.2,30.2,203.3,30.9z"/>
	<path class="st10" d="M269.1,37.2c2.6,1.1,5.1,2.3,7.7,3.4c1.2,0.6,2.3,1.4,3.3,2.2c2.2,2.2,4.6,4.2,5.8,7.2
		c3.2,7.1,4,14.4,1.5,21.9c-0.5,2-1.8,3.6-2.9,5.3c-1.5,1.8-3.3,3.4-5.4,4.6c-0.9,0.5-0.9,1,0.1,1.4c1.4,0.7,2.8,1.3,4,2.2
		c2.5,2.1,4.5,4.6,6,7.5c1.5,3.5,2.5,7.1,2.8,10.9c0.3,3.9-0.3,7.7-1.2,11.5c-0.7,1.3-1.2,2.8-1.8,4.2c-0.3,0.6-0.3,1.4-1.3,1.3
		c-0.3-0.3-0.4-0.8-0.4-1.2c-0.1-1-0.6-1.4-1.5-1.3c-2.8,0.2-5.3-1-7.7-2.1c-2.3-1.1-4.6-2.1-7-3.1c-0.4-1.3,0.4-2.5,0.5-3.8
		c0.7-4.7,0.1-9.1-3.3-12.7c-2.5-2.6-5.8-3.8-9.2-4.2c-2.6-0.3-5.2-0.7-7.8-0.8c-0.5,0-1-0.1-1.3-0.6c-0.1-0.9,0.1-1.9-0.3-2.7
		c-0.2-1.1-0.2-2.1,0-3.2c0.4-1.3,0.4-2.6,0-3.9c-0.1-0.4-0.1-0.9-0.2-1.3c-0.2-1.4,0.4-1.9,1.7-1.9c2.3,0,4.6,0.1,6.9-0.4
		c4.2-0.9,8-2.5,9.9-6.8c1.2-2.9,1.7-5.9,1-9.2c-0.7-3.3-2.1-5.8-4.7-7.9c-1-0.8-2.1-1.4-3.2-1.6c-4.4-1-8.6-1.1-12.5,1.7
		c-3.7,3.1-5.2,7.2-5.3,11.9c0,1-0.1,2-1.3,2.4c-5.1,0.3-10.1,0.1-15.2,0.1c-1.2,0-2-0.6-1.9-1.9c0.1-2.3,0-4.6,0.7-6.9
		c0.2-0.9,0.8-1.6,0.9-2.5c0.1-0.2,0.1-0.4,0.2-0.5c0.2-0.2,0.3-0.4,0.6-0.6c0.8-0.5,1.4-1.3,2.3-1.7c1.4-0.8,1.7-2.5,2.6-3.7
		c1.8-2.6,4.3-4.8,4.5-8.2c0.3-0.6,0.8-1,1.5-1c0.2,0,0.3,0.3,0.5,0.1c0,0-0.1-0.2-0.1-0.3c0-0.3,0.1-0.6,0.3-0.9
		c0.2-0.3,0.5-0.5,0.8-0.6l0,0c0.8-0.7,1.9-0.8,2.8-1.4c2.8-1,5.7-1.9,8.7-2.1l0,0c4.1-0.8,8.2-0.7,12.3,0l0.1,0.1l0.1-0.1
		C265.4,36.4,267.4,36.2,269.1,37.2C269.1,37.2,269.1,37.2,269.1,37.2z"/>
	<path class="st11" d="M176.2,54.8c-2.1,1.5-3,3.8-3.5,6.2c-0.2,0.7-0.4,1.3-0.6,2c-0.2,0.1-0.4,0.1-0.5,0c-0.1-0.2-0.2-0.3-0.2-0.5
		c0-1.5,0.4-2.9,1-4.2c0.4-0.5,0.6-1-0.2-1.3c-1.1-0.4-1.6-1.2-1.9-2.2c-0.2-0.6-0.6-1-1-1.3c-1.4-1-2.8-2-3.7-3.5
		c-0.4-0.7-1.3-0.8-2-0.9c-0.6-0.1-1.4-0.1-1.6-0.8c-0.6-1.5-1-0.5-1.5,0c-0.9,1.2-1.7,2.5-2.4,3.8c-0.3,0.5-0.5,1.2-1.3,1.1
		c-0.1-0.1-0.2-0.3-0.3-0.5c0.3-1.5,1-2.6,1.9-3.8l0,0c0.8-1.7,2.1-3,3.4-4.3l0.1-0.1l0-0.1c0.4-0.6,0.9-1,1.6-1.3l0,0
		c2.2-2.2,5-3.5,7.7-4.9c1.1-0.4,2.3-0.8,3.5-1l0,0c1.1-0.7,2.3-0.6,3.5-0.8c2.6,0.1,5.1-0.6,7.6-0.6c5.6-0.1,10.9,0.9,16.1,2.9
		c0.2,0,0.4,0.1,0.6,0.2c2.7,1.6,5.4,3.2,7.7,5.4c4.6,4.6,6.9,10.3,7.4,16.7c0.3,4-0.2,7.8-1.7,11.5c-1.7,4.1-4.8,6.9-8.3,9.3
		c-0.5,0.3-1.2,0.4-1.1,1.1c0.1,0.7,0.9,0.6,1.4,0.8c2.1,1,4.2,1.9,5.5,4c0.1,0.4,0.1,0.8,0.4,1.1c1.2,1.4,1.4,2.6-0.2,4
		c-0.8,0.6-0.5,1.7-0.5,2.6c-0.1,1,0,2-1.2,2.4c-1.2,0.3-2-0.4-2.5-1.3c-0.7-1.2-1.7-1.8-3.1-1.9c-1.1-0.1-2,0.2-2.4,1.4
		c-0.4,1.1-1.1,1.9-2.4,1.5c0.3-1.8-1.1-1.4-1.7-1.1c-0.9,0.6-1.3,0.1-1.9-0.4c-1.7-1.3-3.5-2.5-5.7-2.8c-0.3,0.2-0.6,0.4-0.9,0.3
		c-3.9-1.2-8-0.8-12-1.6c-0.2-0.1-0.3-0.3-0.3-0.5c1.2-2.6,1.2-5.1-0.2-7.6c-0.3-1.2-0.3-2.4,0-3.6c1.4-1.9,3.4-2,5.4-1.5
		c0.4,0.1,0-0.4,0-0.1c0,0-0.1,0-0.2,0c-0.3,0-0.5,0-0.7-0.2c0-1,0.8-0.8,1.4-0.9c0.7-0.1,1.4,0,2-0.2c0.3-0.1,0.5-0.2,0.8-0.3
		c1-0.1,1.9-0.2,2.9-0.6c1-0.3,2-0.7,3-1.2c5.6-3.4,6.4-12.4,3.5-17.7c-1-1.8-2.1-3.5-3.9-4.6c-0.4-0.2-0.8-0.4-1.3-0.3
		c-3.4-1-6.8-1.2-10.3-0.4C179,52.8,177.6,53.8,176.2,54.8L176.2,54.8z"/>
	<path class="st0" d="M256.4,94.6c0,0.8-0.2,1.8,1,1.9c1,0.1,1.2-0.7,1.3-1.5c0.2-1.1,0.9-1.6,1.9-0.9c0.7,0.5,1.9,0.1,2.2,1.2
		c-0.3,1.9,1.4,3.4,1.3,5.3c-0.1,0.7,0.7,0.8,1.3,0.8c1.1,0,2.2,0,3.2,0c0.8,0,0.8,0.6,0.8,1.2c-0.5,0.3-1.3,0.5-1.1,1.3
		c0.3,1.7-0.2,3.5,0.5,5.2c0.2,0.3,0.4,0.6,0.7,0.8c0.1,0.8-0.1,1.4-0.8,1.9c-0.2,0.1,0.1,0-0.1,0.1c-0.9,0.7-2,1.3-2.9,0.9
		c-0.9-0.5-0.7-1.8-0.8-2.8c0-0.4,0-0.8,0-1.2c0-2.8,0-2.8-2.7-3.2c-1.3-0.2-1.8-1-1.9-2.2c-0.1-2.4-0.2-2.4-2.6-2.4
		c-1.5,0-2.9,0-4.4,0c-1.6-0.1-2.3-0.8-2.2-2.4c0.1-2.9,0.1-2.9-2.7-3.3c-1.8-1.4-3.5-2.9-5.8-3.1c-1.3-0.1-1.1-1.2-1.1-2.1
		c-0.1-2.5,0-2.6-2.6-2.5c-1.6,0-2.1-0.6-2.1-2.1c0.1-2.5,0-2.6-2.6-2.5c-1.6,0-2.1-0.6-2.1-2.2c0.1-1.9,0-3.7,0-5.6
		c0-1-0.4-1.5-1.5-1.6c-3.2-0.3-3.2-0.3-3.2-3.5c0-0.4,0-0.8,0-1.2c0.7-0.7,1.7-0.5,2.5-0.5c4.1-0.1,8.2,0.2,12.2-0.2
		c0.9-0.5,0.9-1.3,0.9-2.1c0-1.1-0.2-2.2,0.4-3.2c0.8-0.9,1.2-1.9,1-3.1c-0.1-0.3-0.1-0.7,0-1.1c0-0.2,0.1-0.3,0.2-0.5
		c0.6-0.9,1.2-1.9,1.7-2.9c0.1-0.2,0.3-0.4,0.5-0.6c0.4-0.2,0.8-0.5,1.1-0.9c0.1-0.1,0.2-0.2,0.4-0.3c0.6-0.3,1.2-0.7,1.8-1.1
		c0.2-0.1,0.4-0.1,0.5-0.2c3.6-1.1,7.2-1.3,10.8,0c0.2,0.1,0.4,0.1,0.5,0.2c0.6,0.4,1.2,0.8,1.8,1.1c0.2,0.1,0.3,0.2,0.4,0.3
		c0.7,0.6,1.2,1.3,1.8,1.9c0.1,0.1,0.2,0.3,0.3,0.4c1.2,2.1,2,4.3,2.1,6.7c-0.6,1.1-1,2.2-0.9,3.5c0,1.2-0.2,2.3-1.5,2.8
		c-0.9,0.4-1.2,1.1-0.9,2c0.2,0.7,0.2,1.3-0.3,1.8c-1.5,1.3-3,2.8-5.1,3.1c-3.2,0.4-6.3,1.1-9.5,0.7c-0.4,0-0.6,0.1-0.8,0.4
		c-0.4,0.3-0.7,0.6-1.2,0.3c-0.6-0.5-1.2-0.7-0.9,0.4c0.2,1,0.1,1.9,0.1,2.9c0,0.6,0.1,1.2-0.9,1c-0.6-0.1-0.7,0.5-0.7,0.9
		c0,1.9,0,3.7,0,5.9c1.5-1.3,0.2-3.1,1.5-4.7c0,2.9,0,5.2,0,7.6c0,1.1,0.2,1.9,1.6,1.8c0.2,0.4,0.1,1,0.7,1c1.5,0,2.6,0.5,3.6,1.6
		c0.7,0.7,1.1-0.2,1.3-0.9C255.1,94.3,255.4,93.5,256.4,94.6z"/>
	<path class="st13" d="M216.7,52.2c1.4,1.2,1.5,3,1.8,4.5c0.8,4.5,0.9,9-0.3,13.5c-0.3,1.2-0.3,2.6-0.2,3.8c0.1,2.2-1.2,2.7-2.7,3.2
		c-0.4,0.1-0.9-0.2-1.2,0.4c-0.9,2.1-3.1,2.9-4.7,4.3c-0.8,0.7-0.6,0.9,0.1,1.3c1.8,1,3.8,1.8,5.1,3.3c1.3,1.5,2.7,3.1,3.7,4.8
		c1.8,2.9,3.2,6,3.3,9.6c-0.4,0.3,0,1-0.5,1.2c-1.2-1.2-1.1-2.9-1.6-4.3c-1.1-3.9-2.9-7.5-6.2-10c-2.2-1.5-4.1-3.4-6.8-4.2
		c-0.4-0.1-0.9-0.5-0.8-1c0.1-0.9,1-0.8,1.6-1.1c4.1-2.3,7-5.7,8.7-10.1c2.1-5.2,2-10.5,0.5-15.8c-0.3-1.1-0.8-2.2-0.5-3.4
		C216.3,52,216.5,52,216.7,52.2z"/>
	<path class="st0" d="M248.3,95.4c3.2,0,3.4,0.2,3.1,3.3c-0.1,1.3,0.5,2.1,1.9,2.1c1.8,0,3.6,0.1,5.4,0c1.4-0.1,2,0.4,2,1.8
		c0,2.7,0.1,2.7,2.9,2.8c1.2,0,1.8,0.5,1.7,1.7c0,1.3,0,2.6,0,3.9c0,0.6,0.3,1.2,0.5,1.8c1-0.5,1.9-0.7,3-0.8c0,0.4,0,0.8,0,1.2
		c-0.3,0.6-1.5-0.5-1.5,0.8c-0.2,0.9-0.8,1.7-0.8,2.7c0,0.8-0.6,1.4-1.4,1.4c-1,0-0.6-1-0.6-1.5c-0.1-2.8-0.1-5.5,0-8.3
		c0-1.5-0.5-2-2-2c-2.6,0-2.6,0-2.6-2.7c0-1.6-0.6-2-2.1-2c-1.8,0.1-3.6,0-5.4,0c-1.3,0-2-0.4-1.8-1.8c0-0.3,0-0.5,0-0.8
		C250.9,97.2,250.6,95.6,248.3,95.4z"/>
	<path class="st36" d="M216.3,52.2c1,4,2.2,7.9,2,12.1c-0.4,7.4-3.7,13.1-9.6,17.4c-0.4,0.3-0.8,0.3-1.3,0.3c0-0.7,0.6-0.9,1.1-1.2
		c5.8-4.2,8.6-9.9,8.7-17.1c0-5.3-1.2-10.3-3.9-14.8c-0.9-1.6-2.1-3-3.5-4.3c-0.4-0.4-0.9-0.7-0.9-1.4c0.1-0.2,0.3-0.3,0.5-0.1
		c2.1,1.5,3.5,3.7,5,5.8c0.2,0,0.3,0.2,0.4,0.4c0.3,0.4,0.5,0.8,0.8,1.2C215.8,50.9,216.1,51.5,216.3,52.2z"/>
	<path class="st36" d="M248.3,77.6c0.4-0.1,0.8-0.3,1.2-0.4c0.1,0,0.1-0.1,0.2-0.1c3.5-0.3,7.1-0.6,10.6-0.9c0.1,0,0.2,0.1,0.3,0.2
		c-0.3,1.1-1.4,1-2.2,1.2c-2.3,0.6-4.7,0.4-7.1,0.4c-1.5,0-2.1,0.3-1.8,2c0.5,3.3-0.1,6.7,0.1,10c0.1,1.4,0.5,1.6,1.7,1.6
		c3.4,0.1,6.9,0.4,10.2,1.3c0.6,0.1,1.1,0.3,1.5,0.7c0,0.1,0,0.2,0,0.3c-4.3-0.8-8.6-1.7-13-1.6c-0.9,0-1.3-0.3-1.4-1.3
		c-0.3-3.3-0.2-6.5-0.1-9.8C248.5,80.1,248.3,78.8,248.3,77.6z"/>
	<path class="st0" d="M270.6,103.6c-0.9-4-2.6-7.4-6.8-8.9c-0.4-0.1-0.7-0.4-0.9-0.7c0,0,0.1-0.1,0.1-0.1c1.1-0.6,1.8,0.3,2.6,0.8
		c4,2.3,6,5.9,6.2,10.4c0.2,4.3-0.5,8.4-3,12.1c-1.7,2.4-3.9,4.1-6.7,5c-0.6,0.1-1.1,0.1-1.5-0.4c2-0.9,4-1.8,5.7-3.3
		c2.6-2.5,3.6-5.7,4.3-9.1C270.4,107.4,270.4,105.5,270.6,103.6z"/>
	<path class="st37" d="M244.1,63c-0.7,1.2-0.4,2.5-0.4,3.8c0,0.8-0.1,1.5-0.8,2c-0.8,0.4-1.7,0.1-2.5,0.2c-1.2-0.3-2.5-0.3-3.7,0
		c-0.6,0-1.3,0.1-1.9,0c-2.4-0.2-4.9-0.2-7.3,0c-0.9,0-1.8,0.2-2.7-0.1c-0.9-1.2-1.1-2.5-0.4-3.9c0.1,0.1,0.2,0.2,0.2,0.3
		c0.2,0.4,0.2,0.9,0.2,1.3c0,0.9,0.3,1.4,1.4,1.4c5.2,0,10.3,0,15.5,0c0.3,0,0.6-0.1,0.9-0.3c0.7-0.8,0.3-1.8,0.4-2.7
		c0.3-2.1,0-4.4,1.9-6.1c0,0.4,0,0.8,0.1,1.2C244.9,61,244.6,62,244.1,63z"/>
	<path class="st38" d="M256.4,94.6c-0.8-0.4-1.2-0.3-1.2,0.7c0,0.7-0.1,1.5-1,1.6c-0.8,0.1-1.4-0.1-1.8-1c-0.5-1.4-1.7-0.9-2.7-0.8
		c-1.6,0-1.6-0.5-0.8-1.6c2.3,0.8,4.6-0.2,6.9,0C257.3,93.6,257.1,94,256.4,94.6z"/>
	<path class="st23" d="M222.9,104.3c0.1-1,0.9-0.8,1.5-0.8c5.6,0,11.2,0,16.7,0c0.4,0,1.5-0.6,1.1,0.7c-3.1,0.4-6.2,0.2-9.3,0.2
		C229.5,104.5,226.2,104.7,222.9,104.3z"/>
	<path class="st30" d="M222.9,104.3c6.4,0,12.8,0,19.3,0c1.1,1.1,0.4,2.5,0.7,3.8c0.5,2.7,1.3,5.3,2,7.9c-2-2.8-2.3-6.1-2.6-9.3
		c-0.1-1.5-0.6-1.8-2-1.8c-5.5,0-11,0-16.5-0.1c-0.3,0-0.6-0.1-0.9-0.1C222.8,104.5,222.9,104.4,222.9,104.3z"/>
	<path class="st9" d="M166.2,32.1c0.4,0.1,1-0.2,1.2,0.2c0.2,0.5-0.2,1-0.7,1.2c-0.7,0.4-1.3,0.8-2,1.1c-0.5,0.2-1,0.4-0.7,1.1
		c0.4,0.9-0.2,1.4-0.9,1.6c-0.7,0.2-1-0.3-1.2-0.9c-0.3-0.8-0.3-1.5,0.6-1.9C163.8,33.8,165.3,33.4,166.2,32.1
		C166.2,32.1,166.2,32.1,166.2,32.1z"/>
	<path class="st0" d="M268.7,101.6c-1.3,0.8-2.7,0.3-4.1,0.3c-0.2,0-0.7-0.4-0.7-0.5c0.3-2.1-2-3.8-1-6c0.2,0,0.4,0.1,0.6,0.1
		c-0.4,1.4,1.2,2.2,1,3.6c-0.3,1.6,0.5,2.2,2.1,2.1C267.3,101.2,268.1,100.9,268.7,101.6z"/>
	<path class="st9" d="M190.1,29c0.2,2.5,1.2,3.8,3.9,3.6c1.2-0.1,1.5,1.7,2.6,2.2c-0.9,0.3-1.7,0.4-2.2-0.7c-0.4-1-1.5-0.8-2.3-0.9
		c-1.1-0.1-2.1-0.6-2.4-1.8C189.4,30.6,188.9,29.6,190.1,29z"/>
	<path class="st38" d="M179.6,35.9c0.9-0.6,1.9-0.7,2.9-0.7c2.6,0,5.2,0,7.8,0c0.9,0,1.8,0.1,2.5,0.7c-0.1,0.1-0.2,0.2-0.2,0.2
		c-1,0.4-2,0.1-3-0.1c-3.2-0.4-6.5,0.3-9.7,0.1C179.8,36.1,179.7,36,179.6,35.9z"/>
	<path class="st0" d="M268.7,109.7c-0.9-0.8-1.1-6-0.3-6.7c0.3-0.2,0.7-0.2,1.1-0.2c-0.8,1.1-1.3,2.1,0.1,3.2
		c0.6,0.4,0.2,1.2,0.3,1.8C269.1,108.2,269.4,109.3,268.7,109.7z"/>
	<path class="st35" d="M263.3,36c-4.1-0.3-8.2-0.2-12.3,0c0.6-0.8,1.7-0.7,2.4-0.7C256.8,35.3,260.1,34.5,263.3,36z"/>
	<path class="st9" d="M204,38.3c1.8-1.4,2.6-1.2,5,0.8c-0.4,0.4-0.8,0.8-1.2,1.2c-0.4-0.5-1.1-0.4-1.5-0.8
		C205.2,39.7,205,38.1,204,38.3z"/>
	<path class="st23" d="M234.8,68.8c0.6,0,1.3,0,1.9,0c1.2-0.3,2.3-0.3,3.5,0c0.9,0,1.8,0,2.7,0c-0.6,0.6-1.3,0.4-2,0.4
		c-4.5,0-9,0-13.4,0c-0.9-0.2-1.9,0.4-2.7-0.4c0.9,0,1.8,0,2.7,0C229.9,68.5,232.4,68.5,234.8,68.8z"/>
	<path class="st39" d="M225.6,55.3c1-2,2.1-4.1,3-6.2c0.5-1.1,1.3-2,2.3-2.8c0.1,0.1,0.1,0.1,0.2,0.2c0.2,1.1-0.7,1.6-1.1,2.4
		c-0.8,1.4-1.6,2.8-2.3,4.2c-0.8,1.3-0.8,3.1-2.1,4.2c-0.2-0.1-0.3-0.3-0.1-0.5c0-0.1,0-0.3,0-0.4C225.3,56,225.3,55.6,225.6,55.3z"
		/>
	<path class="st40" d="M260.6,121.7c0.5,0,1-0.1,1.5-0.1c0.2,0.8-0.5,1-1,1.1c-2.8,0.9-5.7,0.9-8.6,0.1c-0.6-0.2-1.1-0.4-1.2-1.1
		c1-0.8,1.8,0.3,2.8,0.2C256.3,122.1,258.5,122.6,260.6,121.7z"/>
	<path class="st9" d="M177.8,34.6c-1.2,1.1-2.8,0.7-4,1.2c-0.6,0.3-1.1,0-1.1-0.6c-0.1-0.7,0.4-1.2,1.1-0.8c1.1,0.6,1.7,0.3,2.5-0.5
		C176.9,33.3,177.4,33.8,177.8,34.6z"/>
	<path class="st41" d="M221.3,102c0-0.4-0.1-0.9,0.4-1.2c0,0.9,0,1.8,0,2.7c0.6,2.7,0.6,5.4,0,8.1c-0.3-0.2-0.4-0.5-0.4-0.8
		c-0.7-0.7-0.6-1.5-0.5-2.3C221,106.3,220.2,104.1,221.3,102z"/>
	<path class="st9" d="M165.1,37.9c0.8-0.1,1.8,0.3,1.6,1c-0.2,1-1.5,0.9-2.3,1.3c-0.5,0.2-0.9-0.4-0.9-1
		C163.5,38,164.2,37.8,165.1,37.9z"/>
	<path class="st0" d="M212.1,44c-1.1-0.3-1.4-1.4-2.2-2c-0.6-0.4-0.6-0.9,0-1.4c0.7-0.6,0.8,0.1,1.1,0.4c0.3,0.4,0.7,0.7,1.1,1
		C212.9,42.8,213.7,43.4,212.1,44z"/>
	<path class="st9" d="M182.7,33.3c0.4,0,1.3-0.5,1.5,0.6c0.2,1-0.7,0.9-1.3,0.8c-0.8-0.1-2.1,0.6-2.3-0.6
		C180.5,32.8,181.8,33.5,182.7,33.3z"/>
	<path class="st18" d="M251.1,36c-3,0.8-5.9,1.5-8.9,2.3c-0.1-0.1-0.2-0.2-0.1-0.3c0-0.1,0.1-0.1,0.1-0.1
		C245,36.8,247.9,35.6,251.1,36z"/>
	<path class="st42" d="M158.2,48.7c-0.2,1.4-1.5,2.4-1.7,3.8c-0.4,1.5-0.6,3.1-1.7,4.4c-0.1,0-0.2-0.1-0.3-0.1
		C154.9,53.7,155.9,50.9,158.2,48.7z"/>
	<path class="st9" d="M170.9,38.3c-2.7,1.3-5.3,2.9-7.7,4.7c0.6-1.8,2.5-2.1,3.8-3.1c0.8-0.6,1.8-1.1,2.7-1.6
		c0.2-0.3,0.5-0.3,0.9-0.2C170.7,38.1,170.8,38.2,170.9,38.3z"/>
	<path class="st9" d="M183.4,28.6c0.5,0.1,1.3-0.2,1.2,0.7c-0.1,0.8-0.9,1-1.6,1.1c-0.6,0.1-0.9-0.4-1-1
		C182,28.5,182.7,28.6,183.4,28.6z"/>
	<path class="st9" d="M201.3,38.2c2.5,0.4,4.5,1.7,6.2,3.5c-0.1,0.1-0.1,0.1-0.2,0.2c-1.9-0.6-3.4-2-5.2-2.9l0,0
		c-0.2-0.3-0.7-0.1-0.9-0.5C201.2,38.4,201.3,38.3,201.3,38.2z"/>
	<path class="st37" d="M225.5,56.8c0,0.1,0,0.3,0.1,0.4c0.3,0.4,0.2,0.8,0.1,1.2c-0.4,1.9-0.8,3.7-0.8,5.6c0,0.4,0,0.8-0.5,0.8
		c0,0-0.1-0.1-0.1-0.1C224.5,62.1,224,59.3,225.5,56.8z"/>
	<path class="st42" d="M153.5,62.3c-0.1-0.2-0.3-0.3-0.4-0.5c0.4-1.7,0.2-3.6,1.5-5.1c0,0,0.1,0.1,0.1,0.1
		C155.1,58.8,155,60.7,153.5,62.3z"/>
	<path class="st42" d="M161.6,44.4c-1,1.6-2.2,3-3.4,4.3C158.6,46.7,159.8,45.4,161.6,44.4z"/>
	<path class="st38" d="M177.6,36.7c-1.2-0.2-2.2,0.6-3.3,0.5c1.5-1.4,3.5-1.1,5.3-1.3c0,0,0.1,0.1,0.1,0.1
		C179.3,37.1,178.2,36.2,177.6,36.7z"/>
	<path class="st0" d="M269.1,37.2c-1.8-0.4-3.7-0.8-5.5-1.2c1.6-0.3,3.1,0.3,4.6,0.4C268.7,36.4,268.9,36.7,269.1,37.2z"/>
	<path class="st17" d="M232,45.1c0.8-1.5,1.9-2.7,3.5-3.4c0.2-0.1,0.3-0.1,0.5,0c-0.8,1.6-2.2,2.8-3.8,3.6
		C232.2,45.2,232.1,45.2,232,45.1z"/>
	<path class="st0" d="M192.8,35.9c1.7,0,3.4,0.2,5,0.8c0.1,0.2,0.1,0.4-0.1,0.5C195.9,37.3,194.3,36.9,192.8,35.9L192.8,35.9z"/>
	<path class="st43" d="M270.6,103.6c0,1.9,0,3.8,0,5.7C270,107.4,270,105.5,270.6,103.6z"/>
	<path class="st0" d="M266.2,97.1c0.3,0.2,0.5,0.3,0.7,0.4c0.4,0.6,1.2,0.7,1.4,1.5c0,0.1-0.3,0.4-0.3,0.4c-0.8-0.2-1.3-0.9-1.7-1.6
		C266,97.7,266.1,97.4,266.2,97.1z"/>
	<path class="st9" d="M186.2,28.8c0.7-0.1,1.5-0.6,2,0.2c0.1,0.2-0.1,0.7-0.2,0.8C187,30.3,187,28.9,186.2,28.8z"/>
	<path class="st0" d="M254.1,122.1c-0.9-0.1-1.8-0.2-2.7-0.4c-0.8,0.4-1.3,0-1.7-0.6c0-0.2,0-0.4,0.2-0.5
		C251.2,121.3,252.8,121.1,254.1,122.1z"/>
	<path class="st30" d="M249.8,120.5c0,0.1,0,0.3,0,0.4c-1.8,0.4-2.6-0.8-3.2-2.2c0.1-0.1,0.1-0.2,0.2-0.2
		C247.8,119.2,248.8,119.9,249.8,120.5z"/>
	<path class="st9" d="M182.8,28.2c1.7-0.6,3.4-0.6,5,0C186.1,28.2,184.4,28.2,182.8,28.2z"/>
	<path class="st38" d="M174.3,37.1c-1.1,0.6-2.3,0.9-3.5,1.2c0,0-0.1-0.1-0.1-0.1l-0.1-0.2l0.1-0.1
		C171.9,37.4,173.1,36.9,174.3,37.1z"/>
	<path class="st9" d="M197.8,37.1c0-0.1,0-0.3,0-0.4c1.1,0.7,2.6,0.3,3.5,1.5c0,0-0.1,0.1-0.1,0.1C199.8,38.5,198.7,38.1,197.8,37.1
		z"/>
	<path class="st9" d="M268.7,109.7c0.1-0.5,0.3-1,0.2-1.4c-0.1-1,0.4-0.7,0.9-0.5c-0.1,0.8-0.5,1.5-0.4,2.3
		C269.2,110.1,268.9,110,268.7,109.7z"/>
	<path class="st44" d="M242.1,37.9c0,0.1,0,0.3,0,0.4c-0.8,0.6-1.7,1-2.7,1.2C239.9,38.3,241.3,38.6,242.1,37.9z"/>
	<path class="st30" d="M245.3,117.4c-0.2-0.5-0.3-1-0.5-1.5c1,0.7,1.6,1.6,2.1,2.6c0,0-0.1,0.1-0.1,0.1
		C245.9,118.7,245.4,118.2,245.3,117.4z"/>
	<path class="st9" d="M171.4,31.1c0.4-0.4,0.8-0.7,1.3-0.5c0.1,0,0.2,0.4,0.1,0.4C172.5,31.5,172.1,31.6,171.4,31.1z"/>
	<path class="st9" d="M212.1,44c1.1-0.6,0.4-1.3,0-1.9c0.8,0.1,1.2,0.5,1.1,1.2C213.1,44.1,212.6,44,212.1,44z"/>
	<path class="st9" d="M209.4,42.9c-0.2,0-0.3,0-0.5,0.1c-1,0.2-1.3-0.4-1.5-1.1c0,0,0.1-0.1,0.1-0.1C208.2,41.9,209,42.1,209.4,42.9
		z"/>
	<path class="st44" d="M239.5,39.5c-0.2,0.2-0.3,0.4-0.5,0.6c-0.4,0.4-0.7,0.8-1.4,0.6c-0.1-0.1-0.1-0.1-0.2-0.2
		C238,39.8,238.5,39.2,239.5,39.5z"/>
	<path class="st9" d="M192,29c-0.6,0-1.3,0-1.9,0c0.1-0.2,0.3-0.5,0.4-0.7c0.6-0.1,1.1,0.1,1.6,0.4c0,0.1,0.1,0.1,0.1,0.2
		C192.1,28.9,192.1,28.9,192,29z"/>
	<path class="st44" d="M236,41.7c-0.1,0-0.3,0-0.4,0c0.4-0.7,1.1-0.9,1.9-1.2c0,0,0.1,0.1,0.1,0.1C237.4,41.5,236.8,41.9,236,41.7z"
		/>
	<path class="st0" d="M206.3,39.4c0.6,0.1,1.4-0.3,1.5,0.8C207.2,40.2,206.6,40.1,206.3,39.4z"/>
	<path class="st41" d="M216.3,52.2c-0.6-0.5-0.8-1.2-0.8-1.9c0.6,0.5,0.8,1.3,1.2,1.9C216.6,52.2,216.4,52.2,216.3,52.2z"/>
	<path class="st9" d="M197,34.8c0.9-0.1,1.2,0.3,1.2,1.2C197.4,35.9,197.3,35.3,197,34.8z"/>
	<path class="st45" d="M170.8,37.9c0,0.1,0,0.2-0.1,0.3c-0.4,0-0.7,0.1-1.1,0.1C169.8,37.4,170.2,37.2,170.8,37.9z"/>
	<path class="st9" d="M267.2,114c-0.2-1.6,1.1-0.3,1.5-0.8C268.4,113.8,267.5,113.3,267.2,114z"/>
	<path class="st9" d="M163.2,42.9c-0.4,0.6-0.8,1.2-1.6,1.3C161.8,43.4,162.3,42.9,163.2,42.9z"/>
	<path class="st17" d="M230.9,46.3c0.1-0.7,0.5-1,1.1-1.2c0,0,0.1,0.1,0.1,0.1c0.2,0.9-0.3,1.2-1.1,1.2L230.9,46.3z"/>
	<path class="st31" d="M225.6,55.3c0,0.4,0,0.7,0,1.1c-0.5-0.4-0.5-1-0.3-1.4C225.5,54.6,225.5,55.1,225.6,55.3z"/>
	<path class="st9" d="M209.4,39c0.5,0,1,0,1.5,0C210.4,40,209.9,39.6,209.4,39z"/>
	<path class="st46" d="M214.8,49.1c-0.1-0.1-0.3-0.3-0.4-0.4c0-0.2,0-0.6,0.4-0.5C215.2,48.4,215.2,48.8,214.8,49.1z"/>
	<path class="st47" d="M207.4,41.8c0.3,0.6,0.9,0.9,1.5,1.1c2.6,2.7,5,5.4,6.4,9c4,10.1,3.3,22.8-7.7,29.7c-0.1,0.1-0.2,0.2-0.2,0.3
		c-0.5,0.1-0.9,0.3-1.5,0.9c2.8,1.2,5.3,2.7,7.6,4.6c2.9,2.4,4.7,5.5,5.9,9c1.7,5.1,2,10.3,1.1,15.5c-1,5.8-3.3,11.1-7.2,15.7
		c-0.4,0.4-0.8,0.8-1.3,1.1c-1.8,1.3-3.2,3.1-5.3,4c0.1-1.2,1.3-1.6,2-2.1c4.6-3.3,7.4-7.9,9.3-13c1-2.7,1.4-5.6,1.8-8.5
		c-0.3-0.8-0.6-1.7-0.5-2.6c0.1-2.3-0.2-4.7-0.6-7c-0.6-2-1-4.1-2.2-6c-1.2-2-2.7-3.7-4-5.7c-1.6-1.7-3.4-2.9-5.7-3.6
		c-0.6-0.2-1.6-0.2-1.6-1.1c0-0.8,0.7-1.1,1.3-1.5c3.9-2.6,7.1-5.7,8.8-10.4c2.3-6.2,1.6-12.1-0.4-18c-1.7-5.1-5.2-9-9.8-11.9
		c-1.1-0.7-2.5-1-3.1-2.2C204,39.5,205.6,40.9,207.4,41.8z"/>
	<path class="st48" d="M219.8,106.2c0,0.9,0,1.8,0,2.7c-3.2-2.7-6.6-5.1-8.9-8.7c-0.8-1.2-2.4-1.6-3.2-3.1c-0.6-1.1-2.5-0.8-3,0.6
		c-0.8,2.2-2.7,3.1-4.1,4.6c0-0.5,0-1,0-1.5c0.1-1.4,1.2-2.2,2-3.1c3.5-4,3.3-3.8,7.3-0.4c2.5,2.1,4.6,4.4,6.9,6.5
		C217.7,104.7,218.5,105.8,219.8,106.2z"/>
	<path class="st48" d="M170.4,134c0.3-2.6,1.8-3.6,4.3-4c1.1-0.2,2-1.5,2.7-2.4c1-1.2,3-1.8,2.8-4c0-0.7,0.9-1.1,1.8-0.8
		c0,1.2,1.3,0.4,1.7,1c-1.6,1.6-3.1,3.1-4.6,4.7c-1.7,1.7-3.6,3-5.7,4.1C172.4,133.1,171.9,134.5,170.4,134z"/>
	<path class="st49" d="M193.5,137.8c-0.4,0.7-1.2,0.5-1.8,0.6c-4,0.4-7.9,0.5-11.9-0.1c-0.4-0.1-0.8-0.1-1-0.5
		C183.8,138.3,188.7,138.4,193.5,137.8z"/>
	<path class="st30" d="M204.3,134.3c-0.1,0.3-0.2,0.6-0.3,0.9c-0.8,0.1-1.5,0.6-2.3,0.4C202.4,135,203.3,134.5,204.3,134.3z"/>
	<path class="st30" d="M201.6,135.6c-0.8,1.2-1.9,1.2-3.1,1.2C199.5,136.1,200.5,135.8,201.6,135.6z"/>
	<path class="st30" d="M206.3,133.2c-0.4,0.9-1.1,1.2-2,1.1C204.8,133.7,205.5,133.5,206.3,133.2z"/>
	<path class="st14" d="M176.6,92.3c0.3-0.2,0.4-0.5,0.4-0.8c0.2-0.1,0.3-0.2,0.6-0.1c0.3,0.1,0.5,0.3,0.8,0.4c4,0.3,8,0,11.9,1.3
		c1.8,0.9,3.7,1.8,5.5,2.9c3.1,2.4,4,5.8,4.2,9.4c0.1,1.3,0.5,2.7-0.5,3.9c-0.4-0.3-0.5-0.8-0.4-1.2c0.5-2.4-0.8-4.5-1.1-6.8
		c-0.3-2.7-3-4.4-5.6-4c-0.3,0-0.7,0.2-0.9-0.2c-0.2-0.3-0.1-0.6,0.2-0.8c0.9-0.6,0.5-1.4-0.1-1.3c-2.5,0.2-4.5-1.4-6.9-1.4
		c-1,0-0.4,0.2-0.3,0.7c0.1,0.6-0.7,0.6-1.2,0.3c-1.1-0.8-1.9-0.9-3.3-0.3C179.1,94.5,176.9,94.3,176.6,92.3z"/>
	<path class="st39" d="M199.3,109.3c0.8-5,0.1-9.5-3.9-13.1c-0.2-0.2-0.2-0.3,0-0.5c2.2,1.1,3.5,3.1,4,5.4c1.4,5.7,1,11.2-2.6,16.1
		c-0.8,1.1-1.6,2.1-2.9,2.6c2-2.3,3.9-4.6,4.9-7.5c-0.2-0.6-0.3-1.2,0-1.9C199.1,110.1,199.2,109.7,199.3,109.3z"/>
	<path class="st36" d="M192.1,120.9c-3.1,1.8-6.3,1.8-9.7,1.2c-0.2-0.2-0.2-0.3,0-0.4c2.2,0.7,4.4,0.6,6.5-0.1
		C190,121.3,191,120.9,192.1,120.9z"/>
	<path class="st17" d="M182.4,121.7c0,0.1,0,0.3,0,0.4c-1.3,0-2.5-0.4-3.5-1.1C180.1,120.7,181.1,121.8,182.4,121.7z"/>
	<path class="st39" d="M194,119.8c-0.5,0.6-1.2,1-2,1.1C192.4,120.1,193.1,119.8,194,119.8z"/>
	<path class="st17" d="M178.9,121c-0.8-0.2-1.5-0.5-1.9-1.2C177.8,119.9,178.5,120.1,178.9,121z"/>
	<path class="st50" d="M172.8,112.8c-0.3-0.5-0.4-1-0.4-1.5C173.4,111.5,173.3,112.1,172.8,112.8z"/>
	<path class="st46" d="M199,110.5c0,0.6,0,1.2,0,1.9C198.4,111.7,198.4,111.1,199,110.5z"/>
	<path class="st51" d="M219.8,106.2c-2.5,0.6-2.9-2-4.2-3c-2-1.5-3.4-3.9-5.7-5.1c-0.8-0.4-1.2-1.6-1.9-2.3
		c-1.1-1.1-2.8-0.9-3.6,0.4c-1.1,1.7-2.6,3.2-3.8,4.7c-0.5-0.3-0.4-0.7-0.4-1.2c0.6-0.7,0.2-1.7,0.8-2.3c1-0.4,2-0.7,2.1-2.1
		c0.1-1,0.9-1.4,2-1.4c1.8,0.1,3.4,0.3,4.2,2.2c0.3,0.7,1,1.5,2,1.3c1.2-0.2,0.9-1.2,0.9-2c0.1-1.4-0.4-2.9,1.4-3.7
		c0.7-0.3,0.4-1.3-0.2-1.8c-0.6-0.6-0.9-1.2-0.9-2c1.9,1.4,3.1,3.4,4.2,5.4c0.4,0.7,0,1.3-0.4,1.9c-0.2,0.4-0.6,0.7-0.8,1
		c-2.1,2.7-1.7,3.9,1.7,4.9c0.7,0.2,0.9-0.1,1-0.7c0.1-0.5-0.2-1.4,0.8-1.4C219.6,101.3,219.8,103.8,219.8,106.2z"/>
	<path class="st52" d="M190.5,93.5c-3.5-1.2-7.1-1.3-10.7-1.3c-0.7,0-1.4,0.3-2-0.3c-0.4-0.6-0.4-1.2-0.4-1.8c0-3.5,0-6.9,0-10.4
		c0-0.6-0.3-1.5,0.7-1.7c0.3,0.2,0.5,0.5,0.4,0.8c-0.7,4.3,0.7,8.5,0,12.8c4.4,0.1,8.8,0.3,13.1,1.6c0,0.1,0,0.3,0,0.4
		C191.2,93.7,190.8,93.8,190.5,93.5z"/>
	<path class="st11" d="M200.9,97.3c0,0.6,0,1.3,0,1.9c0,0.7-0.4,0.5-0.8,0.4c-0.7-0.5-0.8-1.4-1.5-2.4
		C199.6,97.8,200.3,98,200.9,97.3z"/>
	<path class="st9" d="M190.5,93.5c0.4,0,0.8,0,1.1,0c1.3,0.7,2.8,1,3.9,2.2c0,0.2,0,0.3,0,0.5C193.8,95.3,192.1,94.4,190.5,93.5z"/>
	<path class="st0" d="M282.9,85.8c-1.7-0.8-3.1-2-4.9-2.6c-0.5-0.2-1.3-0.6-0.2-1.1c2.5-1.2,4.3-3.2,6.3-4.9
		c1.4-1.7,2.9-3.3,3.3-5.6c0.1-0.2,0.1-0.3,0.3-0.5c0.8-1.3,0.8-2.8,0.9-4.3c0-0.2,0-0.4,0.1-0.6c0.6-2,0.8-4,0.1-6.1
		c-0.1-0.2-0.1-0.4-0.1-0.5c0-1-0.2-2.1-0.2-3.1c0.1-0.3,0.3-0.5,0.6-0.6c0.8,0.1,1.1,0.5,1.1,1.3c0,2.8,1.3,4.5,4.1,5.1
		c0.7,0.1,1,0.7,0.9,1.5c-0.1,0.5,0.2,1.2-0.6,1.5c-0.6,0.2-1.2,0.2-1.5-0.4c-0.4-0.8-0.9-0.5-1.4-0.1c-0.4,0.4-0.8,0.8-1.1,1.3
		c-0.7,1.5-0.6,3.3-1.5,4.9c-0.7,1.1-0.5,2.6,0.6,3.7c-2.3-0.2-5.4,3.4-5,5.3c-0.1,0.1-0.1,0.1-0.1,0.1c0,0,0,0,0.1-0.1
		c0,0,0,0,0.1-0.1c0.5,0.1,0.9,0.2,1.4,0.3c0.7,0.1,1,0.3,1,1.1c0,0.7-0.5,1-1.1,1.2c-0.5,0.2-1.1,0.2-1.7,0.3
		c-0.5,0.1-1,0.2-1.1,0.9c-0.1,0.7,0.2,1.1,0.8,1.4c0.6,0.4,1,0.6,1.2-0.3c0.1-0.5,0.5-0.8,1-0.6c0.5,0.1,0.5,0.6,0.4,1
		c-0.3,1.4,0.6,2.4,1.2,3.6c-0.1,0.1-0.3,0.3-0.4,0.4c-1.2,0.1-1.4-1.1-2.2-1.6C284.3,87.1,283.8,86.1,282.9,85.8z"/>
	<path class="st53" d="M290.4,115.5c1.9-6.9,1.9-13.7-0.7-20.5c-0.3-0.8-0.6-1.5-0.8-2.3c0.5-0.2,0.6,0.2,0.8,0.4
		c2,4.7,3.1,9.6,2.7,14.7c-0.3,3.5-0.6,7-2.2,10.2c-0.2-0.1-0.3-0.3-0.3-0.5C289.7,116.8,290.1,116.2,290.4,115.5z"/>
	<path class="st0" d="M293.8,102c0.8,0.1,1.4,0.5,1.5,1.3c0.1,1,0.4,1.7,1.2,2.4c0.8,0.7,0.5,1.4-0.5,1.6c-0.6,0.1-1.1,0-1.7,0.1
		C293.1,105.7,294.1,103.8,293.8,102z"/>
	<path class="st54" d="M290,118.1c-0.6,3.3-2.1,6.1-4.6,8.3c-0.1-0.1-0.1-0.1-0.2-0.2c-0.1-1.4,0.9-2.2,1.6-3.2
		c1.2-1.7,1.8-3.7,3.1-5.3C289.9,117.9,289.9,118,290,118.1z"/>
	<path class="st0" d="M289.5,93.1c-0.3-0.1-0.5-0.3-0.8-0.4c-1.6-2.7-3.7-4.8-5.9-6.9c1.6,0.2,2.2,1.6,3.3,2.4
		c0.4,0.3,0.7,0.7,1.1,1C288,90.5,288.8,91.8,289.5,93.1z"/>
	<path class="st0" d="M292.2,95.4c2,0.4,2.1,1.1,0.4,3.5C292.1,97.8,291.9,96.6,292.2,95.4z"/>
	<path class="st54" d="M283,129.4c-0.9,0.3-1.2,1.6-2.4,1.5c0.9-2.1,2.5-3.7,4.6-4.7c0,0,0.1,0.1,0.1,0.1
		C284.9,127.7,283.7,128.3,283,129.4z"/>
	<path class="st0" d="M268,138.7c0.7-0.5,1.4-0.9,2.3-0.8C269.7,138.8,269.1,139.6,268,138.7z"/>
	<path class="st25" d="M297.3,119.4c0.9,0.8,0,1.5,0,2.3c-0.6-0.5-0.3-1.3-0.4-1.9C297,119.6,297.1,119.5,297.3,119.4z"/>
	<path class="st11" d="M245.3,117.4c0.5,0.4,0.9,0.8,1.4,1.2c0.8,1.1,1.8,1.9,3.1,2.3c0.5,0.3,1,0.5,1.5,0.8
		c3.6,1.7,7.2,1.6,10.8-0.1c8.1-3.8,11.7-13.5,8.1-21.7c-1.4-3.1-3.8-5.2-7.2-6.1c-3.6-1.7-7.4-1.7-11.2-1.8c-2.6-0.1-2.6,0-2.6-2.6
		c0-3.3,0-6.5-0.1-9.8c-0.1-1.5,0.4-1.9,1.9-1.9c3.1,0.1,6.2,0.1,9.1-0.8c0.2-0.1,0.4-0.2,0.7-0.4c0-0.1,0.1-0.1,0.1-0.2
		c0.5-0.4,1-0.5,1.5-0.8c0.1-0.1,0.3-0.2,0.4-0.2c0.8-0.3,1.4-0.8,2-1.4c0.5-0.4,0.8-0.9,1.2-1.4c1.5-1.9,2-4,2.3-6.4
		c0.4-3.7-0.2-7.1-2.2-10.2l0,0c-0.7-0.6-1.2-1.4-2-2l0,0c-0.7-0.4-1.4-0.6-2-1.2l0,0c-4-1.3-8-1.4-12.1,0l0,0
		c-0.4,0.4-0.9,0.6-1.5,0.7c-0.3,0-0.6-0.1-0.8-0.3c5.1-3.2,10.5-3.4,15.6-0.7c3.2,1.7,5.1,4.7,5.7,8.6c0.4,2.2,0.3,4.3,0,6.6
		c-0.5,4.5-4.6,8.6-8.9,9.6c-2.6,0.6-5.1,1-7.7,1c-2.8,0-2.8,0-2.8,2.7c0.3,1.3,0.3,2.6,0,3.9c0,1.2,0,2.3,0,3.5
		c0.3,0.8,0.3,1.5,0,2.3c1.7,0.6,3.5,0.6,5.2,0.8c3.8,0.4,7.6,0.8,11,2.9c4.1,2.4,5.7,6.2,6.2,10.6c0.3,2.8-0.4,5.5-1.1,8.1
		c0.1,0.8,0.2,0.8,1.2,0.9c1.4,0.2,2.4,1.2,3.5,1.9c1.2,0.8,2.3,1.3,3.7,1.3c2.4,0.1,4.6,1.4,7.1,1.5c1.3,0,0.9,1.5,0.5,2.3
		c-0.7,1.4-1.6,2.8-2.1,4.3c-1,2.2-2.9,3.5-4.6,5c-2.4,2.2-5.3,3.7-8.4,4.9c-0.4,0.1-0.7,0.3-0.9,0.6c-0.5,0.2-1,0.5-1.6,0.7
		c-3.1,1.2-6.4,1.6-9.7,1.7c-3.3,0.2-6.5-0.1-9.8-0.3c-1.9-0.8-4.1-0.4-6-1.5c0,0,0,0,0,0c-0.3-0.2-0.6-0.4-1-0.7c1-0.2,2,0.1,3,0.4
		c4.3,1.3,8.8,1.1,13.3,0.7c-1.1,0-2.3,0-3.4,0c-1.2,0-2.3,0-3.5,0c-3.1-2.2-5.6-5.1-9-7c-1.6-0.9-2.7-2.8-4.3-4
		c-2-1.6-4.3-2.8-6.2-4.5c-0.6-0.6-1.3-1-1.4-1.9c-0.2-1.4-1.1-2.1-2.3-2.5c-1.9-0.6-3.1-1.9-4.1-3.6c-0.4,0.7-0.4,0.7-0.4,2.7
		c-0.9-3.2-1.2-6.5-1.2-9.8c0-0.9,0.6-1,1.3-1c5.2,0,10.4,0,15.6,0c1.3,0,1.2,0.8,1.2,1.6c0,3.3,1,6.4,2.5,9.3
		C244.4,116.9,244.7,117.3,245.3,117.4z"/>
	<path class="st48" d="M225.2,113.6c1.7,1.5,3.3,3,5.5,3.6c0.6,0.2,1,0.8,1.2,1.4c0.7,3,3.4,3.9,5.5,5.5c1.8,1.3,3.7,2.6,5,4.3
		c1.5,1.8,3.5,2.6,5.2,3.9c1.8,1.5,3.4,3.1,4.9,4.9c-1.3-0.7-2.6-1.3-4-1.5c-1.1-0.2-2.1-0.6-2.3-2.1c-0.2-1.1-1.6-1.2-2.4-1.7
		c-1.6-1.2-2.8-2.8-4.2-4.1c-3.2-2.9-7.1-5.1-9.8-8.7c-1-1.4-3-2.1-4.1-3.8C225.4,114.6,225.1,114.2,225.2,113.6z"/>
	<path class="st55" d="M191.2,52.6c2.9,0.5,4.4,2.7,5.6,5c2.6,5.4,2.3,10.7-1,15.7c-0.7,1.1-1.8,1.8-2.9,2.4c-0.2-0.2-0.2-0.5,0-0.7
		c0.1-0.1,0.2-0.3,0.4-0.4c0.8-0.5,1.4-1.2,2-1.9l0,0c3.1-5.5,2.9-11,0-16.4c-0.9-1.6-2.2-2.7-3.9-3.3c-0.1-0.1-0.2-0.1-0.1-0.2
		C191.1,52.6,191.2,52.6,191.2,52.6z"/>
	<path class="st27" d="M195.2,56.3c3.4,4.5,3.4,12.4,0,16.4c0.9-2.8,2.1-5.6,1.9-8.7C196.8,61.3,196,58.8,195.2,56.3z"/>
	<path class="st18" d="M191.2,52.6c0,0.1,0,0.2,0.1,0.4c-3.4-0.8-6.7-1.1-10.2-0.4c-1.9,0.4-3.2,1.8-4.9,2.3
		c1.8-2.2,4.3-2.9,6.9-3.2C185.8,51.3,188.6,51.5,191.2,52.6z"/>
	<path class="st56" d="M187.1,77.3c-0.2,0.1-0.3,0.2-0.5,0.3c-1.6,0.4-3.2,0.2-4.8,0.2c-0.2-0.1-0.3-0.3-0.2-0.6c0.6,0,1.3,0,1.9,0
		c0.7-0.4,1.5-0.1,2.3-0.2C186.2,77.1,186.7,76.9,187.1,77.3z"/>
	<path class="st57" d="M187.1,77.3c-0.4,0-0.9-0.1-1.3-0.1c0-0.1,0-0.2,0.2-0.3c1.2,0.1,2.3-0.3,3.4-0.5c0.2-0.1,0.3-0.1,0.5,0
		c0.1,0.2,0,0.3-0.1,0.4C188.8,77,188,77.4,187.1,77.3z"/>
	<path class="st58" d="M189.7,76.8c0-0.1,0-0.2,0.1-0.3c0.5-0.5,1.1-0.6,1.7-0.7c0.5-0.3,1-0.5,1.4-0.8c0,0.2,0,0.5,0,0.7
		C191.8,76.1,190.9,77,189.7,76.8z"/>
	<path class="st27" d="M195.2,72.7c-0.4,0.9-1,1.6-2,1.9C193.7,73.8,194.3,73,195.2,72.7z"/>
	<path class="st0" d="M177,77.7c0.1-0.3,0.3-0.5,0.4-0.8c0.6-0.1,1.1,0.1,1.5,0.4c0.1,0.1,0.1,0.2,0.1,0.3c0,0.1,0,0.2-0.1,0.2
		c-0.2,0.2-0.5,0.2-0.7,0.1c-0.3,0-0.5,0.1-0.8,0C177.3,77.9,177.1,77.8,177,77.7z"/>
	<path class="st9" d="M178.9,77.6c0-0.1,0-0.2,0-0.3c0.9,0,1.8,0,2.7,0c0,0.1,0,0.2,0,0.4C180.7,78.3,179.8,78.4,178.9,77.6z"/>
	<path class="st27" d="M191.4,75.8c-0.5,0.4-1,0.7-1.7,0.7c-0.1,0-0.3-0.1-0.4-0.1C189.9,75.9,190.6,75.6,191.4,75.8z"/>
	<path class="st9" d="M185.9,76.9c0,0.1-0.1,0.2-0.2,0.3c-0.7,0-1.5,0-2.2,0.1C184.2,76.6,185.1,77,185.9,76.9z"/>
	<path class="st59" d="M174.7,59.1c-0.3-0.2-0.5,1.3-0.8,0c0.1-0.3,0.3-0.5,0.4-0.8C174.4,58.6,174.5,58.8,174.7,59.1z"/>
	<path class="st60" d="M271.1,136c0.7-1.4,2.3-1.4,3.5-2c3.9-1.9,7-4.7,9.8-7.8c0.2-0.2,0.1-0.5,0.2-0.7c1.2-1.5,1.5-3.5,3.1-4.6
		c1.4-1.6,1.2-3.9,2.7-5.4c0.3,0.8-0.7,1.4-0.5,2.3c-1.1,3.1-2.9,5.8-4.6,8.5c-1.5,1.6-3.1,3.1-4.6,4.7
		C277.6,132.9,274.7,135.1,271.1,136z"/>
	<path class="st61" d="M249.9,137.9c2.6,0.1,5.1,0.3,7.7,0.4c4.1,0.2,8-0.7,12-1.5c-0.5,0.9-1.7,0.5-2.4,1.1
		c-0.4,0.4-0.9,0.2-1.4,0.1c-5.4,1.1-10.8,0.8-16.2,0.3C249.5,138.1,249.7,138,249.9,137.9z"/>
	<path class="st29" d="M249.9,137.9c-0.1,0.1-0.2,0.3-0.4,0.4c-1.3-0.6-2.7-0.4-4.1-0.8c-0.6-0.2-1.1-0.2-1.3-0.9
		C246,137.1,247.9,137.5,249.9,137.9z"/>
	<path class="st31" d="M265.7,138c0.5,0,0.9-0.1,1.4-0.1c0.1,0.1,0.6,0.2,0.3,0.3C267,138.4,266.3,138.5,265.7,138z"/>
	<path class="st30" d="M212,128.6c4.1-4.7,7-9.9,8-16.1c1.5-9.4,0.2-18-6.5-25.2c2.4,0.8,3.2,3.1,4.4,5c1.7,2.7,2.5,5.8,3,9
		c0,0.2,0.2,0.4,0.3,0.7c0,3,0,5.9,0,8.9c-1.2,3.1-1.6,6.5-3.1,9.6c-1.3,2.7-3,5.2-4.9,7.5C213,128.3,212.6,128.7,212,128.6z"/>
	<path class="st16" d="M153.5,62.3c0.4-1.8,0.8-3.6,1.2-5.5c0.6-1.4,0.8-3.1,1.8-4.3c0.1,0.1,0.1,0.3,0.2,0.4
		c0.5,1.4-0.3,2.6-0.7,3.9c-0.8,2.8-1.3,5.6-1.3,8.5c0,1.2,0.4,1.8,1.6,1.8c4.2,0,8.3,0,12.5,0c1.2,0,1.8-0.5,1.9-1.6
		c0.4-0.8,0.1-1.8,0.8-2.4c0.1,0,0.3,0,0.4,0c-0.1,1.7,0.2,3.4-0.5,5c-5.3,0-10.7-0.1-16,0c-1.6,0-2.3-0.4-2.1-2
		C153.6,64.8,153.5,63.5,153.5,62.3z"/>
	<path class="st9" d="M222.9,112c0.6,0.7,0.3,1.5,0.3,2.3C222.6,113.6,223,112.8,222.9,112z"/>
	<path class="st30" d="M177,77.7c0.1,0,0.3,0,0.4,0c0.2,4.6,0.3,9.3,0,13.9c-0.1,0-0.2,0-0.4,0c0-4.5,0-9,0-13.5
		C177,77.9,177,77.8,177,77.7z"/>
	<path class="st9" d="M194.7,28.7c-0.8,1.1-1.7,0.8-2.7,0.3c0,0,0,0,0,0c0.7-0.4,1.5,0,2.2-0.3C194.4,28.7,194.6,28.7,194.7,28.7z"
		/>
	<path class="st62" d="M194.3,28.7c-0.7,0.6-1.5,0.2-2.2,0.3c0-0.1,0-0.3,0-0.4C192.8,28.6,193.5,28.7,194.3,28.7z"/>
	<path class="st63" d="M288.8,56c-0.1,0.1-0.2,0.3-0.3,0.4c-0.4-0.2-0.5-0.7-0.8-1.1c-0.3-0.8-0.5-1.5-0.8-2.3
		c-0.1-0.7-0.3-1.3-0.7-1.9c-0.2-0.3-0.4-0.6-0.5-1c0-0.8-1.2-1.3-0.5-2.3C287.9,50,288.7,52.9,288.8,56z"/>
	<path class="st35" d="M285.3,47.9c-0.2,0.9,0.9,1.5,0.7,2.4c-0.4,0.1-0.5-0.3-0.7-0.5c-1.3-2.7-3.4-4.8-5.5-6.9
		c0.1-0.2,0.3-0.2,0.4,0C282.2,44.3,283.6,46.3,285.3,47.9z"/>
	<path class="st9" d="M298.8,114.4c0,1.3-0.2,2.6-0.8,3.9c-0.9-0.9-1.6-1.8-0.2-2.9c0.6-0.5-0.2-1.7,0.7-2.2
		C299,113.5,298.7,113.9,298.8,114.4z"/>
	<path class="st21" d="M280.3,42.8c-0.1,0-0.3,0-0.4,0c-1-0.8-2.1-1.5-3.1-2.3C278.3,40.8,279.3,41.7,280.3,42.8z"/>
	<path class="st23" d="M291.1,44.8c0.3,0.2,0.4,0.4,0.4,0.8c-0.2,0.3-0.4,0.2-0.6,0C290.7,45.3,290.8,45,291.1,44.8z"/>
	<path class="st64" d="M268.7,29.8c0.6,0,1.2,0.1,1.8,0.1C269.9,30.3,269.3,30.3,268.7,29.8z"/>
	<path class="st48" d="M287.6,120.9c-0.9,1.6-1.5,3.5-3.1,4.6c0.3-1.8,1.2-3.2,2.2-4.6c0.3-0.5,0.7-0.9,0.3-1.5
		c-0.4-0.5-0.9-0.4-1.4-0.2c-0.6,0.2-1.1,0-1.6-0.2c-1.3-0.5-2.7-1.2-4-1.1c-2.6,0.2-4.2-1.3-6-2.5c-0.6-0.4-1.3-1-1.9-0.9
		c-1.6,0.3-1-0.7-1-1.4c1.5,0,2.9,0.4,4,1.1c2.5,1.7,5.4,2.3,8.1,3.5c0.5,0.2,0.9,0.1,1.3,0C287.2,117.7,287.6,118,287.6,120.9z"/>
	<path class="st65" d="M236.7,42.1c0.5,1.8-0.7,3.2-1.5,4.6c-0.7,1.2-1.6,2.2-2.4,3.3c-0.9,1.3-1.7,2.6-2.5,3.9
		c-0.2,0.4-0.6,0.5-1,0.5c-0.8-1-0.2-2,0.3-2.8c0.4-0.7,0.8-1.3,0.4-2.2c0.7-2.7,2.8-4.4,4.7-6.1C235.3,42.8,235.8,42,236.7,42.1z"
		/>
	<path class="st66" d="M224.5,64.9c0.4-2.6,0.7-5.1,1.1-7.7c1-1.3,0.6-3.2,1.9-4.3c0.3,0.2,0.3,0.6,0.3,0.9c0,0.2-0.1,0.3-0.1,0.5
		c-0.2,0.7-0.6,1.4-1,2l0,0c-0.2,0.8-0.4,1.6-0.7,2.3c-0.4,2.4-0.8,4.8-0.9,7.3c0,1.3,0.4,1.7,1.6,1.6c5.1-0.1,10.3-0.1,15.4-0.1
		c0.3-0.1,0.6-0.2,0.8,0.1c-0.5,0.7-1.3,0.4-1.9,0.4c-4.5,0-8.9,0-13.4,0C224.5,68,224.5,68,224.5,64.9z"/>
	<path class="st67" d="M227.4,54.1c0-0.4,0-0.8,0-1.2c0.7-2.4,2.3-4.3,3.6-6.5c0.5-0.3,0.8-0.7,1.1-1.2c1.3-1.2,2.6-2.3,3.8-3.5
		c0.6-0.2,1.2-0.6,1.6-1.1c0.5-0.2,1-0.4,1.5-0.5c-0.1,0.3-0.2,0.6-0.3,0.9c-0.1,0.1-0.2,0.4-0.4,0.4c-0.7,0-1,0.5-1.5,0.8
		c-2.8,1.9-4.9,4.4-6.6,7.3c-0.1,0.8-0.7,1.4-0.9,2.1c-0.4,0.7-0.5,1.5-0.8,2.2C228.1,54.1,227.9,54.3,227.4,54.1z"/>
	<path class="st68" d="M285.3,49.8c0.2,0.2,0.4,0.4,0.7,0.5c0.1,0.2,0.3,0.4,0.4,0.7c0.3,0.7,0.5,1.3,0.7,2.1
		c0.3,0.7,0.6,1.5,0.8,2.2c0.5,1.5,0.5,3.1,0.7,4.7l0,0c0.6,2.2,0.5,4.4,0,6.6c-0.1,0.1-0.1,0.2,0,0.3c-0.2,1.6-0.2,3.3-1.2,4.7l0,0
		c-0.3,0.2,0,1-0.7,0.8c0.4-1.7,0.9-3.5,1.1-5.2c0.8-5.6,0-11-2.3-16.1C285.5,50.5,285.4,50.2,285.3,49.8z"/>
	<path class="st69" d="M242.9,67.6c-0.3,0-0.5,0-0.8-0.1c0.8-1.2,0.3-2.6,0.5-3.9c0.6-4.1,2.2-7.5,5.3-10.3c0.3,0,0.6,0,0.9,0.1
		c0,0.4-0.3,0.5-0.5,0.7l0,0c-0.3,0.5-0.6,1-1.3,1.1c-0.1,0.1-0.2,0.2-0.3,0.3c-0.6,1.1-1.3,2.1-1.9,3.3c0,0,0,0,0,0
		c-1.2,2.1-1.5,4.4-1.6,6.7C243.1,66.1,243.4,66.9,242.9,67.6z"/>
	<path class="st70" d="M229,51.4c0.1-0.8,0.4-1.5,1.2-1.9c1.2,0.3,0.9,1.1,0.4,1.7c-0.8,1-1.1,2.1-1.1,3.3c-0.9,0.4-1.2,1.5-2.3,1.6
		c0-0.7,0.2-1.3,0.4-2c0,0,0,0,0,0c0.3-0.1,0.5-0.2,0.8-0.4C228.4,52.9,228.9,52.2,229,51.4z"/>
	<path class="st27" d="M286.9,72.2c0.2-0.3,0.5-0.5,0.7-0.8c-0.2,2.5-1.8,4.2-3.6,5.8C284.9,75.5,286.3,74.1,286.9,72.2z"/>
	<path class="st48" d="M249.8,85c0-1.3,0-2.6,0-3.9C250.4,82.4,250.4,83.7,249.8,85z"/>
	<path class="st65" d="M238.3,41.3c0.1-0.1,0.3-0.3,0.4-0.4c0.2,0.5,0.6,0.9-0.1,1.3c-0.1,0.1-0.3,0-0.5,0
		C238.1,41.9,238.2,41.6,238.3,41.3z"/>
	<path class="st67" d="M227.5,54.1c0.1,0.7,0,1.4-0.4,2c-0.1,0.1-0.3,0.2-0.4,0.4C226.8,55.6,226.9,54.7,227.5,54.1z"/>
	<path class="st67" d="M226,58.7c0-0.8,0.2-1.6,0.7-2.3C226.8,57.3,226.7,58.1,226,58.7z"/>
	<path class="st48" d="M249.8,90.8c0-0.8,0-1.5,0-2.3C250.4,89.2,250.4,90,249.8,90.8z"/>
	<path class="st10" d="M171.2,65.3c0.2,1.7-0.3,2.4-2.1,2.3c-4.3-0.2-8.7-0.1-13,0c-1.5,0-1.9-0.2-1.9-2c0-4.5,1.2-8.6,2.6-12.7
		c0.7-1.2,1.5-2.4,2.2-3.6c0.3-0.6,0.6-1.1,1.2-1.4c2,1,4.3,1.5,5.5,3.8c0.4,0.7,1.3,1.1,2,1.5c0.6,0.3,1.3,0.7,1.6,1.4
		c0.6,1.4,1.6,2.4,3.1,2.9c0.3,0.1,0.7,0.4,0.5,0.9c-0.7,1.3-0.9,2.8-1.2,4.3C171.1,63.4,171.7,64.4,171.2,65.3z"/>
	<path class="st71" d="M172.7,58.3c-1.8-0.9-3.6-1.8-4.2-4c-0.1-0.4-0.7-0.5-1.1-0.7c-1.2-0.5-2.2-1.3-2.9-2.4c-0.7-1-1.3-2-2.8-1.9
		c-0.8,0-1.3-0.8-1.7-1.5c0-0.6,0.5-0.8,0.8-1.2c0.2-0.3,0.4-0.6,0.7-0.5c0.4,0.1,0.4,0.5,0.4,0.8c-0.1,1.2,0.6,1.3,1.5,1.4
		c1.3,0.1,2.5,0.6,3,2c0.3,0.8,1,1.2,1.7,1.7c1.2,0.8,2.6,1.5,2.6,3.2c0,0.9,0.9,1,1.4,1.1C173.5,56.8,173.6,57.4,172.7,58.3z"/>
	<path class="st47" d="M197.8,37.1c1.1,0.6,2.2,0.9,3.4,1.2c0.3,0.2,0.6,0.5,0.9,0.7c-2.5,0-4.6-1.3-7-1.8c-2.1-0.4-4.1-0.7-6.2-0.9
		c-3.8-0.4-7.5,0.4-11.3,0.3c0.7-0.2,1.4-0.4,2.1-0.7c4.3-0.3,8.7-0.3,13,0C194.4,36.5,196.1,36.9,197.8,37.1z"/>
	<path class="st72" d="M178.9,77.6c0.9,0,1.8,0,2.7,0.1c1.7,0.3,3.3-0.1,5,0c-1.1,1-2.7-0.1-3.9,0.8c-1.4,0.5-3.3-0.3-4.2,1.6
		c0,1.3,0,2.6,0,3.9c0.8,2.4,0.9,4.9,0,7.3c0,0.1,0,0.3,0,0.4c-0.6-0.4-0.4-1-0.4-1.6c0-4,0-7.9,0-11.9c-0.1-0.1-0.2-0.2-0.1-0.3
		c0.1-0.1,0.1-0.1,0.2-0.1C178.4,77.6,178.7,77.6,178.9,77.6z"/>
	<path class="st71" d="M178.6,91.2c0-2.4,0-4.9,0-7.3c0.7,0.4,1.2,0.9,1.1,1.8c0,1.5,0,2.9,0,4.4C179.7,90.9,179.4,91.2,178.6,91.2z
		"/>
	<path class="st73" d="M178.6,80c-0.2-1.1,0.1-1.7,1.4-1.6c0.9,0.1,1.9,0,2.8,0c0.6,0,1.2,0,1.8,0c0,0.1,0,0.3,0,0.4
		c-0.7,0-1.3,0-2,0c-0.7,0-1.4,0.1-2.1,0.2C179.8,79.1,179.4,79.9,178.6,80z"/>
	<path class="st71" d="M171.2,65.3c0.1-0.9-0.4-1.9,0.4-2.7c0,0.1,0,0.3,0,0.4C171.5,63.8,171.8,64.6,171.2,65.3z"/>
	<path class="st74" d="M266.1,73.1c-0.2,0.5-0.5,0.9-1.1,1.1c-0.8,0.5-1.7,0.9-2.4,1.6l0,0c-0.7,0.3-1.5,0.2-2,0.8c0,0,0,0,0,0
		c-3.7,0.3-7.5,0.9-11.2,0.7c-0.1-0.4-0.6-0.5-0.4-1.1c3.8,1,7.5,0,11.3-0.5c1.8-0.2,3-1.8,4.4-2.8c0.4-0.3,0.4-0.7,0.1-1.2
		c-0.7-1.4-0.4-2.5,1.3-2.8c1.4-0.3,1-1.4,1.1-2.3c0.4-0.2,0.7,0,1,0.2C268.4,69.1,267.2,71.1,266.1,73.1z"/>
	<path class="st33" d="M266.1,73.1c0.6-2.1,1.9-4,1.9-6.3c-0.3-1.3-0.1-2.6,0.3-3.8c-0.3-2.5-1.4-4.7-2.2-7.1
		c1.1,0.9,1.6,2.2,1.9,3.4C269.3,64.2,269.6,68.9,266.1,73.1z"/>
	<path class="st75" d="M250.2,52.9c4-1.8,8-1.9,12.1,0C258.2,51.8,254.2,52,250.2,52.9z"/>
	<path class="st76" d="M268.3,63c0,1.3,0.3,2.6-0.3,3.8c-0.2-0.1-0.5-0.2-0.7-0.4C267.2,65.2,267.2,63.9,268.3,63z"/>
	<path class="st25" d="M244.1,63c0.1-1.1,0.3-2.1,0.8-3.1C245.4,61.1,245.2,62.2,244.1,63z"/>
	<path class="st75" d="M244.8,58.7c0.2-1.4,1.1-2.3,1.9-3.3C246.4,56.7,245.8,57.9,244.8,58.7z"/>
	<path class="st33" d="M264.1,54c1,0.4,1.6,1,2,2C265,55.8,264.7,54.8,264.1,54z"/>
	<path class="st75" d="M262.2,52.8c0.8,0.1,1.5,0.5,2,1.2C263.3,54,262.6,53.8,262.2,52.8z"/>
	<path class="st75" d="M248.3,54.1c0.2-0.2,0.4-0.5,0.5-0.7c0.5-0.2,0.9-0.3,1.4-0.5C249.8,53.7,249.1,54,248.3,54.1z"/>
	<path class="st75" d="M247,55.2c0.4-0.5,0.7-0.9,1.3-1.1C248.3,54.9,247.8,55.3,247,55.2z"/>
	<path class="st9" d="M234.8,68.8c-2.4,0-4.9,0-7.3,0C229.9,68.1,232.4,68.1,234.8,68.8z"/>
	<path class="st0" d="M240.2,68.8c-1.2,0-2.3,0-3.5,0C237.9,68.1,239,68.1,240.2,68.8z"/>
	<path class="st11" d="M219,98.9c-0.4,0.3-0.4,0.6-0.4,1c-0.1,2.2-0.4,2.3-2.4,1.1c-0.4-0.3-0.8-0.6-1.3-0.8
		c-1.8-0.8-1.9-1.6-0.7-3.3c0.8-1.3,2.3-2.1,2.5-3.8C218.1,94.8,218.4,96.9,219,98.9z"/>
	<path class="st53" d="M178.2,77.7c0,0.1,0,0.2,0,0.4c-0.6,0.4-0.4,1-0.4,1.6c0,4.1,0,8.2,0,12.3c-0.1-0.1-0.3-0.3-0.4-0.4
		c0-4.6,0-9.3,0-13.9C177.7,77.7,177.9,77.7,178.2,77.7z"/>
	<path class="st27" d="M288.8,66.5c0-2.2,0-4.4,0-6.6C290,62.1,289.7,64.3,288.8,66.5z"/>
	<path class="st0" d="M279.6,82.5c0.8-0.5,1.4-0.9,2-1.3c0.3-0.2,0.6-0.4,0.8,0c0.1,0.3,0.2,0.6,0.2,0.9c0,0.4-0.3,0.7-0.6,0.5
		C281.2,82.2,280.5,82.8,279.6,82.5z"/>
	<path class="st27" d="M287.6,71.5c0.4-1.6,0.8-3.2,1.2-4.7C288.7,68.4,289.2,70.2,287.6,71.5z"/>
	<path class="st77" d="M288.7,59.9c-0.4-1.5-0.7-3.1-0.7-4.7c0.5,0.3,0.4,0.7,0.5,1.2C288.9,57.5,288.8,58.7,288.7,59.9z"/>
	<path class="st0" d="M284.5,80.5c0,0.4,0,0.9-0.5,0.8c-0.3,0-0.5-0.3-0.6-0.7c0-0.5,0.3-0.6,0.7-0.7
		C284.8,79.8,284.4,80.3,284.5,80.5z"/>
	<path class="st36" d="M262.6,75.8c0.5-1,1.3-1.4,2.4-1.6C264.4,75,263.6,75.6,262.6,75.8z"/>
	<path class="st36" d="M260.7,76.6c0.3-1.1,1.2-0.9,2-0.8C262.1,76.3,261.4,76.6,260.7,76.6z"/>
	<path class="st35" d="M287.2,53.1c-0.4-0.6-0.8-1.3-0.7-2.1C287.1,51.5,287.3,52.2,287.2,53.1z"/>
	<path class="st65" d="M229,51.4c0.6,1.1-0.6,1.5-0.8,2.3C228.2,52.8,228.3,52,229,51.4z"/>
</g>
</svg>
