<?xml version="1.0" encoding="iso-8859-1"?>
<!-- Generator: Adobe Illustrator 18.0.0, SVG Export Plug-In . SVG Version: 6.00 Build 0)  -->
<!DOCTYPE svg PUBLIC "-//W3C//DTD SVG 1.1//EN" "http://www.w3.org/Graphics/SVG/1.1/DTD/svg11.dtd">
<svg version="1.1" id="Capa_1" xmlns="http://www.w3.org/2000/svg" xmlns:xlink="http://www.w3.org/1999/xlink" x="0px" y="0px"
	 viewBox="0 0 493.253 493.253" style="enable-background:new 0 0 493.253 493.253;" xml:space="preserve">
<path style="fill-rule:evenodd;clip-rule:evenodd;" d="M246.626,0C110.418,0,0,110.419,0,246.627
	c0,136.207,110.418,246.626,246.626,246.626s246.626-110.419,246.626-246.626C493.252,110.419,382.834,0,246.626,0z
	 M358.248,372.355c-4.022,6.749-12.543,9.472-19.83,6.246c-1.463-0.641-2.836-1.51-4.221-2.334
	c-27.037-16.016-56.214-25.944-87.219-30.686c-19.031-2.917-38.168-3.923-57.381-3.169c-24.857,0.973-49.402,4.416-73.682,9.787
	c-2.453,0.549-4.981,1.052-7.476,1.075c-7.515,0.068-13.864-5.257-15.187-12.485c-1.395-7.654,2.397-14.826,9.422-17.651
	c1.483-0.595,3.061-0.973,4.626-1.327c19.859-4.45,39.912-7.836,60.195-9.553c11.331-0.961,22.695-1.326,34.05-1.967
	c33.592,0.355,66.451,4.897,98.338,15.648c17.588,5.926,34.387,13.603,50.34,23.103c1.377,0.823,2.785,1.636,4.055,2.608
	C360.719,356.535,362.394,365.377,358.248,372.355z M389.505,302.861c-5.65,9.26-17.381,12.143-27.135,6.651
	c-5.501-3.111-10.939-6.331-16.563-9.202c-25.783-13.145-53.128-21.667-81.499-27.031c-21.844-4.142-43.889-6.154-67.322-6.258
	c-29.175,0.125-59.065,3.74-88.266,12.4c-4.758,1.418-9.535,1.51-14.19-0.377c-7.585-3.066-12.521-10.674-12.252-18.71
	c0.273-8.396,5.394-15.694,13.48-18.165c8.232-2.518,16.588-4.691,24.99-6.567c20.682-4.598,41.65-7.023,62.83-7.824
	c45.568-1.728,90.086,4.164,133.515,18.086c21.964,7.035,42.973,16.249,62.814,28.056c0.984,0.584,1.963,1.189,2.952,1.784
	C393.201,282.017,394.437,294.75,389.505,302.861z M392.521,230.604c-11.016-6.234-22.289-11.885-34.039-16.592
	c-23.341-9.358-47.524-15.648-72.244-20.008c-17.205-3.031-34.541-5.045-51.976-6.098c-18.126-1.086-36.264-1.213-54.413-0.274
	c-20.801,1.075-41.433,3.363-61.795,7.756c-7.514,1.625-14.934,3.673-22.369,5.651c-4.559,1.235-9.049,1.373-13.585,0.046
	c-9.929-2.905-16.78-11.806-17.071-22.216c-0.293-10.129,5.959-19.533,15.775-22.77c7.184-2.368,14.556-4.232,21.934-5.938
	c18.263-4.221,36.777-6.84,55.446-8.533c19.825-1.808,39.679-2.391,59.548-1.83c48.961,1.406,96.961,8.557,143.416,24.594
	c18.938,6.544,37.173,14.66,54.498,24.771c6.177,3.593,10.324,8.672,11.902,15.707c0.377,1.671,0.463,3.398,0.686,5.113
	C428.161,228.465,408.765,239.79,392.521,230.604z"/>
<g>
</g>
<g>
</g>
<g>
</g>
<g>
</g>
<g>
</g>
<g>
</g>
<g>
</g>
<g>
</g>
<g>
</g>
<g>
</g>
<g>
</g>
<g>
</g>
<g>
</g>
<g>
</g>
<g>
</g>
</svg>
